<svg xmlns="http://www.w3.org/2000/svg" width="709.56073pt" height="150pt" viewBox="0 0 709.56072 149.99999"><path fill="#02377c" d="M25.843 2.223H0v145.564h98.815v-21.816H25.843ZM115.472 147.785h25.848V2.221h-25.848zM223.281 87.416h30.49v34.93c-7.272 2.827-14.337 4.238-23.824 4.238-23.623 0-40.383-11.308-40.383-43.002v-14.94c0-36.938 16.355-45.226 38.764-45.226 12.113 0 25.039 3.236 35.74 12.723l13.918-19.789C263.052 4.238 245.488 0 228.328 0c-37.348 0-64.607 19.177-64.607 62.787v26.04c0 43.411 28.063 61.173 65.017 61.173 17.361 0 37.753-4.643 50.67-13.321V65.81H223.28zM451.217 132.08h131.767v-16.552H451.217ZM507.55 72.657c4.473-2.764 7.498-5.726 9.535-8.625 2.047 2.9 5.066 5.861 9.545 8.625l39.395 23.666 9.43-15.17-30.697-18.484c-15.257-9.415-17.752-20.579-17.998-27.61V10.906h-19.326v23.55c-.12 6.994-2.322 18.528-18.022 28.213l-30.688 18.484 9.44 15.17zM622.781 100.481h19.337V82.007h8.317c5.933-.03 18.47-.337 29.402-2.293l-2.365-16.706c-11.144 2.095-24.215 2.427-30.302 2.456h-59.06v16.543h34.671z" style="stroke-width:4.81603"/><path fill="#02377c" d="M660.416 86.465v16.548h27.533v10.326h19.331V2.247H687.95v84.218zM630.823 128.446v-21.34h-19.336v37.888h98.074v-16.548zM633.98 19.804c9.227 0 16.701 5.519 16.701 12.343 0 6.81-7.474 12.334-16.701 12.334-9.233 0-16.712-5.524-16.712-12.334 0-6.824 7.48-12.343 16.712-12.343m-.01 40.878c19.654 0 35.576-12.777 35.576-28.535 0-15.773-15.922-28.545-35.576-28.545-19.645 0-35.567 12.772-35.567 28.545 0 15.758 15.922 28.535 35.567 28.535M388.037 85.75h18.398V2.232h-18.398v26.142H360.5v16.543h27.538zM416.493 85.75h18.398V2.23h-18.398zM337.923 108.928h77.639v38.836h19.327v-55.38h-96.966z" style="stroke-width:4.81603"/><path fill="#02377c" d="M350.525 77.558c5.933-.024 18.465-.333 29.407-2.297l-2.375-16.702c-11.14 2.1-24.21 2.432-30.297 2.45h-11.193V10.895h-19.331v66.664z" style="stroke-width:4.81603"/></svg>