<svg xmlns="http://www.w3.org/2000/svg" width="1280" height="1280"><path fill="#FEFCFB" d="m619.95-.203 4.484-.022c4.75-.019 9.502-.024 14.254-.025h2.453c22.99-.002 45.864.003 68.7 2.971 2.352.304 4.704.593 7.057.881 66.949 8.287 132.243 26.175 193.3 55.075a1059 1059 0 0 0 8.189 3.815C964.574 83.956 1007.9 112.418 1047 145c.516.43 1.031.859 1.563 1.3 6.706 5.595 13.285 11.294 19.707 17.216 2.11 1.92 4.242 3.789 6.402 5.65 4.268 3.73 8.3 7.66 12.3 11.674l2.203 2.2q2.287 2.285 4.57 4.575 3.468 3.473 6.944 6.938l4.471 4.474 2.068 2.062c4.456 4.477 8.663 9.116 12.772 13.911q1.425 1.641 2.852 3.281c29.892 34.613 55.94 71.734 78.148 111.719l1.742 3.119c26.488 47.644 46.34 98.925 59.258 151.881l.508 2.076c10.558 43.36 17.564 88.178 17.695 132.873l.022 4.485a3614 3614 0 0 1 .026 16.707c.001 22.99-.004 45.864-2.972 68.7-.304 2.352-.593 4.704-.881 7.057-10.511 84.914-37.076 167.047-177.449 370.118-1.774 1.806-3.401 3.658-5.012 5.609-2.626 3.144-5.55 5.712-8.667 8.36-2.701 2.398-5.236 4.943-7.77 7.515a210 210 0 0 1-13.5 12.5q-1.523 1.317-3.043 2.637c-14.81 12.826-30.043 24.93-45.957 36.363l-2.486 1.787c-11.901 8.516-24.022 16.59-36.514 24.213l-2.52 1.541C921.623 1219.093 865.717 1243.465 807 1259l-3.425.917c-29.41 7.814-59.176 13.21-89.37 16.819q-2.137.256-4.273.52c-46.134 5.717-95.82 5.517-141.932-.256l-4.3-.52c-84.17-10.328-166.956-36.273-240.344-79.112a350 350 0 0 0-6.114-3.466c-44.635-24.85-87.346-57.454-123.199-93.894-1.947-1.914-3.958-3.684-6.043-5.446-3.908-3.352-7.243-7.088-10.64-10.949-2.414-2.673-4.921-5.21-7.485-7.738-4.174-4.136-8.07-8.4-11.875-12.875q-1.407-1.63-2.816-3.258c-5.876-6.8-11.653-13.656-17.184-20.742l-2.254-2.871C117.2 1012.283 100.056 987.198 85 961l-1.245-2.16c-3.001-5.236-5.9-10.523-8.755-15.84l-1.602-2.98C35.893 869.87 12.477 793.05 3.25 714.106a735 735 0 0 0-.746-6.007c-5.523-44.59-5.56-93.391.22-137.953.3-2.325.581-4.652.862-6.979C8.318 524.347 16.38 486.339 28 449l.614-1.98C48.508 383.083 78.786 322.273 118 268l1.762-2.449A583 583 0 0 1 145 233c.491-.59.983-1.18 1.489-1.79 5.288-6.341 10.666-12.593 16.231-18.695a361 361 0 0 0 4.094-4.586c6.85-7.785 14.184-15.078 21.525-22.398q3.338-3.332 6.667-6.674l4.31-4.306 1.977-1.983c4.409-4.387 8.992-8.514 13.707-12.568q1.787-1.568 3.57-3.14c7.66-6.715 15.462-13.166 23.529-19.384 2.049-1.59 4.081-3.202 6.112-4.816 9.923-7.856 20.103-15.183 30.627-22.21a523 523 0 0 0 5.709-3.888C344.933 65.165 413.933 35.269 485 18l2.067-.505C530.434 6.942 575.247-.072 619.949-.203"/><path fill="#901A00" d="m619.95-.203 4.484-.022c4.75-.019 9.502-.024 14.254-.025h2.453c22.99-.002 45.864.003 68.7 2.971 2.352.304 4.704.593 7.057.881 66.949 8.287 132.243 26.175 193.3 55.075a1059 1059 0 0 0 8.189 3.815C964.574 83.956 1007.9 112.418 1047 145c.516.43 1.031.859 1.563 1.3 6.706 5.595 13.285 11.294 19.707 17.216 2.11 1.92 4.242 3.789 6.402 5.65 4.268 3.73 8.3 7.66 12.3 11.674l2.203 2.2q2.287 2.285 4.57 4.575 3.468 3.473 6.944 6.938l4.471 4.474 2.068 2.062c4.456 4.477 8.663 9.116 12.772 13.911q1.425 1.641 2.852 3.281c29.892 34.613 55.94 71.734 78.148 111.719l1.742 3.119c26.488 47.644 46.34 98.925 59.258 151.881l.508 2.076c10.558 43.36 17.564 88.178 17.695 132.873l.022 4.485a3614 3614 0 0 1 .026 16.707c.001 22.99-.004 45.864-2.972 68.7-.304 2.352-.593 4.704-.881 7.057-10.511 84.914-37.076 167.047-177.449 370.118-1.774 1.806-3.401 3.658-5.012 5.609-2.626 3.144-5.55 5.712-8.667 8.36-2.701 2.398-5.236 4.943-7.77 7.515a210 210 0 0 1-13.5 12.5q-1.523 1.317-3.043 2.637c-14.81 12.826-30.043 24.93-45.957 36.363l-2.486 1.787c-11.901 8.516-24.022 16.59-36.514 24.213l-2.52 1.541C921.623 1219.093 865.717 1243.465 807 1259l-3.425.917c-29.41 7.814-59.176 13.21-89.37 16.819q-2.137.256-4.273.52c-46.134 5.717-95.82 5.517-141.932-.256l-4.3-.52c-84.17-10.328-166.956-36.273-240.344-79.112a350 350 0 0 0-6.114-3.466c-44.635-24.85-87.346-57.454-123.199-93.894-1.947-1.914-3.958-3.684-6.043-5.446-3.908-3.352-7.243-7.088-10.64-10.949-2.414-2.673-4.921-5.21-7.485-7.738-4.174-4.136-8.07-8.4-11.875-12.875q-1.407-1.63-2.816-3.258c-5.876-6.8-11.653-13.656-17.184-20.742l-2.254-2.871C117.2 1012.283 100.056 987.198 85 961l-1.245-2.16c-3.001-5.236-5.9-10.523-8.755-15.84l-1.602-2.98C35.893 869.87 12.477 793.05 3.25 714.106a735 735 0 0 0-.746-6.007c-5.523-44.59-5.56-93.391.22-137.953.3-2.325.581-4.652.862-6.979C8.318 524.347 16.38 486.339 28 449l.614-1.98C48.508 383.083 78.786 322.273 118 268l1.762-2.449A583 583 0 0 1 145 233c.491-.59.983-1.18 1.489-1.79 5.288-6.341 10.666-12.593 16.231-18.695a361 361 0 0 0 4.094-4.586c6.85-7.785 14.184-15.078 21.525-22.398q3.338-3.332 6.667-6.674l4.31-4.306 1.977-1.983c4.409-4.387 8.992-8.514 13.707-12.568q1.787-1.568 3.57-3.14c7.66-6.715 15.462-13.166 23.529-19.384 2.049-1.59 4.081-3.202 6.112-4.816 9.923-7.856 20.103-15.183 30.627-22.21a523 523 0 0 0 5.709-3.888C344.933 65.165 413.933 35.269 485 18l2.067-.505C530.434 6.942 575.247-.072 619.949-.203M332.405 293.805a156 156 0 0 1-4.01 3.56c-6.163 5.263-11.887 10.94-17.614 16.667a1477 1477 0 0 1-5.14 5.1c-5.943 5.914-11.517 11.91-16.74 18.478a146 146 0 0 1-4.949 5.894C259.058 371.617 239.89 404.629 223 438l-1.21 2.371C182.808 517.321 168.866 609.717 180 695l.809 6.84c11.218 90.173 51.336 178.852 112.996 245.754a156 156 0 0 1 3.571 4.023c5.169 6.054 10.758 11.67 16.394 17.283q2.495 2.49 4.982 4.989c5.577 5.58 11.218 11.018 17.248 16.111l2.922 2.563C402.21 1047.11 480.8 1083.077 563 1097l3.33.566c83.624 13.877 171.11 3.146 347.475-83.568 9.416-6.902 18.383-14.346 27.195-21.998l2.227-1.922A776 776 0 0 0 949 985l2.131-1.874c6.381-5.667 12.473-11.575 18.493-17.62q2.355-2.36 4.718-4.711C979.77 955.37 985.06 949.88 990 944l1.602-1.885c25.531-30.197 46.591-62.857 64.398-98.115l1.345-2.657c7.228-14.399 13.18-29.197 18.655-44.343l1.184-3.273c13.377-37.452 20.992-76.276 24.55-115.834q.248-2.719.554-5.43c1.004-9.257.909-18.54.9-27.838v-2.735c-.016-16.045-.708-31.907-2.188-47.89l-.21-2.477c-3.643-42.564-14.57-85.061-30.79-124.523l-1.095-2.673c-18.487-44.694-43.46-85.286-74.33-122.427q-1.49-1.796-2.963-3.608c-7.968-9.803-16.834-18.724-25.737-27.667l-1.82-1.837c-6.626-6.67-13.284-13.056-20.679-18.877-2.458-1.977-4.762-4.067-7.063-6.224C929.61 277.6 922.316 272.318 915 267l-2.076-1.513C860.274 227.269 801.28 201.429 738 187l-2.834-.659c-10.731-2.463-21.568-4.035-32.479-5.466l-3.662-.481c-19.44-2.437-38.742-3.78-58.337-3.707l-3.14.007c-78.013.258-154.998 20.236-305.142 117.11"/><path fill="#FEFEFE" d="m695 180 6.84.809c88.184 10.97 171.595 49.54 239.035 107.004l1.602 1.36c9.761 8.382 19.094 17.211 28.188 26.306 1.527 1.526 3.063 3.043 4.599 4.56 6.364 6.329 12.141 12.93 17.736 19.961q1.42 1.688 2.863 3.355C1049.328 405.177 1082.98 482.925 1097 563l.468 2.623c4.498 25.437 5.764 51.33 5.782 77.127l.002 2.68c-.02 16.69-1.075 33.007-3.252 49.57l-.257 1.994c-5.128 39.67-14.263 79.023-29.743 116.006l-1.205 2.884C1059.35 838.28 1048.915 860.38 1036 881l-1.303 2.085C1021.885 903.478 1007.727 922.77 992 941l-1.934 2.242A822 822 0 0 1 985 949l-1.874 2.131c-5.667 6.381-11.575 12.473-17.62 18.493a1786 1786 0 0 0-4.711 4.718C955.369 979.772 949.86 985.038 944 990l-2.922 2.563C911.651 1017.925 878.6 1038.526 844 1056l-2.657 1.345c-14.399 7.228-29.197 13.18-44.343 18.655l-3.273 1.184C755.33 1090.897 715.555 1098.475 675 1102l-3.049.288c-9.237.81-18.436.913-27.701.9l-2.502-.003c-91.85-.224-181.583-25.73-269.748-85.185-1.202-.857-1.202-.857-2.43-1.73-10.64-7.613-20.785-15.59-30.57-24.27q-2.124-1.845-4.25-3.687L331 985l-2.13-1.875c-6.328-5.626-12.399-11.468-18.384-17.454a1215 1215 0 0 0-4.652-4.612c-5.673-5.642-10.946-11.399-15.919-17.676-1.811-2.254-3.7-4.388-5.665-6.508C251.254 900.082 225.73 853.831 208 808l-1.253-3.239C192.363 767.088 183.595 728.032 179 688l-.36-2.875c-8.948-72.532 3.7-150.88 31.36-218.125l1.111-2.706C224.645 431.67 241.391 400.704 262 372l1.726-2.42c7.138-9.978 14.564-19.54 22.692-28.727 1.162-1.36 2.29-2.75 3.398-4.155 6.307-7.974 13.3-15.119 20.503-22.278 2.052-2.042 4.094-4.093 6.134-6.147 6.51-6.516 13.034-12.786 20.287-18.479 2.22-1.763 4.306-3.617 6.385-5.544C406.555 227.367 491.759 193.126 695 180m-60.277 84.093-2.736.74-3.025.824-3.198.867q-5.34 1.448-10.678 2.902l-7.62 2.067q-9.296 2.523-18.592 5.052l-15.159 4.12a78085 78085 0 0 0-148.868 40.608l-1.947.533-19.694 5.392C381.476 333.15 359.737 339.074 338 345a118454 118454 0 0 0-.22 148.535l-.003 3.16c-.017 16.838-.049 33.675-.086 50.513q-.056 25.957-.067 51.915-.008 15.989-.056 31.978-.03 10.996-.022 21.994c.003 4.215-.001 8.431-.023 12.647-.219 44.754 8.948 86.825 28.477 127.258l1.273 2.67c8.573 17.916 18.393 35.01 29.727 51.33l1.327 1.923c6.89 9.972 14.057 19.65 21.673 29.077l2.266 2.82A755 755 0 0 0 429 889l1.314 1.576c5.676 6.78 11.506 13.398 17.557 19.846l1.954 2.082c6.718 7.124 13.604 14.077 20.539 20.99q3.15 3.145 6.29 6.297l4.092 4.088 1.853 1.86c3.76 3.738 7.64 7.288 11.654 10.752 2.224 1.92 4.39 3.901 6.56 5.884 4.32 3.899 8.768 7.6 13.292 11.258a391 391 0 0 1 7.432 6.253c6.808 5.845 13.859 11.316 21.014 16.727a526 526 0 0 1 8.867 6.867c9.196 7.27 18.59 14.077 28.312 20.625a281 281 0 0 1 10.02 7.082c12.143 8.908 24.89 16.843 37.89 24.433q2.424 1.418 4.822 2.881l2.39 1.417 2.127 1.286c2.5.985 3.537.733 6.021-.204a170 170 0 0 0 7.063-3.812l2.104-1.196a414 414 0 0 0 38.043-24.697c2.597-1.879 5.224-3.714 7.849-5.553 14.97-10.492 29.655-21.335 43.941-32.742l2.625-2.07c5.255-4.16 10.388-8.45 15.489-12.795a478 478 0 0 1 10.386-8.572c5.382-4.377 10.442-9.056 15.508-13.79a206 206 0 0 1 7.054-6.273c4.07-3.51 7.804-7.336 11.576-11.16 2.634-2.657 5.284-5.214 8.174-7.59 3.087-2.554 5.584-5.431 8.172-8.48 2.4-2.701 4.944-5.236 7.516-7.77A210 210 0 0 0 841 901q1.317-1.523 2.637-3.043c55.583-64.182 99.682-141.397 99.483-228.472q0-2.11.003-4.22.002-5.732-.007-11.465-.005-6.207-.002-12.413 0-10.731-.008-21.463-.011-15.516-.012-31.032-.004-25.18-.019-50.357-.014-24.448-.02-48.895v-3.048l-.005-15.14Q943.034 408.724 943 346c-4.749-1.607-9.485-3.2-14.323-4.521l-2.897-.796-3.092-.84-3.345-.915q-5.493-1.502-10.988-2.998l-7.816-2.136q-9.411-2.572-18.824-5.139-7.634-2.081-15.267-4.167a5263115.874 5263115.874 0 0 1-6.595-1.801 67664 67664 0 0 0-111.571-30.371 18449 18449 0 0 1-61.337-16.737q-11.11-3.05-22.217-6.112-4.38-1.207-8.761-2.41-2.018-.556-4.035-1.114-2.73-.754-5.464-1.504l-3.075-.848c-3.339-.825-5.396-.386-8.67.502"/><path fill="#901A00" d="M756 500c6.865 35.563 11.676 71.299 14.773 107.386.221 2.548.454 5.095.689 7.642 2.895 32.07 2.805 64.176 2.788 96.347v3.33c-.014 35.235-.793 70.266-3.312 105.42l-.156 2.197c-1.703 23.95-4.056 47.783-6.97 71.616l-.264 2.18a2583 2583 0 0 1-1.778 14.284c-.15 1.194-.298 2.388-.451 3.617l-.437 3.336-.371 2.882c-2.07 11.196-9.91 16.405-18.402 23.22-3.557 2.877-6.982 5.902-10.422 8.918a406 406 0 0 1-19.644 16.054c-2.313 1.778-4.617 3.568-6.922 5.356C693.687 982.617 682.047 991.026 670 999l-2.283 1.512q-6.363 4.202-12.808 8.278-1.87 1.185-3.728 2.393a350 350 0 0 1-4.931 3.13l-2.734 1.738c-2.516.949-2.516.949-4.84.406a328 328 0 0 1-10.739-6.082l-2.288-1.355c-36.917-22.03-71.55-50.285-102.992-79.506a236 236 0 0 0-3.637-3.249c-7.963-7.015-15.425-14.519-22.916-22.03a3809 3809 0 0 0-6.891-6.885q-2.223-2.223-4.443-4.448l-2.05-2.043c-4.438-4.46-8.62-9.088-12.72-13.859a1855 1855 0 0 0-3.14-3.57c-7.245-8.263-14.219-16.675-20.86-25.43l-1.66-2.188C431.596 828.945 420.287 811.463 410 793l-1.391-2.483c-17.672-31.804-30.242-68.203-32.423-104.757a204 204 0 0 0-.517-6.141c-1.938-20.606-1.938-20.606 1.443-26.585 3.352-3.455 7.692-5.063 12.094-6.825 4.992-2.16 9.629-4.983 14.347-7.678 3.125-1.769 6.28-3.483 9.435-5.195l1.975-1.072c33.852-18.34 68.007-35.972 103.183-51.648 4.365-1.945 8.716-3.918 13.061-5.909C561.879 560.702 593.252 548.342 625 537l2.48-.887c36.027-12.87 72.597-23.92 109.77-32.988l2.076-.509c11.54-2.806 11.54-2.806 16.674-2.616M453 358l2.268.44c2.311.489 4.6 1.037 6.892 1.607l2.578.627c2.778.682 5.551 1.377 8.325 2.076l2.916.731C531.812 377.555 585.555 398.221 637 424l1.807.902c22.32 11.135 43.998 23.198 64.818 36.973l2.262 1.497c4.984 3.37 4.984 3.37 6.113 5.628l-3.572.44c-26.478 3.277-52.797 7.046-79.055 11.777-3.802.684-7.608 1.34-11.416 1.986-21.181 3.664-42.074 8.739-62.957 13.797l-2.534.613c-57.83 14.016-115.325 31.787-170.763 53.461C379 552 379 552 376 552V376c10.148-3.383 10.148-3.383 15.187-4.825l3.42-.98q7.648-2.169 15.303-4.312a1241 1241 0 0 0 8.05-2.287c3.892-1.12 7.792-2.21 11.692-3.3l3.603-1.047c6.991-1.92 12.618-2.672 19.745-1.249"/><path fill="#911E04" d="M654.058 266.406c2.758.844 5.55 1.552 8.341 2.275q3.06.84 6.117 1.69l3.455.951q4.66 1.284 9.32 2.574 5.07 1.4 10.143 2.795l2.113.582 10.899 3c16.007 4.407 32.024 8.774 48.043 13.14l12.047 3.283 14.905 4.063q17.553 4.783 35.104 9.574l17.079 4.66 14.107 3.85a19420 19420 0 0 0 79.682 21.602l6.677 1.801 3.047.814 2.73.739 2.365.635C942 345 942 345 943 346c.1 1.779.127 3.562.129 5.343l.01 3.535-.005 3.933.007 4.14q.008 5.716.004 11.433.002 6.156.01 12.312.012 12.079.012 24.158 0 9.83.006 19.66.014 27.888.012 55.776v6.086q.002 24.354.023 48.708.023 25.024.02 50.048-.001 14.04.014 28.082.014 11.973.005 23.947a4130 4130 0 0 0 .005 12.196c.041 20.423-.319 40.667-3.94 60.83l-.507 2.837C931.99 755.354 917.895 790.288 899 822l-1.503 2.525C887.349 841.453 876.21 857.503 864 873l-2.012 2.566a515 515 0 0 1-24.726 28.954 265 265 0 0 0-5.7 6.48c-3.339 3.854-6.949 7.419-10.579 10.995-2.518 2.494-4.919 5.018-7.17 7.755-2.56 3.082-5.427 5.58-8.477 8.168-2.898 2.583-5.611 5.32-8.336 8.082-3.884 3.928-7.811 7.717-12.02 11.3-2.307 1.98-4.546 4.026-6.792 6.075-4.316 3.894-8.759 7.592-13.278 11.246a441 441 0 0 0-7.649 6.417c-6.27 5.362-12.696 10.475-19.275 15.453-2.3 1.747-4.588 3.509-6.877 5.27-10.86 8.347-21.84 16.454-33.109 24.239l-2.042 1.417q-6.006 4.166-12.048 8.28a985 985 0 0 0-3.71 2.543c-10.71 7.373-21.836 13.972-33.078 20.498-1.74 1.035-3.438 2.14-5.122 3.262-3.665-.346-6.386-1.558-9.555-3.371l-2.589-1.475-2.731-1.591-2.839-1.64a329 329 0 0 1-21.473-13.671 772 772 0 0 0-5.657-3.861c-9.398-6.389-18.637-12.99-27.818-19.686q-2.361-1.721-4.727-3.437c-10.571-7.664-20.865-15.57-30.93-23.887a474 474 0 0 0-6.868-5.506c-5.465-4.36-10.788-8.884-16.105-13.422q-2.537-2.155-5.087-4.297c-6.151-5.193-12.165-10.51-18.035-16.02l-2.084-1.955c-7.126-6.72-14.08-13.608-20.996-20.545q-3.145-3.15-6.297-6.29l-4.088-4.092-1.86-1.853c-3.741-3.762-7.293-7.646-10.759-11.664-1.871-2.164-3.811-4.26-5.752-6.362-4.545-5.037-8.711-10.317-12.863-15.676a374 374 0 0 0-5.867-7.367c-7.18-8.798-13.743-17.871-20.02-27.332l-1.354-2.022c-23.565-35.245-41.588-73.097-51.833-114.29l-.722-2.832c-5.088-21.233-5.523-42.385-5.44-64.084.014-4.291.01-8.583.007-12.874q-.001-11.115.025-22.228c.024-10.712.032-21.424.036-32.136q.01-26.078.055-52.157a57412 57412 0 0 0 .075-69.476c.031-43.3.084-86.6.151-129.901l1.86-.507 64.235-17.519c51.093-13.934 51.093-13.934 102.185-27.871l12.472-3.403 2.023-.552 31.343-8.55 10.2-2.785a6785 6785 0 0 1 19.306-5.246c14.56-3.932 14.56-3.932 29.04-8.138a1318 1318 0 0 1 10.222-3.015 319 319 0 0 0 6.526-2.045c9.815-2.968 17.09-1.908 26.646 1.037m-26.396 11.388-3.462.944c-3.15.86-6.296 1.733-9.442 2.61-3.359.932-6.722 1.851-10.084 2.771a7048 7048 0 0 0-17.285 4.763c-8.288 2.294-16.579 4.574-24.871 6.85l-11.383 3.126-2.275.625a23130 23130 0 0 0-15.962 4.391 14672 14672 0 0 1-52.804 14.454l-3.078.836q-8.723 2.367-17.447 4.73-11.32 3.071-22.64 6.145l-2.298.624c-17.248 4.684-34.49 9.387-51.732 14.09l-11.509 3.14L349 354a140032 140032 0 0 0-.167 142.914q-.021 23.79-.064 47.58-.043 24.458-.051 48.916-.005 15.06-.042 30.12-.023 10.365-.017 20.728c.002 3.97 0 7.941-.017 11.912-.092 23.528.821 46.98 6.046 70.018l.772 3.479c4.605 19.966 11.89 38.798 20.54 57.333l1.292 2.772C389.856 816.412 406.12 840.682 424 864l1.39 1.82c15.852 20.692 33.743 39.494 52.18 57.88q3.489 3.484 6.97 6.976l4.515 4.512 2.061 2.067c4.468 4.446 9.096 8.648 13.884 12.745l1.807 1.556q2.405 2.07 4.818 4.132c3.641 3.112 7.28 6.226 10.898 9.367a523 523 0 0 0 22.555 18.453c2.065 1.603 4.119 3.218 6.172 4.836 9.66 7.592 19.486 14.898 29.487 22.034 2.298 1.647 4.584 3.308 6.868 4.974 12.7 9.257 25.564 18.021 39.02 26.148l2.587 1.567 2.452 1.464 2.17 1.3c2.4 1.296 4.535 2.42 7.166 3.169 2.31-.646 2.31-.646 4.492-2.086l2.6-1.547 2.783-1.742 2.923-1.781c11.047-6.825 21.652-14.283 32.202-21.844l2.566-1.832c9.238-6.599 18.394-13.3 27.434-20.168l1.9-1.436a907 907 0 0 0 42.485-34.187q2.496-2.126 5.006-4.236c7.543-6.38 14.827-12.99 22.015-19.766a551 551 0 0 1 8.251-7.608c8.876-8.039 17.596-16.347 25.347-25.49 2.277-2.598 4.639-5.105 7.01-7.617 6.296-6.674 12.263-13.484 17.986-20.66q1.487-1.803 2.98-3.602C870.894 846.925 889.152 817.98 904 787l1.073-2.207c17.168-35.525 26.139-74.363 26.047-113.802q0-2.063.003-4.127.002-5.62-.007-11.24-.005-6.08-.002-12.16 0-10.516-.008-21.033-.011-15.204-.012-30.41-.004-24.672-.019-49.345-.014-23.958-.02-47.917v-2.986l-.005-14.834Q931.034 415.47 931 354l-2.184-.589-31.575-8.514a17727 17727 0 0 1-60.053-16.3l-2.573-.702a22559 22559 0 0 1-18.666-5.109l-3.968-1.086q-10.254-2.807-20.508-5.611a85267 85267 0 0 1-77.2-21.149l-20.027-5.494q-9.255-2.538-18.507-5.084-5.629-1.547-11.259-3.09-2.574-.707-5.147-1.416-3.48-.96-6.962-1.911l-2.018-.56A283 283 0 0 0 645 276l-2.752-.796c-5.127-.322-9.677 1.207-14.586 2.59"/><path fill="#901B01" d="M794 534c8.063 6.661 15.431 14.003 22.23 21.95 2.008 2.326 4.075 4.592 6.145 6.862a320 320 0 0 1 12.285 14.51 993 993 0 0 0 2.875 3.583C847.098 592.803 855.75 605.161 864 618l1.193 1.853c2.348 3.67 4.59 7.396 6.807 11.147l1.27 2.117c6.607 11.056 12.578 22.35 18.168 33.946l.887 1.837A782 782 0 0 1 898 681c.512 1.052 1.024 2.105 1.55 3.19 3.129 6.77 4.054 11.446 2.575 18.747l-.474 2.712A322 322 0 0 1 900 714l-.526 2.632C887.928 773.438 854.02 830.432 814 872h-1c-.307-10.355.63-20.625 1.438-30.937q.309-3.967.61-7.935.187-2.446.381-4.893c1.207-15.769 1.732-31.522 1.739-47.333l.01-5.312q.009-5.532.007-11.065 0-5.547.02-11.095c.09-24.225-.506-48.264-2.205-72.43l-.365-5.577q-.425-6.371-.947-12.736l-.183-2.246c-3.363-40.66-9.397-81.64-19.065-121.288C794 537 794 537 794 534M656.266 307.582l2.896.774q3.012.81 6.02 1.627c3.069.83 6.142 1.64 9.216 2.449q2.935.792 5.868 1.588l2.778.723c6.061 1.679 9.143 3.319 12.52 8.793l1.502 2.882 1.704 3.26 1.793 3.51.933 1.82c14.884 29.073 26.459 59.55 36.254 90.68l.645 2.034c2.127 6.745 4.071 13.209 4.605 20.278l-1.438-1.082c-7.645-5.743-15.34-11.417-23.048-17.073a4147 4147 0 0 1-4.871-3.58c-9.92-7.294-19.968-14.284-30.389-20.845a1082 1082 0 0 1-4.606-2.918c-41.358-26.327-85.589-48.12-131.709-64.722l-1.997-.727q-2.681-.972-5.367-1.93C537 334 537 334 536 332c12.984-3.724 25.989-7.373 39-11l3.847-1.074a5044 5044 0 0 1 23.18-6.416q5.336-1.46 10.664-2.946 5.092-1.421 10.197-2.805c1.868-.51 3.733-1.036 5.597-1.561 10.371-2.787 17.557-1.37 27.78 1.384M705 322c22.578 4.339 39.44 11.157 58 25l2.13 1.563c3.7 2.723 7.304 5.541 10.87 8.437l2.867 2.29a330 330 0 0 1 15.551 13.374 341 341 0 0 0 6.293 5.531c4.765 4.163 9.256 8.58 13.726 13.055l2.55 2.551c4.965 5.015 9.662 10.052 13.997 15.625 1.89 2.413 3.867 4.73 5.88 7.04 12.198 14.062 22.326 29.508 31.875 45.454 1.025 1.69 2.1 3.35 3.19 4.998L873 469l-1 3-2.855-.55c-31.311-5.656-63.425-6.021-95.145-6.45l-1.003-2.86C755.59 412.63 734.312 365.68 705 322M881 485c5.13 10.031 9.373 20.273 13.188 30.875l1.222 3.358c1.261 3.57 2.434 7.163 3.59 10.767l.654 1.988c4.449 13.82 5.013 26.748 4.834 41.18q-.014 3.39-.021 6.78c-.019 5.88-.068 11.76-.124 17.64-.051 6.027-.074 12.055-.099 18.082A7915 7915 0 0 1 904 651c-1.924-2.519-3.52-4.838-4.805-7.738l-.997-2.199-1.073-2.375c-23.286-50.206-58.002-95.044-95.622-135.29a1307 1307 0 0 1-4.253-4.586l-2.484-2.667C793 494 793 494 793 492c29.39-4.208 58.243-7.502 88-7"/><path fill="#901C02" d="M760 337c9.115 1.595 17.987 4.075 26.902 6.516l4.994 1.358q6.65 1.81 13.3 3.627 6.87 1.875 13.74 3.746 12.255 3.34 24.51 6.689 8.16 2.229 16.32 4.455 9.207 2.51 18.413 5.03l6.497 1.776q4.41 1.206 8.82 2.416l2.57.701c5.704 1.571 5.704 1.571 7.934 2.686v120c-2.533-1.267-2.671-2.155-3.742-4.734l-1.023-2.398-1.11-2.618c-7.524-17.182-17.11-33.091-28.125-48.25l-1.207-1.666c-7.773-10.677-16.125-20.767-25.113-30.432-2.399-2.597-4.73-5.24-7.055-7.902-5.482-6.096-11.504-11.559-17.625-17l-1.692-1.509c-17.269-15.313-36.152-28.618-55.91-40.53L760 338z"/><path fill="#FDF8F6" d="M875 1094c3.35 3.35 4.838 6.692 6.668 10.96l1.068 2.445c1.157 2.654 2.304 5.312 3.452 7.97l2.395 5.506a6340 6340 0 0 1 6.184 14.267q2.408 5.568 4.822 11.132Q905.81 1160.632 912 1175c-2.408 2.408-4.422 3.008-7.625 4.125l-3.04 1.07L899 1181c-4.531-9.392-8.764-18.915-12.93-28.474q-.877-2.016-1.761-4.03-1.263-2.885-2.516-5.777l-1.484-3.408c-1.35-3.416-2.36-6.767-3.309-10.311l-8 3c1.708 5.556 4.017 10.793 6.352 16.105l2.578 5.916q2.027 4.644 4.062 9.283a3862 3862 0 0 1 3.922 8.989l1.24 2.813 1.134 2.61 1.004 2.293C890 1182 890 1182 890 1185l-11 5c-3.872-5.163-6.117-10.67-8.687-16.562l-1.55-3.483-1.462-3.334-1.339-3.049C865 1161 865 1161 865 1158l-1.398 1.141c-5.223 4.107-10.546 7.036-16.602 9.734l-2.578 1.219c-5.39 2.43-9.504 3.735-15.422 2.906-4.735-2.958-6.528-8.997-8.687-13.937l-1.299-2.917c-1.35-3.044-2.683-6.094-4.014-9.146l-1.34-3.053q-1.901-4.345-3.785-8.697l-1.182-2.722-1.076-2.512-.95-2.21C806 1126 806 1126 806 1124q5.68-2.574 11.37-5.127 1.936-.87 3.868-1.746c1.852-.84 3.707-1.671 5.563-2.502l3.38-1.523C833 1112 833 1112 836 1112l3 7-16 7c4.522 12.21 9.756 24.087 15 36 5.325-1.692 10.464-3.49 15.5-5.937l3.094-1.465c2.504-1.335 2.504-1.335 3.147-3.448.31-2.573-.132-3.8-1.188-6.152-.34-.774-.68-1.549-1.032-2.346l-1.142-2.504-1.148-2.591c-1.212-2.732-2.44-5.457-3.668-8.182a3501 3501 0 0 1-3.658-8.203 1000 1000 0 0 0-2.287-5.102l-1.042-2.326-.924-2.05C843 1110 843 1110 843 1108q2.685-1.256 5.375-2.5l3.023-1.406C854 1103 854 1103 856 1103c1.34 3.123 2.67 6.248 4 9.375l1.156 2.695 1.094 2.578 1.016 2.38C864 1122 864 1122 864 1124l8-3-.988-2.527c-2.503-6.447-4.892-12.89-7.012-19.473z"/><path fill="#FCF6F3" d="M245 967c3 0 3 0 4.578 1.504l1.672 2.058c2.32 2.774 4.661 5.413 7.25 7.938a117 117 0 0 1 6.875 7.375c3.292 3.824 6.827 7.345 10.418 10.887 2.695 2.732 5.2 5.596 7.7 8.508 1.746 2.005 3.589 3.888 5.507 5.73-3.254 7.903-12.887 14.516-20 19-3.5 1.375-3.5 1.375-6 2l1.242 1.61 1.633 2.14 1.617 2.11c1.4 1.987 2.487 3.938 3.508 6.14l-4 4c-7.981-3.34-14.033-11.842-19.527-18.309-1.428-1.639-2.918-3.173-4.473-4.691-2.992 1.364-5.29 2.95-7.75 5.125l-1.86 1.633L232 1033c3.633 4.342 7.324 8.384 11.484 12.227 1.801 2.107 2.61 4.17 3.516 6.773a2334 2334 0 0 1-22 20c-3.215-1.408-5.322-3.103-7.75-5.625l-1.86-1.914L214 1063c4.82-5.963 10.225-10.967 16-16-.405-4.473-3.549-6.84-6.625-9.75a1296 1296 0 0 1-3.305-3.219l-1.612-1.574c-2.41-2.409-4.6-4.99-6.802-7.586-1.878-2.122-3.875-4.082-5.906-6.059-2.782-2.733-4.988-5.287-6.75-8.812 1.75-2.062 1.75-2.062 4-4 3.661.294 5.399 2.05 7.875 4.625l2.086 2.164c2.769 3.002 5.424 6.073 8.039 9.211q1.662-1.368 3.313-2.75c.614-.51 1.23-1.02 1.863-1.547 1.883-1.758 3.34-3.602 4.824-5.703l-1.723-1.687c-4.396-4.346-8.612-8.758-12.636-13.45-2.424-2.753-5.016-5.302-7.641-7.863 1.133-3.4 2.125-4.053 5-6 3.437 1.452 5.333 3.244 7.75 6.063 4.983 5.684 10.15 11.178 15.36 16.656 2.989 3.153 5.954 6.301 8.745 9.633l2.333 2.773 1.917 2.383c1.792 1.709 1.792 1.709 4.176 1.597 3.96-1.61 6.832-4.127 10.031-6.918l1.956-1.619 1.845-1.588 1.681-1.44c1.617-1.739 1.617-1.739 1.206-5.54-1.122-1.746-1.122-1.746-2.754-3.328l-1.82-1.902-1.988-2.02-4.102-4.266-2.153-2.22c-3.582-3.715-7.099-7.492-10.62-11.264l-3.81-4.062L241 973c1.152-2.468 2.048-4.048 4-6"/><path fill="#FDF7F4" d="M508 1134a544 544 0 0 1 23.89 4.383l3.245.664q5.058 1.036 10.115 2.078l6.918 1.418q8.417 1.726 16.832 3.457-.221 2.37-.448 4.738l-.252 2.665c-.422 3.655-1.196 7.163-2.112 10.722l-.525 2.078c-1.324 5.021-3.054 9.325-5.663 13.797l1.828.148 2.422.227c.789.07 1.578.14 2.39.21 2.446.43 4.208 1.201 6.36 2.415l-2 7c-7.798-1.064-15.487-2.448-23.187-4.062l-2.539-.529c-6.02-1.282-6.02-1.282-8.274-2.409-.09.87-.09.87-.184 1.758-.476 4.443-1.026 8.841-1.816 13.242l3.625.313c6.521.834 12.947 2.31 19.375 3.687l-6 32c-13-2-13-2-14-3 .063-8.193 2.003-16.102 4-24l-3.926-.385c-4.828-.538-9.52-1.436-14.265-2.463l-2.518-.533q-3.928-.837-7.854-1.681-2.685-.573-5.369-1.143-6.536-1.391-13.068-2.795l1-8c5.709.668 11.345 1.538 17 2.563l2.348.42q2.826.506 5.652 1.017l2-14-5.95-1.059-15.437-2.75-3.475-.618A400 400 0 0 1 490 1174c.875-5.75.875-5.75 2-8 6.59.635 12.959 1.702 19.434 3.066l2.906.601q4.55.944 9.097 1.896 4.587.955 9.173 1.905 2.843.59 5.686 1.185l2.58.537 2.274.475c1.865.394 1.865.394 3.85.335 2.629-8.273 4.972-16.56 7-25l-1.888-.115c-8.11-.606-15.916-2.127-23.862-3.822l-3.863-.803c-5.87-1.234-11.635-2.567-17.387-4.26z"/><path fill="#FDF6F4" d="m774 1134 1 7c-5.042 1.833-10.087 2.921-15.336 3.945l-2.665.53q-4.185.83-8.374 1.65l-5.7 1.129q-6.96 1.379-13.925 2.746v6q5.438-1.122 10.875-2.25c1.085-.225 2.169-.45 3.286-.68 5.097-1.061 10.189-2.136 15.265-3.293l2.455-.56q2.25-.516 4.495-1.048c3.61-.83 6.917-1.363 10.624-1.169l1 7c-9.666 2.579-19.382 4.767-29.187 6.75l-3.293.675-3.125.622-2.786.557c-2.58.392-5.004.468-7.609.396l1 6 1.93-.396c15.316-3.128 30.654-6.016 46.07-8.604l1 8q-4.591 1.01-9.187 2l-2.62.578-2.548.547-2.333.508c-2.473.393-4.813.429-7.312.367l1 6c7.621-.5 14.877-1.945 22.31-3.628 3.965-.88 7.597-1.63 11.69-1.372l1 8a23468 23468 0 0 1-21.588 4.425q-3.653.747-7.304 1.498A2275 2275 0 0 1 712 1198l-1-8q6.325-1.287 12.653-2.563 2.151-.435 4.303-.874 3.094-.629 6.189-1.25l3.76-.762C741 1184 741 1184 744 1184l-1-7-2.633.656-3.492.844-3.445.844c-4.314.825-7.916 1.149-12.117-.219-5.698-5.236-6.176-15.913-7.5-23.25l-.538-2.898q-.645-3.487-1.275-6.977a9357 9357 0 0 1 30.05-6.437q6.941-1.48 13.888-2.938l3.729-.795 3.485-.728 3.063-.646c2.654-.435 5.102-.543 7.785-.456M316 1037c5.22 1.688 9.416 4.836 13.875 7.938l2.519 1.737c7.643 5.296 15.153 10.766 22.606 16.325-5.099 7.835-10.54 15.415-16 23-2.993-1.417-5.678-3.059-8.406-4.934l-2.504-1.716-2.59-1.787-2.59-1.776c-3.688-2.534-7.345-5.082-10.91-7.787l-.812 2.25c-1.13 2.616-2.397 4.552-4.188 6.75l1.738.823c2.292 1.192 4.339 2.528 6.457 4.005l2.406 1.667 2.524 1.755c7.803 5.39 7.803 5.39 15.75 10.563l2.117 1.332c2.773 1.181 4.024 1.57 7.008.855 2.302-2.356 4.022-5.058 5.813-7.812q1.578-2.338 3.16-4.672l1.55-2.327c2.005-2.972 4.105-5.862 6.227-8.752l1.922-2.628L365 1070q2.723 1.68 5.438 3.375l3.058 1.898C376 1077 376 1077 377 1079c-6.304 8.974-12.64 17.923-19.062 26.813l-1.66 2.296c-2.4 3.317-4.815 6.62-7.278 9.891-4.671-1.557-8.087-4.084-12-7l2-5-1.992-.637c-9.857-3.592-17.62-9.54-25.931-15.81a223 223 0 0 0-5.534-4.002l-2.918-2.051-2.46-1.719c-2.581-2.124-4.423-3.909-6.165-6.781-.122-6.137 2.482-9.784 6.063-14.437l1.431-1.928A459 459 0 0 1 305 1054c3.353.618 5.438 1.833 8.152 3.871l2.354 1.74 2.432 1.826a931 931 0 0 0 4.777 3.56l2.129 1.598c2.303 1.5 4.578 2.467 7.156 3.405a210 210 0 0 0 2.563-3.312l1.44-1.864L337 1063c-1.181-3.544-2.031-3.965-5.078-5.96-.832-.555-1.663-1.11-2.52-1.68l-2.652-1.735c-5.377-3.53-10.414-6.841-14.75-11.625z"/><path fill="#FDF7F5" d="m400 1098 18 7 2-7c4.72 1.543 9.417 3.078 14 5l-3 9 1.941.55c5.203 1.513 10.13 3.2 15.059 5.45-1.75 5.75-1.75 5.75-4 8l-7-3 .484 1.73c1.504 6.62.79 12.287-2.484 18.27-3.83 5.918-8.22 8.196-15 10-7.665 1.258-13.564-1.2-19.98-5.25-5.698-4.276-8.173-9.966-9.399-16.89-.325-5.33 1.344-9.602 4.379-13.86 2.193-2.208 4.542-4.1 7-6l2-2-7-3c1.875-5.75 1.875-5.75 3-8"/><path fill="#FDF8F5" d="m944 1056 5 5c-1.333 4-3.496 4.838-7 7l2.23.664c8.31 2.7 11.478 4.989 15.582 12.774 2.309 6.924 1.197 12.165-1.812 18.562-3.124 6.007-8.473 10.497-14.953 12.648-6.813 1.17-13.251 1.137-19.328-2.375-3.931-2.912-6.91-6.717-8.719-11.273-.195-3.016-.195-3.016-.125-6.25l.055-3.266.07-2.484-1.46 1.094-1.915 1.406-1.898 1.406C908 1092 908 1092 906 1092c-1.687-2.312-1.687-2.312-3-5 1.361-4.083 3.48-4.887 7.063-7.187l3.347-2.168L916 1076c-.659-3.075-1.539-5.077-3-8l11-8 5 5c3.89-1.388 6.966-3.215 10.313-5.625l2.675-1.914z"/><path fill="#FDF6F3" d="M1037 216c4.598 2.3 7.415 5.084 11 8.688l1.867 1.818c5.108 5.102 9.69 10.267 9.758 17.869-.236 6.126-2.531 10.16-6.625 14.625-3.9 3.376-7.818 5.145-13 5.125l-2.062.008C1036 264 1036 264 1033 263l-.687 3.5c-1.606 7.302-4.027 14.388-6.313 21.5-5.572-2.746-5.572-2.746-7-5 0-6.267 2.192-11.906 4.36-17.72.931-2.59 1.677-4.759 1.48-7.53-1.011-2.107-2.199-3.405-3.902-5l-1.66-1.578L1018 250c-4.325 1.659-7.094 4.871-10.25 8.125l-1.68 1.707A1078 1078 0 0 0 1002 264c-3.719-1.539-4.356-2.475-7-6zM592.125 60.625l2.565-.115c6.303-.084 10.49 1.367 15.31 5.49 3.551 4.59 4.614 10.147 4.324 15.863-.818 5.39-3.021 9.667-7.324 13.137h-2c4.084 7.287 8.142 14.498 12.969 21.328C619 118 619 118 619 120c-3.517.661-6.508.873-10 0-3.615-3.846-5.573-8.807-7.812-13.535-1.543-2.907-2.811-5.18-5.188-7.465-4.343-.923-7.51-.528-12 0l1 23-8 1c-1.173-2.346-1.27-4.06-1.48-6.674l-.243-2.945-.25-3.197-.264-3.29a3992 3992 0 0 1-.547-6.913c-.275-3.505-.559-7.01-.843-10.514l-.533-6.72-.256-3.155c-.455-5.886-.666-11.689-.584-17.592 6.693-.892 13.38-1.221 20.125-1.375"/><path fill="#FCF5F3" d="M1215 550c5.429 25.722 5.429 25.722 0 35-3.753 4.249-8.25 6.678-13.867 7.336-7.555.098-12.237-.549-17.817-5.973L1182 585l-2.309 1.54L1161 599c-2.495-3.742-2.586-5.573-2-10 2.379-2.258 2.379-2.258 5.563-4.125l3.308-2.008L1171 581a178 178 0 0 0 4.125-3c2.875-2 2.875-2 4.875-2l-1-13-3.254.438-4.309.562c-.704.095-1.408.19-2.134.29-4.477.577-8.79.805-13.303.71l-1-8q7.037-1.016 14.075-2.026l4.764-.687c8.318-1.2 16.638-2.378 24.974-3.443l3.8-.487c4.174-.44 8.196-.507 12.387-.357"/><path fill="#FDF6F3" d="M129 743c1.544 3.582 1.937 6.188 1 10-4.922 6.213-11.957 11.478-19 15l3 13 4.016-1.094 5.234-1.406 2.645-.723 2.558-.683 2.349-.635C133 776 133 776 137 776l1 8c-11.598 3.293-23.23 6.381-34.946 9.222-2.478.602-4.953 1.213-7.429 1.823l-4.773 1.162-2.22.55C85.286 797.56 82.47 798 79 798c-7.557-27.094-7.557-27.094-3.625-35.937 3.05-4.368 7.661-6.494 12.625-8.063 5.5-.848 9.554-.775 14.5 1.875L105 758l3 2 2.887-2.703 3.8-3.547 1.897-1.777C126.212 743 126.212 743 129 743"/><path fill="#FDF6F4" d="M295 1088c4.671 1.557 8.087 4.084 12 7-.645 3.485-2.101 6.028-4 9l1.589 1.146 7.161 5.167 2.5 1.802 4.644 3.351a132 132 0 0 1 4.248 3.23c1.761 1.501 1.761 1.501 3.92 1.304 2.715-1.401 3.57-3.333 4.938-6 3.039 1.41 5.594 3.089 8.25 5.125l2.14 1.633L344 1122c-1.411 2.976-3.039 5.654-4.898 8.371l-1.704 2.49-1.773 2.576-1.75 2.565c-2.826 4.12-5.673 8.157-8.875 11.998-3.148-.618-5.283-1.665-7.914-3.484l-2.281-1.567-2.43-1.699-2.518-1.744a1541 1541 0 0 1-17.795-12.569l-2.273-1.622c-9.342-6.75-9.342-6.75-10.86-12.061-.407-5.21 2.136-8.334 5.196-12.316l1.477-2.026q1.456-1.992 2.938-3.963c2.207-2.946 4.33-5.948 6.46-8.949"/><path fill="#FCF6F3" d="M1044 1010c3.884.245 5.678 2.395 8.25 5.125a154 154 0 0 0 10.895 10.234c1.832 1.621 3.532 3.318 5.23 5.079 2.252 2.795 2.252 2.795 4.625 2.562 1.4-1.346 1.4-1.346 2.875-3.187 3.423-4.034 6.966-7.935 10.563-11.813l1.65-1.782q1.955-2.11 3.912-4.218c3.367 1.393 4.986 2.979 7 6l-2.379 2.344c-5.199 5.146-10.301 10.29-15.047 15.863-2.159 2.459-4.49 4.72-6.824 7.012-1.832 1.865-3.544 3.8-5.25 5.781a123 123 0 0 1-7 7.5c-3.714 3.656-7.103 7.55-10.5 11.5a3474 3474 0 0 1-3.937 4.5l-1.778 2.031L1045 1076c-3.719-1.539-4.356-2.475-7-6l8-9c-3.79-7.578-10.837-12.964-17.203-18.426-2.383-2.087-4.592-4.3-6.797-6.574 1.364-2.992 2.95-5.29 5.125-7.75l1.633-1.86L1030 1025c4.987 3.386 9.344 7.202 13.563 11.5 6.85 7.526 6.85 7.526 15.437 12.5l2-6a6795.858 6795.858 0 0 1-25-23q1.434-1.939 2.875-3.875l1.617-2.18C1042 1012 1042 1012 1044 1010"/><path fill="#FDF5F3" d="M1183 430c1.636 2.902 2.605 6.106 3.688 9.25l.946 2.745c2.732 8.365 4.467 16.103.866 24.505-5.605 5.605-11.32 8.547-19.25 8.875-5.531-.098-9.297-1.449-13.25-5.375-4.116-6.057-6.119-12.993-8-20l-1.605.643q-3.601 1.434-7.207 2.857l-2.526 1.012-2.432.957-2.237.888C1130 457 1130 457 1127 457l-2-8c12.868-4.9 25.773-9.706 38.728-14.372a958 958 0 0 0 4.164-1.515c1.956-.716 3.916-1.42 5.878-2.12l3.425-1.24C1180 429 1180 429 1183 430"/><path fill="#FEFAF8" d="M615 1183h14v36h8v-36h13v37h30v7h-79v-8h14z"/><path fill="#FDF7F5" d="M771.215 1194.813c4.447 2.958 8.097 7.124 9.785 12.187.422 5.486-.395 9.15-3 14-5.653 6.57-11.897 10.296-20.54 11.293-7.215.376-12.48-1.24-18.46-5.293-3.374-3.29-5.007-6.394-6-11 .103-6.395 1.633-11.219 6-16 9.37-6.89 21.03-10.127 32.215-5.187"/><path fill="#FDF5F3" d="M1122 315c2.758 2.382 4.23 4.409 5 8a59 59 0 0 1-3.348 7.977l-1.116 2.32a781 781 0 0 1-3.599 7.328 2618 2618 0 0 0-2.357 4.855q-2.262 4.664-4.541 9.318c-2.45 5.02-4.777 10.094-7.039 15.202 8.451-4.398 16.5-9.346 24.561-14.417 4.396-2.754 8.738-5.384 13.439-7.583l4 7c-6.994 5.227-14.375 9.691-21.873 14.146-9.79 5.822-19.46 11.833-29.127 17.854-2.252-2.688-3.882-4.646-5-8 .937-2.502.937-2.502 2.43-5.496l1.65-3.356.888-1.775c1.521-3.037 3.01-6.088 4.505-9.139l.91-1.85c2.763-5.638 5.375-11.337 7.93-17.072l1.145-2.57q1.275-2.869 2.542-5.742a589 589 0 0 0-26.406 15.703l-1.836 1.154a88 88 0 0 0-3.453 2.364c-1.388.996-2.843 1.897-4.305 2.779-3-1-3-1-4.687-4.062L1071 347c6.619-4.776 13.371-9.108 20.438-13.187 10.341-6.035 20.486-12.346 30.562-18.813M408 107c8.732 17.97 17.454 35.942 26 54-2.622 2.154-4.581 3.702-8 4-2.878-1.304-2.878-1.304-6.207-3.305l-1.813-1.075a737 737 0 0 1-5.793-3.495l-3.955-2.363a1979 1979 0 0 1-9.548-5.745c-2.306-1.393-4.62-2.774-6.934-4.154A1605 1605 0 0 1 382 139c.93 4.14 2.715 7.726 4.598 11.504l2.177 4.432q1.719 3.48 3.444 6.958 1.664 3.365 3.316 6.735l1.051 2.102c1.442 2.945 2.414 4.945 2.414 8.269l-7 3c-6.097-11.282-11.869-22.7-17.437-34.25l-.923-1.91c-3.006-6.23-5.945-12.468-8.64-18.84 5.293-3.077 5.293-3.077 8.451-2.731 2.538.728 4.4 1.614 6.639 2.997l2.347 1.43 2.5 1.554q2.662 1.627 5.325 3.25l2.814 1.723c5.03 3.057 10.103 6.04 15.174 9.027L418 150l-2.744-5.793-2.404-5.08c-2.14-4.522-4.287-9.04-6.454-13.549l-1.25-2.612q-1.198-2.5-2.404-4.997l-1.092-2.285-.969-2.014C400 112 400 112 400 110c5.75-3 5.75-3 8-3"/><path fill="#FDF6F3" d="M181 281c3.25.613 5.284 1.718 7.914 3.703l2.28 1.703 2.431 1.844 5.125 3.832 2.637 1.975c4.045 3.008 8.141 5.943 12.238 8.88 5.89 4.234 11.721 8.517 17.375 13.063-2.875 4.875-2.875 4.875-4 6-1.668.1-3.34.13-5.012.133l-3.206.006-3.47-.014-3.528-.008a591 591 0 0 1-23.034-.555l-2.718-.118c-4.414-.221-8.682-.598-13.032-1.444v2l2.035.656c3.909 1.772 7.023 4.224 10.403 6.844 4.19 3.212 8.378 6.407 12.722 9.41l1.961 1.36q1.848 1.271 3.713 2.52c1.442.996 2.812 2.095 4.166 3.21 0 3 0 3-2.5 5.688L203 354l-2.902-2.203c-7.83-5.92-15.732-11.707-23.771-17.338-7.19-5.043-14.266-10.238-21.327-15.459 1.074-2.915 1.778-4.778 4-7 2.724-.135 2.724-.135 6.203.023l3.883.157 2.061.097c3.52.164 7.04.296 10.56.43l2.132.083c9.386.353 18.77.299 28.161.21l-2.43-1.73q-4.682-3.339-9.357-6.686-2.296-1.643-4.594-3.285a4573 4573 0 0 1-7.306-5.236l-2.357-1.683-2.218-1.595-1.967-1.41c-1.737-1.349-3.253-2.786-4.771-4.375z"/><path fill="#FDF6F4" d="M66 542c14.144 1.569 28.268 3.253 42.375 5.125l3.922.517 3.664.49 3.244.435c2.32.36 4.533.812 6.795 1.433-.046 2.994-.1 5.193-1 8-2.478 1.942-4.276 3.037-7.078 4.29-.723.35-1.445.703-2.19 1.065a413 413 0 0 1-6.982 3.27q-2.287 1.093-4.57 2.195A953 953 0 0 1 91 575l-4.01 1.858A3064 3064 0 0 1 78 581c8.95 2.048 18.02 3.062 27.125 4.125l4.633.55q5.62.668 11.242 1.325l-1 9c-10.873-.686-21.652-2.167-32.449-3.584q-4.804-.628-9.61-1.244-3.052-.397-6.105-.797l-2.904-.373-2.673-.354c-.776-.1-1.553-.202-2.353-.307C62 589 62 589 60 588c.09-2.926.182-5.231 1-8 2.508-2.004 2.508-2.004 6.125-3.562q2.145-.969 4.29-1.942l2.563-1.13c5.852-2.645 11.603-5.506 17.375-8.32 3.472-1.691 6.95-3.369 10.428-5.046l1.901-.917L108 557q-6.03-.941-12.062-1.875l-3.588-.556c-7.585-1.167-15.17-2.248-22.787-3.174C67 551 67 551 65 550c-.125-5.75-.125-5.75 1-8"/><path fill="#FDF6F3" d="M1119 845c3.487.722 6.486 2.051 9.707 3.555l3.437 1.599 3.668 1.721 3.751 1.75c11.516 5.382 22.987 10.856 34.437 16.375-.547 3.375-1.055 5.082-3 8-2.265.66-2.265.66-5.11 1.063l-3.196.471-3.444.466-3.512.505c-3.578.51-7.158 1.003-10.738 1.495q-3.22.459-6.441.922l-5.871.828-2.744.387c-4.009.545-7.886 1.03-11.944.863v2l1.991.261c4.013.986 7.462 2.726 11.154 4.555l2.332 1.14a2420 2420 0 0 1 7.335 3.606l4.99 2.444q6.104 2.989 12.198 5.994c-1.875 5.75-1.875 5.75-3 8-5.016-1.524-9.57-3.615-14.258-5.922l-2.376-1.159a3967 3967 0 0 1-7.491-3.669l-4.96-2.422A2414 2414 0 0 1 1100 887c1.625-5.75 1.625-5.75 5-8 1.94-.468 1.94-.468 4.16-.778l2.53-.363 2.728-.367 2.822-.395q2.958-.41 5.918-.811c3.002-.407 6.001-.828 9-1.25q2.88-.399 5.76-.794l2.697-.379c5.18-.692 10.158-.983 15.385-.863v-2c-.85-.264-1.701-.529-2.578-.8-3.541-1.242-6.806-2.74-10.176-4.388l-1.889-.918q-2.961-1.442-5.92-2.894-2.963-1.448-5.93-2.894-2.687-1.31-5.372-2.626A118 118 0 0 0 1116 853c1.875-5.75 1.875-5.75 3-8"/><path fill="#FCF4F1" d="M118 631v9q-2.903 1.259-5.812 2.5l-3.27 1.406C106 645 106 645 103 645v24c5.22 1.275 5.22 1.275 10.441 2.543 5.448 1.346 5.448 1.346 6.559 2.457.142 3 .042 5.998 0 9-7.81-2.066-15.528-4.36-23.23-6.793l-3.384-1.063q-5.288-1.664-10.573-3.332l-7.221-2.271Q66.795 666.774 58 664v-11l4.555-1.697 34.508-12.854 3.255-1.212 3.092-1.152 2.9-1.08q3.69-1.382 7.374-2.783C117 631 117 631 118 631"/><path fill="#FCF5F2" d="M214 243c4.633.58 8.327 1.854 12.559 3.809l1.873.856a944 944 0 0 1 3.96 1.824c3.457 1.602 6.924 3.182 10.39 4.765l2.1.962c6.485 2.966 13.01 5.83 19.555 8.659l2.957 1.28Q270.696 266.58 274 268l-5 7c-6.076-.98-11.367-3.586-17-6l-14 15c1.682 5.046 3.384 8.487 6.172 12.852.828 2.148.828 2.148.062 4.312-1.269 1.887-2.486 3.38-4.234 4.836h-2l-1.478-2.804q-2.792-5.296-5.59-10.588l-2.481-4.704c-5.955-11.297-5.955-11.297-12.13-22.474l-1.57-2.779a420 420 0 0 0-2.84-4.912c-2.977-5.228-2.977-5.228-2.645-7.79 1.043-2.77 2.817-4.723 4.734-6.949"/><path fill="#FDF6F4" d="m142 486-3 9-17 1-.812 4.75c-1.114 6.16-2.603 12.197-4.188 18.25l2.2.805c2.802 1.196 5.105 2.598 7.612 4.32l2.395 1.633L131 527l-2 9c-7.033-3.77-13.64-7.974-20.25-12.437l-6.328-4.247-3.217-2.163C94.146 513.755 89.073 510.378 84 507l-5.25-3.5L75 501l2-9c6.153-2.069 12.14-2.6 18.594-3.07 1.658-.13 1.658-.13 3.35-.26q3.495-.27 6.99-.53c3.555-.264 7.11-.539 10.664-.816l6.808-.52 3.205-.245c5.146-.38 10.229-.653 15.389-.559"/><path fill="#FDF6F3" d="M1091 275c3.381 1.2 5.29 2.848 7 6-.358 4.611-2.602 7.971-5.062 11.75l-1.298 2.033q-1.468 2.294-2.943 4.583c-1.913 2.97-3.811 5.948-5.709 8.927-11.91 18.68-11.91 18.68-17.988 27.707-3.161-1.37-3.993-1.99-6-5 .408-4.335 3.281-7.32 5.82-10.684 1.351-2.229 1.351-2.229 1.207-4.644-1.498-3.897-3.95-6.784-6.59-9.985l-1.576-1.955A727 727 0 0 0 1054 299c-3.205.567-6.016 1.337-9 2.625-2.485.939-4.058 1.376-6.75 1.438-3.248-1.534-4.362-4.085-6.25-7.063l2.15-.753q10.022-3.507 20.042-7.018 5.152-1.806 10.304-3.609l9.94-3.481q2.823-.99 5.647-1.976l3.458-1.214 3.055-1.07c2.372-.816 2.372-.816 4.404-1.879"/><path fill="#FDF7F5" d="M1161 654c6.421 2.055 12.597 4.419 18.785 7.09l2.729 1.169q2.835 1.216 5.67 2.438 4.309 1.855 8.623 3.7l5.54 2.38 2.574 1.102A257 257 0 0 1 1220 679v10a2141 2141 0 0 1-37.192 10.077q-4.291 1.125-8.581 2.257l-5.477 1.436-2.582.681C1160.23 705 1160.23 705 1158 705v-9l16-4c.726-7.717 1.102-15.25 1-23l-14-6z"/><path fill="#911C02" d="M160.496 354.695c7.682 3.17 14.54 7.894 18.656 15.235 1.757 4.29 1.574 7.848.149 12.21-2.121 4.833-4.554 7.335-9.301 9.86-6.699 2.233-12.167 1.082-18.473-1.668C145.183 386.988 139.106 382.6 136 376c-1.159-4.267-1.722-8.067-.148-12.281 5.596-9.676 14.043-11.977 24.644-9.024"/><path fill="#901C02" d="M881 119c4.839 1.732 8.165 4.748 11 9 2.624 7.872.924 14.778-2.45 22.16-2.94 5.384-6.43 10.105-12.05 12.84-5.26 1.503-9.28 1.886-14.187-.687-3.755-2.371-6.323-5.333-8.313-9.313-1.41-10.444 1.158-18.43 7-27 5.732-5.742 10.936-7.952 19-7M1174 805c4.27 3.008 8.08 6.025 10 11 .75 5.903.454 10.998-3 16-5.298 5.019-10.078 6.497-17.254 6.305-9.364-1.04-16.531-5.311-22.746-12.305-2.78-4.43-2.618-8.927-2-14 1.31-4.147 3.588-6.658 6.938-9.437 8.694-4.301 19.873-1.925 28.062 2.437"/><path fill="#901B02" d="M134.875 811.125c4.539 2.723 7.414 5.743 9.125 10.875.805 5.833.162 10.288-3.25 15.145-6.59 6.987-15.382 9.858-24.75 10.23-5.613-.12-8.628-.823-13-4.375-3.888-4.885-4.782-9.059-4.492-15.29.86-4.732 2.837-7.628 6.492-10.71 9.088-5.484 19.281-9.842 29.875-5.875M1192.379 497.785c3.003 2.25 4.958 4.889 6.621 8.215.524 5.256.665 9.645-1.687 14.438-6.108 6.767-13.126 10.129-22.215 10.765-7.637.118-12.056-.499-17.91-5.703-3.728-4.26-3.527-8.344-3.47-13.773.506-4.902 3.043-7.45 6.344-10.852 9.6-6.128 21.973-9.133 32.317-3.09"/><path fill="#FDF5F2" d="M888.262 113.035c6.257 3.473 10.481 8.128 12.738 14.965 1.582 12.44-1.124 22.863-8.375 32.996-5.437 6.705-11.302 10.118-19.883 11.32-7.237.391-13.302-2.302-19.054-6.566-5.26-5.382-7.766-11.822-8-19.312.134-10.19 5.164-20.815 12.007-28.29 8.492-7.73 19.921-9.896 30.567-5.113m-27.09 14.414c-5.27 8.557-7.204 15.432-6.172 25.551 2.135 4.507 4.918 7.174 9 10 5.005 1.668 9.25 1.595 14.063-.562 8.353-4.66 12.266-12.479 14.937-21.438.889-5.98.539-10.928-3-16-3.919-3.94-7.526-6.106-13.125-6.437-6.821.122-11.687 3.506-15.703 8.886"/><path fill="#FCF5F2" d="M1196 490c5.774 3.736 8.907 8.434 11 15 1.098 7.879.615 15.338-4 22-7.087 8.213-17.38 11.951-28 13-8.18.104-15.638-1.325-22.008-6.691-5.348-5.539-7.774-11.434-8.117-19.11.363-8.21 3.32-13.696 9.125-19.386 11.133-8.72 29.254-11.787 42-4.813m-40 15c-2.934 4.657-2.5 9.68-2 15 1.803 4.608 5.12 7.09 9 10 8.137 2.712 17.224 1.25 25-2 4.914-2.73 8.463-5.925 11-11 .521-5.228.643-9.64-1.625-14.437-3.927-4.238-8.046-7.25-13.906-7.801-10.51-.263-20.358 1.945-27.469 10.238"/><path fill="#FDF6F3" d="M1179.938 798.813c5.554 4.043 9.926 8.565 12.062 15.187.892 8.007.438 15.135-4 22-2.5 2.875-2.5 2.875-5 5l-1.875 1.688c-7.326 4.524-16.312 4.29-24.508 2.625-9.99-2.782-17.734-7.638-23.617-16.313-3.216-6.454-3.128-14.53-1.383-21.445 2.901-6.547 8.692-11.635 15.196-14.492 11.18-3.48 23.42-.335 33.124 5.75M1142 806c-3.615 4.857-3.841 10.15-3 16 3.38 7.03 9.184 11.516 16.313 14.375 6.938 2.262 13.278 3.01 20.062-.062 4.402-2.508 7.012-5.475 8.625-10.313.507-4.83.554-8.799-1.5-13.25-6.398-7.037-13.179-11.051-22.68-12.102-7.157-.314-12.53.238-17.82 5.352"/><path fill="#FDF5F2" d="M175 353c6.84 4.978 10.346 10.038 13 18 .814 7.277-.155 13.705-4 20-5.177 5.874-10.111 9.397-18.008 10.371-12.255.261-22.133-3.898-30.992-12.371-5.745-6.264-8.673-12.858-8.437-21.469 1.215-7.034 4.777-13.694 10.374-18.156 12.283-7.939 26.66-4.082 38.063 3.625m-36.5 6.695c-2.758 3.702-3.887 6.664-3.687 11.305 1.08 6.461 4.295 10.647 9.304 14.723 6.84 4.817 14.31 8.756 22.883 7.277 5.837-1.885 9.07-4.491 12-10 1.57-4.712 2-8.698.012-13.277-4.338-7.148-10.5-11.467-17.887-15.16-8.865-1.596-16.312-2.003-22.625 5.132"/><path fill="#FCF5F2" d="M141.91 805.375c4.93 3.833 8.152 8.715 10.09 14.625.852 7.737.674 14.574-4 21-6.918 8.302-17.34 14.039-28.05 15.383-8.631.329-14.932-1.875-21.763-7.07-5.69-5.321-7.412-11.21-7.687-18.875.306-8.468 3.18-13.985 9.305-19.766 11.603-8.837 28.895-13.034 42.105-5.297m-41.785 16.75c-2.005 5.123-2.094 10.731-.469 16.004 1.853 3.697 4.459 6.378 8.172 8.21 10.119 3.077 19.583-.441 28.547-5.089 4.05-3.471 7.078-7.199 8.04-12.559.181-4.916-.597-8.557-3.415-12.691-4.587-4.74-8.539-6.125-15-6.375-10.335.097-19.153 4.882-25.875 12.5"/><path fill="#FDF6F4" d="M1032 967c3.077 1.38 5.259 2.979 7.688 5.309l2.1 1.997 2.212 2.131a5258 5258 0 0 0 6.858 6.548c2.38 2.24 4.815 4.405 7.267 6.564 6.612 5.847 12.28 12.303 15.875 20.451 0 5.249-3.601 8.393-7 12-2.015-1.813-3.378-3.57-4.89-5.848-4.969-7.424-11.414-13.805-18.239-19.53-2.503-2.17-4.768-4.535-7.035-6.946-2.419-2.208-5.086-3.908-7.836-5.676-5.66 5.568-11.232 11.128-16.39 17.172-2.168 2.462-4.498 4.733-6.848 7.02-2.547 2.614-4.816 5.448-7.086 8.304C997 1018 997 1018 993 1018c-2.25-1.5-2.25-1.5-4-3 1.59-3.932 4.163-6.33 7.188-9.25 3.9-3.81 7.597-7.708 11.136-11.855 2.441-2.76 5.079-5.307 7.703-7.891 2.539-2.579 4.88-5.302 7.235-8.047 2.334-2.628 4.826-5.073 7.355-7.512 1.492-1.416 1.492-1.416 2.383-3.445"/><path fill="#FBF6F4" d="M607 1152h65l.188 20.125.082 6.258c.095 12.251-.662 23.097-5.27 34.617h-13l1.457-5.2c2.185-9.466 2.108-18.936 2.23-28.612L658 1160h-51z"/><path fill="#FDF6F3" d="M160 847c4.431 5.8 4.431 5.8 5 10-1.45 3.735-3.516 7.041-5.625 10.438l-1.66 2.775a697 697 0 0 1-3.228 5.337c-1.892 3.116-3.696 6.275-5.487 9.45 9.463 2.062 15.079.172 23.164-4.434C175 879 175 879 177 879l3 8q-8.668 4.352-17.34 8.698-2.943 1.475-5.886 2.953a8563 8563 0 0 1-8.512 4.267l-2.612 1.314A787 787 0 0 1 138 908l-2.98 1.464-2.974 1.416-2.708 1.303C127 913 127 913 124 912c-1.648-2.602-2-3.862-2-7l25-12-7.812-2.187-2.627-.748c-4.262-1.202-8.517-2.3-12.846-3.23l-2.581-.584q-2.46-.553-4.938-1.023c-3.361-.779-5.491-1.32-7.654-4.108-1.079-2.04-1.97-3.884-2.542-6.12l1-2 2.69.734q4.953 1.348 9.908 2.684 2.142.579 4.283 1.164 3.081.84 6.166 1.668l3.745 1.016c3.31.883 3.31.883 7.208.734l1.098-2.044q2.51-4.667 5.027-9.331l1.727-3.215c3.55-6.577 7.237-13.04 11.148-19.41M1156.188 380.188c6.38 4.111 9.492 9.173 12.812 15.812.533 6.268.657 11.645-3 17-2.062 2.375-2.062 2.375-4 4h-2c-1.625-2.75-1.625-2.75-3-6 .75-2.25.75-2.25 2-4 1.605-3.21 1.485-6.517 1-10-1.746-3.143-3.469-5.469-6-8-5.145-.628-5.145-.628-9.738 1.156-1.786 2.61-1.59 4.523-1.512 7.656l.078 3.258c.178 3.037.64 5.937 1.172 8.93.493 6.046.074 10.594-3 16-4.215 4.104-7.966 5.729-13.75 6.5-5.426-.164-9.317-2.95-13.25-6.5-5.172-6.44-7.517-12.967-7.395-21.203.75-5.309 3.683-9.085 7.395-12.797h3l3 7-2 2c-2.082 3.123-2.646 5.12-2.46 8.871 1.127 5.211 4.093 9.218 8.46 12.129 3.801.415 6.108.526 9.438-1.437 2.752-4.514 1.949-9.358 1.062-14.415-1.098-6.913-1.741-14.268 1.063-20.773 6.219-6.06 12.083-8.37 20.624-5.187"/><path fill="#FCF5F2" d="M345 138c2.88 2.722 5.092 5.435 7.207 8.781l1.769 2.786 1.837 2.933 1.885 2.99C372.116 178.437 372.116 178.437 371 188c-2.593 7.905-8.007 12.744-15 17-5.606 1.869-12.507 2.03-18.2.352-8.597-4.522-13.51-14.388-18.363-22.352-4.976-8.21-4.976-8.21-10.402-16.125C307 164 307 164 307 162c5.412-4 5.412-4 8-4 1.262 1.69 1.262 1.69 2.688 4.066l1.603 2.642 1.709 2.855a3840 3840 0 0 0 3.531 5.777l1.774 2.902a508 508 0 0 0 7.195 11.383l1.164 1.842c2.34 3.555 4.452 5.751 8.336 7.533 6.405.723 9.787-.218 15-4 3.212-3.627 3.399-6.914 3.333-11.568-.586-4.28-2.773-7.4-5.146-10.932l-1.477-2.313A526 526 0 0 0 350 161a2232 2232 0 0 1-4.757-7.18 338 338 0 0 0-2.977-4.425c-1.166-1.75-2.227-3.568-3.266-5.395 1.245-3.736 2.634-4.188 6-6"/><path fill="#FDF6F3" d="M661.438 59.625c3.806 2.26 6.152 4.65 8.562 8.375.813 3.875.813 3.875 1 7h-8l-1.25-2.875c-1.864-3.328-2.338-3.852-5.75-5.125-5.36-.759-9.614-.924-14.187 2.125-2.144 3.4-2.65 4.939-1.813 8.875 3.963 3.933 8.25 5.36 13.438 7 6.287 1.999 11.864 4.033 16.437 9.063a24.05 24.05 0 0 1 .434 16.066c-2.413 4.674-6.051 7.797-11.051 9.445-7.751 1.462-16.015 1.752-23.008-2.199-3.71-2.62-5.922-4.917-7.25-9.375-.187-2.875-.187-2.875 0-5h8l1.063 2.813c2.49 4.096 4.392 4.824 8.937 6.187 6.03.754 9.136-.692 14-4 1.42-2.84 1.315-4.855 1-8-3.245-4.355-7.404-5.445-12.375-7-7.32-2.313-14.71-4.924-18.625-12-.65-4.846-.667-9.295 1.125-13.875 7.65-8.67 18.256-12.545 29.313-7.5M121 695c1.532 6.535 2.691 13.042 3.625 19.688l.406 2.76c.649 4.556 1.137 8.935.969 13.552-6.977 1.66-13.93 2.777-21.035 3.727l-3.392.462q-5.318.723-10.635 1.436l-7.249.984c-5.895.802-11.792 1.596-17.689 2.391l-5-36 8-1a2193 2193 0 0 1 1.5 9.563l.434 2.712.41 2.666.38 2.428c.335 3.194.276 6.42.276 9.631l19-2c-.981-5.939-.981-5.939-1.975-11.875-.771-4.778-1.183-9.286-1.025-14.125l7-1c1.947 7.925 2.999 15.914 4 24 4.486.083 8.825-.034 13.29-.504l2.685-.28c.668-.07 1.337-.142 2.025-.216l-.275-2.032a5478 5478 0 0 1-1.225-9.155l-.434-3.198-.41-3.095-.38-2.841c-.266-2.582-.325-5.086-.276-7.679 4.75-1 4.75-1 7-1"/><path fill="#FDF7F4" d="m552 66 1 7c-3.373.676-6.749 1.34-10.125 2l-2.883.578c-4.728.92-9.148 1.683-13.992 1.422l.656 3.395.844 4.418.434 2.236C528.509 90.078 529 92.909 529 96l1.848-.367c2.78-.55 5.56-1.091 8.34-1.633l2.908-.578 2.822-.547 2.587-.508c2.535-.373 4.936-.431 7.495-.367l1 7c-3.04.677-6.082 1.34-9.125 2l-2.594.578-2.539.547-2.317.508C537 103 537 103 531 103l3 19 4.602-.875 6.023-1.125 3.027-.578c4.839-.897 9.402-1.692 14.348-1.422l1 7q-6.483 1.29-12.97 2.563-2.206.434-4.408.874-3.175.63-6.352 1.25l-3.857.762c-2.894.467-5.494.668-8.413.551q-1.873-9.468-3.735-18.94l-1.269-6.426C516.487 77.784 516.487 77.784 516 72c2.894-2.894 10.16-2.84 14.063-3.562l3.685-.71c6.18-1.15 11.964-2.034 18.252-1.728"/><path fill="#FDF8F6" d="M457 1117a144 144 0 0 1 13 5c-.62 3.634-1.63 6.795-3.062 10.188-1.478 3.302-1.478 3.302-1.938 6.812l12 5c-1 5-1 5-4 8l-13-6-1.113 4.117c-2.08 6.932-5.085 13.432-8.074 20.008l-1.694 3.766A2784 2784 0 0 1 445 1183a932 932 0 0 1-4.25-1.375l-2.39-.773c-2.226-.804-4.27-1.75-6.36-2.852.694-4.908 2.623-9.162 4.57-13.676l1.09-2.554q1.726-4.044 3.465-8.082l2.266-5.307c4.48-10.485 9.02-20.943 13.609-31.381"/><path fill="#FDF6F4" d="M499 75q-.358 11.163-.73 22.324-.175 5.184-.34 10.368-.192 5.968-.395 11.937l-.117 3.735c-.193 5.617-.448 11.096-1.418 16.636-4.12 1.629-6.798 2.63-11 1-2.145-2.267-3.793-4.832-5.5-7.437a3575 3575 0 0 0-3.18-4.672l-1.651-2.448c-2.687-3.933-5.492-7.779-8.294-11.63l-3.234-4.485a735 735 0 0 0-6.22-8.469l-1.434-1.948a311 311 0 0 0-2.68-3.586c-1.174-1.602-1.174-1.602-2.807-4.325l1-3 8-1c7.144 10.16 14.266 20.335 21.313 30.563l1.686 2.43 1.552 2.26 1.364 1.98C486 127 486 127 487 130h2l-.035-3.758c-.099-16.099.421-32.158 1.035-48.242q1.968-.753 3.938-1.5l2.214-.844C498 75 498 75 499 75"/><path fill="#FCF4F1" d="M927 135c5.727 2.13 10.817 5.231 16.058 8.34q1.762 1.04 3.536 2.06c1.712.985 3.413 1.991 5.113 2.998l3.077 1.803L957 152c0 4 0 4-2 7-3.648-.566-6.235-1.509-9.355-3.469l-2.385-1.48-2.447-1.551-4.856-3.031-2.157-1.362c-1.802-1.145-1.802-1.145-3.8-2.107l-.805 2.137c-2.014 4.826-4.661 9.292-7.195 13.863l20 12c-2 5-2 5-3 7-5.355-1.871-9.904-4.94-14.648-7.986-1.74-1.08-3.543-2.055-5.352-3.014-3.678 1.226-4.003 2.2-5.918 5.473l-1.611 2.724-1.659 2.865-1.693 2.877A1236 1236 0 0 0 904 191c-3.375-1.186-5.647-2.276-8-5l1.015-1.667C907.025 167.898 917.016 151.451 927 135"/><path fill="#FCF6F3" d="M992 1086c3.317 1.106 3.675 1.576 5.523 4.352l1.407 2.082 1.445 2.191 2.836 4.227 1.393 2.086c2.074 3.064 4.231 6.063 6.396 9.062-1.416 3.392-3.042 5.097-6 7.25l-2.125 1.578C1001 1120 1001 1120 999 1120c-1.22-1.421-1.22-1.421-2.566-3.395l-1.471-2.146-1.525-2.272-1.538-2.236c-3.761-5.534-3.761-5.534-4.9-8.951a246 246 0 0 0-18.312 12.313l-1.9 1.402q-1.923 1.422-3.843 2.845a1445 1445 0 0 1-9.695 7.128c-.877.65-.877.65-1.77 1.315-4.138 2.997-4.138 2.997-7.48 2.997-3-4.222-3-4.222-3-7 1.566-1.322 1.566-1.322 3.777-2.836l2.47-1.708 2.69-1.831 5.536-3.82 2.82-1.939a1177 1177 0 0 0 11.582-8.116l2.078-1.461a495 495 0 0 0 10.11-7.293c.643-.473 1.286-.947 1.95-1.434a304 304 0 0 0 3.612-2.706c1.617-1.188 1.617-1.188 4.375-2.856"/><path fill="#FDF7F4" d="M961 1039a125 125 0 0 1 4.625 6.5l1.273 1.879A865 865 0 0 1 970 1052c4.801-2.645 4.801-2.645 9.25-5.812L981 1045c3.412 1.137 4.119 2.043 6 5v2c-2.117 1.727-2.117 1.727-4.875 3.625l-2.742 1.914C977 1059 977 1059 975 1059l1.054 1.481q2.381 3.351 4.759 6.707l1.658 2.33c2.657 3.752 5.246 7.485 7.529 11.482a346 346 0 0 1-4.75 3.563l-2.672 2.003C980 1088 980 1088 978.001 1087.791c-2.423-.958-3.144-1.867-4.595-4.01l-1.416-2.052-1.49-2.229q-1.59-2.318-3.184-4.637c-.543-.8-1.087-1.6-1.648-2.423-2.7-3.948-5.467-7.849-8.23-11.753l-1.516-2.152-1.426-2.023-1.317-1.874a95 95 0 0 0-3.019-3.931C949 1049 949 1049 949 1046c2.117-1.824 2.117-1.824 4.875-3.687l2.742-1.887C959 1039 959 1039 961 1039"/><path fill="#FDF6F3" d="m777 75 9 2c1.007 4.415 2.004 8.832 3 13.25l.867 3.8.82 3.653.762 3.364C792 104 792 104 792 108c4.107-3.437 7.957-6.906 11.555-10.875l1.933-2.08a167 167 0 0 0 3.792-4.24c1.841-1.965 3.366-3.49 5.72-4.805 3.266.021 5.982.792 9 2-1.837 4.025-4.481 6.482-7.75 9.375q-1.763 1.626-3.523 3.254a192 192 0 0 1-7.454 6.46C794.35 116.527 791.086 127.134 788 141l-8-2c.726-6.072 2.346-11.516 4.258-17.305 1.857-9.245-1.55-18.5-3.82-27.445q-.98-3.866-1.942-7.734l-.87-3.43c-.569-2.804-.753-5.237-.626-8.086"/><path fill="#FCF4F0" d="M992 177c5.932 4.334 11.622 8.927 17.292 13.598 3.454 2.835 6.926 5.648 10.395 8.464L1027 205l-4 6c-3.522-1.564-6.271-3.695-9.25-6.125l-2.703-2.195L1009 201c-3.99 3.887-7.677 7.969-11.312 12.188l-1.738 2.01c-4.446 5.168-8.74 10.44-12.95 15.802a4253 4253 0 0 1-4.5 5.625l-2.031 2.54c-.485.605-.97 1.21-1.469 1.835-3-1.812-3-1.812-6-4 0-4.165 2.234-6.217 4.75-9.312l1.49-1.865c4.048-5.03 8.234-9.94 12.461-14.82 4.237-4.897 8.306-9.906 12.299-15.003-1.52-3.88-3.86-5.74-7.125-8.25l-2.758-2.14L988 184c1.074-2.915 1.778-4.778 4-7"/><path fill="#FDF5F2" d="m100 422 7 2c-.684 4.176-2.014 7.88-3.562 11.813-.456 1.16-.91 2.322-1.38 3.519L101 442l1.854.54a335 335 0 0 1 17.619 5.745l2.573.915q2.658.946 5.316 1.898c2.723.972 5.449 1.934 8.175 2.896q2.593.925 5.186 1.854l2.474.868c5.689 2.055 5.689 2.055 6.803 4.284-.606 2.02-1.27 4.023-2 6-5.968-.602-11.18-2.293-16.8-4.344l-2.781-.997c-2.913-1.047-5.822-2.103-8.732-3.159l-5.923-2.129a4270 4270 0 0 1-10.793-3.896l-2.183-.792C100 451 100 451 98 450l-.55 1.941c-1.513 5.203-3.2 10.13-5.45 15.059l-7-2c.747-4.648 2.297-8.89 3.906-13.293l.863-2.386q.9-2.485 1.806-4.97 1.386-3.809 2.765-7.622l2.59-7.142c1.953-5.353 1.953-5.353 3.07-7.587"/><path fill="#FDF7F5" d="M718 64c9.323.738 18.432 2.401 27.625 4.063l4.777.853Q756.202 69.952 762 71l-1 8c-6.393-.724-12.679-1.812-19-3-.03.548-.062 1.097-.094 1.661-.751 10.28-2.696 20.385-4.468 30.527l-.999 5.775Q735.226 120.983 734 128l-9-1a32620 32620 0 0 1 3.21-19.337A2766 2766 0 0 1 734 74l-2.11-.17c-5.214-.435-9.916-1.208-14.89-2.83z"/><path fill="#FEF8F5" d="M1209 716h7c1.52 4.953.492 9.275-.434 14.238l-.475 2.67c-.5 2.803-1.014 5.604-1.528 8.404l-1.026 5.713A3806 3806 0 0 1 1210 761l-8-1 2-18-4.251-.719q-7.806-1.32-15.61-2.644l-6.757-1.144q-4.855-.821-9.71-1.645l-3.053-.515-2.85-.485-2.504-.424A89 89 0 0 1 1153 733l1-8c11.008.626 21.836 2.714 32.688 4.563l5.92.998q7.197 1.213 14.392 2.439l.199-2.277.266-2.993.261-2.964A100 100 0 0 1 1209 716"/><path fill="#FDF6F3" d="M1214 607h7c.848 14.68 1.131 29.296 1 44h-8v-17h-53v-8c17.674-.65 35.31-1.167 53-1zM391 1155q2.409.68 4.813 1.375l2.707.773C401 1158 401 1158 404 1160c-2.19 6.72-4.558 13.367-7 20 1.133.347 2.266.694 3.434 1.05 7.723 2.575 15.152 5.93 22.628 9.138q2.324.99 4.647 1.982 5.648 2.41 11.291 4.83l-3 8a1721 1721 0 0 1-20-8l-3.615-1.46a992 992 0 0 1-9.45-3.889 654 654 0 0 0-5.551-2.261c-10.974-4.613-10.974-4.613-14.384-10.39-.556-8.758 4.152-16.374 8-24"/><path fill="#FCF4F1" d="M250 208c3.79 1.51 5.587 3.682 8.063 6.875a213 213 0 0 0 10.562 12.313c5.659 6.11 11.245 12.246 16.375 18.812 5.992-1.694 9.672-6.266 13.916-10.564l1.807-1.76 1.617-1.628C304 231 304 231 306.127 231.173c1.873.827 1.873.827 3.123 3.39L310 237c-22.35 21-22.35 21-27 21-1.945-1.8-1.945-1.8-4.125-4.312l-2.426-2.782a505 505 0 0 1-6.762-8.219c-3.457-4.275-7.069-8.351-10.812-12.375l-1.55-1.666-2.965-3.186a575 575 0 0 1-5.548-6.023l-1.605-1.753c-1.346-1.878-1.797-3.426-2.207-5.684z"/><path fill="#FDF9F8" d="M188.188 935.125c3.48 2.32 4.992 4.094 6.812 7.875.842 4.794.467 8.083-1.75 12.438-2.67 3.04-4.6 4.274-8.582 4.968-4.858.184-7.909-.036-11.73-3.218-3.262-3.109-3.878-5.45-4.25-10 .064-4.384 1.426-6.834 4.312-10.188 4.837-3.922 9.427-3.908 15.188-1.875"/><path fill="#FDF9F7" d="M1100 934c3.952 2.088 6.636 4.22 9 8 .747 4.504.523 8.706-1.187 12.938-2.778 3.16-4.905 4.772-9.149 5.417-4.344.242-7.646.198-11.164-2.543-3.408-3.834-4.323-6.186-4.875-11.25.55-5.22 2.637-8.114 6.625-11.437 3.646-1.491 6.905-1.811 10.75-1.125"/><path fill="#FDF4F1" d="M110 399c3.334.58 6.205 1.39 9.28 2.794l2.46 1.114 2.62 1.205 2.738 1.245a3630 3630 0 0 1 8.652 3.954q2.887 1.317 5.773 2.631 4.092 1.863 8.182 3.733A1395 1395 0 0 0 166 423c-1.875 5.75-1.875 5.75-3 8-7.42-2.284-14.296-5.318-21.312-8.625q-3.443-1.607-6.887-3.21l-3.447-1.61a1276 1276 0 0 0-14.979-6.805l-2.583-1.159Q110.897 408.294 108 407c.875-5.75.875-5.75 2-8"/><path fill="#911E04" d="M1179 441c3.287 5.384 4.146 12.873 3 19-2.715 3.724-5.498 5.928-10 7-5.382-.192-8.139-1.292-12-5-1.582-3.164-1.582-3.164-2.812-6.625l-1.27-3.477C1155 449 1155 449 1155 447c3.244-1.205 6.496-2.386 9.75-3.562l2.79-1.038 2.694-.966 2.476-.905c2.532-.585 3.886-.477 6.29.471"/><path fill="#FDF5F2" d="M435 97c4.827 11.872 9.53 23.794 14.161 35.743a1171 1171 0 0 0 1.814 4.638q1.291 3.291 2.56 6.592l.8 2.014c1.78 4.67 1.78 4.67.665 8.013-3.562 1.188-3.562 1.188-7 2a12656 12656 0 0 1-8.214-20.967 5491 5491 0 0 0-3.814-9.735q-2.196-5.593-4.378-11.193l-1.392-3.532-1.274-3.275-1.13-2.887C427 102 427 102 427 99c3.088-1.765 4.233-2 8-2"/><path fill="#FCF6F3" d="m692 61 8 1c.148 7.68-.271 15.16-1.094 22.793l-.336 3.249q-.528 5.073-1.07 10.145l-.723 6.932A8868 8868 0 0 1 695 122h-9c.727-9.05 1.56-18.088 2.438-27.125l.197-2.045c1.03-10.621 2.13-21.231 3.365-31.83"/><path fill="#FDF5F2" d="M1146 763c11.78 2.736 23.53 5.586 35.262 8.52q4.086 1.019 8.174 2.033l5.216 1.302 2.459.61c5.66 1.42 5.66 1.42 7.889 2.535l-2 8c-12.542-2.554-24.95-5.628-37.375-8.687l-6.312-1.55q-7.658-1.878-15.313-3.763z"/><path fill="#921F06" d="M1039.086 228.208c2.585 1.07 4.09 2.608 6.039 4.605l2.07 2.082c2.521 2.94 3.679 5.138 4.18 8.98-.596 4.967-2.91 7.897-6.687 11.063-2.725 1.076-4.742 1.53-7.649.972-5.989-2.673-11.286-8.017-14.039-13.91 2.23-2.374 4.487-4.72 6.75-7.062l1.922-2.05 1.875-1.923 1.714-1.793c1.739-1.172 1.739-1.172 3.825-.964M1209 559c2.627 14.777 2.627 14.777-.012 20.004-2.115 2.637-3.772 3.924-6.988 4.996-7.074.685-7.074.685-10.875-2.125-4.386-5.935-4.965-12.64-5.125-19.875 2.107-2.107 6.336-1.737 9.25-2.062l2.316-.276c3.832-.44 7.57-.778 11.434-.662"/><path fill="#921F05" d="M599.875 69.25c2.928 2.411 4.88 4.371 5.559 8.188.01 6.904.01 6.904-2.121 10.062-4.571 2.965-8.652 3.814-14.063 4.188l-3.484.261L583 92c-1.65-1.65-1.225-3.637-1.316-5.91l-.127-2.998-.12-3.154-.13-3.167q-.16-3.885-.307-7.771c13.586-2.05 13.586-2.05 18.875.25"/><path fill="#921E05" d="M98 763c5.308 3.74 6.819 8.853 8 15a83 83 0 0 1 0 5c-3.986 1.44-8.032 2.597-12.125 3.688l-3.07.824c-2.732.475-4.228.407-6.805-.512-3.917-13.476-3.917-13.476-2-19 4.7-5.374 9.126-6.66 16-5"/><path fill="#911E04" d="M934.938 1078.438c5.154.946 8.06 3.402 11.437 7.312 2.157 4.313 2.233 6.459 1.625 11.25-1.5 3-1.5 3-4 5-4.13.745-6.403.968-10.004-1.215-4.592-3.767-6.766-6.712-7.433-12.723.095-3.396.47-4.108 2.562-7.062 2.875-2 2.875-2 5.813-2.562M420 1119c3.499 2.21 3.944 3.774 4.938 7.813.419 5.359-1.559 9.246-4.625 13.562-3.304 2.322-6.286 3.056-10.313 2.625-3-1.812-3-1.812-5-5-.949-5.055-.586-8.848 1.75-13.437 4.247-4.837 6.57-6.398 13.25-5.563"/><path fill="#921F06" d="M761 1202c3.812 3.304 5.867 5.24 6.25 10.313-.329 4.851-1.867 7.304-5.25 10.687-4.57.45-6.897.648-10.875-1.687-3.331-3.626-4.177-5.87-4-10.813.959-3.835 2.098-5.723 4.875-8.5 3.624-1.208 5.333-1.027 9 0"/><path fill="#921F05" d="M296 1111c5.51 1.005 9.635 4.653 14.125 7.813l2.785 1.908 2.66 1.861 2.43 1.695c2.073 1.786 2.982 3.21 4 5.723l-4 6c-3.5-1.278-6.323-2.764-9.32-4.969-.783-.57-1.565-1.142-2.371-1.73l-2.434-1.801q-2.41-1.766-4.82-3.531l-2.141-1.58A150 150 0 0 0 292 1119c1.125-2.972 2.223-5.334 4-8"/><path fill="#94230A" d="M1183 672c8.9 2.751 17.416 6.403 26 10v2a5128 5128 0 0 1-11.812 3l-3.393.867-3.252.82-3 .762C1185 690 1185 690 1182 690z"/><path fill="#922007" d="M220 254c3.567.602 6.578 1.562 9.863 3.066l2.686 1.221 2.763 1.276 2.823 1.287q3.435 1.568 6.865 3.15c-1.584 3.356-3.321 5.535-6 8.125l-2.125 2.07L235 276l-2 2c-2.01-3.328-4.007-6.662-6-10l-1.957-3.266-1.918-3.234-1.805-3.031C220 256 220 256 220 254M1087 287l-14 21c-4.126-2.063-5.501-3.551-8.25-7.125l-2.14-2.758L1061 296c1.976-3.953 7.902-4.76 11.875-6.187l3.09-1.155 2.965-1.076 2.726-.993C1084 286 1084 286 1087 287"/><path fill="#921F06" d="M114 497q-.43 2.564-.875 5.125l-.492 2.883c-.656 3.099-1.579 6.007-2.633 8.992-6.133-3.522-12.236-7.09-18.25-10.812l-2.766-1.708L87 500v-2c9.037-.942 17.926-1.112 27-1"/><path fill="#922007" d="M95 649v17c-8.943-1.537-17.39-4.201-26-7 1.397-2.794 2.897-2.893 5.805-3.945l2.957-1.075 3.113-1.105 3.09-1.129C91.6 649 91.6 649 95 649"/><path fill="#FCE9E1" d="M615 1183h14v36h-1c-.954-4.003-1.116-7.722-1.098-11.832l.01-3.916.025-4.064q.009-2.063.014-4.124.018-5.032.049-10.064l-10 1-1 33h-1z"/><path fill="#FAE8E0" d="M753 983c0 3 0 3-2.668 5.813a337 337 0 0 1-3.52 3.187l-1.751 1.617c-3.185 2.893-6.297 5.261-10.061 7.383a240 240 0 0 0-5.352 4.11L728 1006l-3-1 2.133-1.582a896 896 0 0 0 17.492-13.356l1.829-1.43c2.285-1.8 4.488-3.574 6.546-5.632"/><path fill="#FDEEE7" d="M1008 245c0 3 0 3-1.934 5.191l-2.504 2.371c-3.2 2.907-3.2 2.907-5.562 6.438l2 1q1.532 1.469 3 3h-4l-4-5z"/><path fill="#FDEEE4" d="M1166 556v1l-8 1v5h12v1l-14 1-1-8c3.734-.879 7.168-1.09 11-1"/><path fill="#FCECE5" d="m1149 378.813 2.063-.043C1153 379 1153 379 1156 381l-2.633-.027c-6.657-.04-6.657-.04-12.496 2.652-1.575 1.89-1.575 1.89-2.82 3.879L1137 389h-2c1.352-4.423 3.199-6.404 7-9 2.644-.881 4.28-1.162 7-1.187"/><path fill="#F5D6CC" d="M656 1206h1v5l3.813-.437 2.144-.247c2.237-.288 2.237-.288 5.043-1.316l-1 4h-13z"/><path fill="#F9E7DF" d="M861 613h2c3.91 5.167 7.435 11.06 10 17l-1 3-1.39-2.414c-3.847-6.716-3.847-6.716-8.048-13.211C861 615 861 615 861 613"/><path fill="#F6DED3" d="m106 873 20 5v1c-5.569-.48-10.67-1.3-16-3v3h-2z"/><path fill="#FEF2EC" d="M320 305c0 4.199-2.21 6.124-5 9a230 230 0 0 1-8 7l-2-1z"/><path fill="#F9E5DE" d="m348 280 2 1c-4.381 4.581-8.548 8.73-14 12l-2-1z"/><path fill="#F9E5DD" d="m1086 337 2 1c-4.529 3.925-9.606 7.375-15 10l-2-1q2.342-1.659 4.688-3.312l2.636-1.864c5.045-3.439 5.045-3.439 7.676-4.824"/><path fill="#FDF0E9" d="m438 223 2 1q-2.84 1.694-5.687 3.375l-3.2 1.898A56.6 56.6 0 0 1 423 233l-1-2q3.93-2.044 7.875-4.062l2.262-1.182 2.168-1.104 2-1.031z"/><path fill="#FDF0E8" d="m1161 654 7 2-1.937 1.25c-2.273 1.928-2.665 2.864-3.063 5.75h-2z"/><path fill="#F7DFD4" d="M68 650v2l-8 3-1 9h-1v-11c7.75-3 7.75-3 10-3"/><path fill="#FBEAE3" d="m1032 967 4 2-1.687.688c-2.512 1.29-2.512 1.29-4.813 3.812-2.227 2.227-3.715 3.225-6.5 4.5l1.207-1.39c2.704-3.133 5.373-6.249 7.793-9.61"/><path fill="#F3D8D1" d="m809 933 3 1-8 8-3-1z"/><path fill="#FDEEE6" d="m1165 696-1.875.688c-2.74 1.691-3.175 3.304-4.125 6.312h5c-3.75 2-3.75 2-6 2v-9c3.133-1.044 3.99-.934 7 0"/><path fill="#F5DDD6" d="M304 321c1 2 1 2 .5 3.813-2.212 3.225-5.256 5.07-8.5 7.187.57-3.626 1.924-5.255 4.563-7.75l1.94-1.86c.495-.458.988-.917 1.497-1.39"/><path fill="#F8E4DC" d="M409 1041c3.999.571 6.597 1.873 10 4 1.654.698 3.317 1.375 5 2v2c-5.48-1.545-10.114-4.155-15-7z"/><path fill="#FDF4EB" d="m1054 843 2 1-7 14c-1.195-3.586-.745-4.197.813-7.5l1.082-2.344C1052 846 1052 846 1054 843"/><path fill="#F5DCD1" d="M135 486h7l-3 9h-5l3-1v-2h2v-5z"/><path fill="#F6E1D7" d="M93 490v1l-2.484.332-3.266.48-3.234.458c-3.07.743-4.677 1.658-7.016 3.73l1-5c5.05-1.036 9.874-1.103 15-1"/><path fill="#F8E4DC" d="m847 829 1 3-1.312 1.188c-1.82 1.81-1.82 1.81-3.125 4.375-1.702 2.654-2.764 3.19-5.563 4.437a2768 2768 0 0 1 2.813-4.25l1.582-2.39A143 143 0 0 1 847 829"/><path fill="#F8E0D7" d="M1093.5 275.813 1095 277l-1 2-3.062-.062c-3.741.059-7.25.46-10.938 1.062 4.006-2.67 8.658-5.761 13.5-4.187"/><path fill="#FCEBE4" d="M1046 1028c4.435 1.394 6.874 3.606 10 7l-1 3a1766 1766 0 0 1-4.5-4.437l-2.531-2.497C1046 1029 1046 1029 1046 1028"/><path fill="#F7E1DA" d="m870 864 1 4c-1.434 1.922-1.434 1.922-3.437 3.75l-1.997 1.86L864 875l-2-1z"/><path fill="#FAE7DC" d="M1125 449h2v4l8 1c-2.565 2.565-4.477 2.54-8 3z"/><path fill="#FBECE3" d="m261 373 2 3-7 8c0-3.413.669-4.395 2.5-7.187l1.406-2.168z"/><path fill="#F8E3DC" d="M459 88c-3 2-3 2-5 2v6l-4-4 1-3c2.928-.976 4.956-1.082 8-1"/><path fill="#FAEAE2" d="M693 983c-1.38 3.337-2.82 5.223-6 7-2.133-.426-2.133-.426-4-1a617 617 0 0 1 3.875-3l2.18-1.687C691 983 691 983 693 983"/><path fill="#FAE8E0" d="m1007 918 3 1-7 9-1-4h2l1-3h2z"/><path fill="#F8E6DF" d="M67 578v2l-2.375 1.875c-2.487 2.014-3.48 3.211-4.625 6.125.488-6.055.488-6.055 1-8 3-2 3-2 6-2"/><path fill="#F6DED6" d="M143 347c-1.261 3.784-2.588 4.132-6 6l-3 2v-3c1.46-1.387 1.46-1.387 3.375-2.687l1.898-1.325C141 347 141 347 143 347"/><path fill="#FBE9DE" d="m777 75 6 1-2.062.938c-2.18 1.858-2.18 1.858-1.981 4.265.27 2.287.607 4.536 1.043 6.797-1.671-2.962-2.327-5.37-2.625-8.75l-.227-2.422z"/><path fill="#F8E1D5" d="m1155 904 3 1c-1.875 5.75-1.875 5.75-3 8l-4-2h3z"/><path fill="#FCEEE9" d="m1016 237 2 2-5 6-4-1z"/><path fill="#F7E0D6" d="M613 75h1c.218 5.439.104 9.87-2 15h-1q-.062-3.5 0-7l1-1q.553-3.493 1-7"/><path fill="#F5DACF" d="M759 71h3l-1 8-8-1v-1l6-1z"/><path fill="#F6E0D7" d="M348 999c4 0 4 0 6.75 2.313C357 1004 357 1004 357 1007a1271 1271 0 0 1-4.5-3.437l-2.531-1.934L348 1000z"/><path fill="#F4D7CE" d="M1209 716h7l1 5-1-3c-2.437.27-2.437.27-5 1l-2 3z"/><path fill="#F7DFD7" d="M333 293c0 3 0 3-1.531 4.605l-1.969 1.582-1.969 1.606L326 302l-2-1z"/><path fill="#F9E5DD" d="m400 1098 10 4c-2.995.998-4.173 1.007-7.187.563L399 1102z"/><path fill="#F6D9D0" d="m214 983 3 1-1.875 1.25c-2.193 1.806-3.053 3.16-4.125 5.75l-2-4c2.313-2.062 2.313-2.062 5-4"/><path fill="#FBEAE2" d="M178 935v2l-3 1a396 396 0 0 0-3 5h-2c1.344-4.145 3.122-8 8-8"/><path fill="#FBEAE3" d="m1032 883 2 1-6 9-1-2c1.377-3.148 2.562-5.562 5-8"/><path fill="#FCEFE8" d="m1136 801 1 2 2 1c-4.75 4.875-4.75 4.875-7 6 1.059-3.403 2.009-6.014 4-9"/><path fill="#F9E4DA" d="m129 526 2 1-2 9-4-2 4-2z"/><path fill="#F7E2D8" d="M1137 362q-1.932 1.257-3.875 2.5l-2.18 1.406C1129 367 1129 367 1127 367c1-3 1-3 3.313-4.75 3.009-1.4 3.667-1.203 6.687-.25"/><path fill="#F6DDD3" d="m181 281 4 1c-2.312 2.5-2.312 2.5-5 5h-3z"/><path fill="#FDEEE6" d="m692 61 4 2-2 1c-.69 2.35-.69 2.35-1.125 5.063l-.508 2.785L692 74h-1z"/><path fill="#F6DAD2" d="M769 1134h5l1 7-4 1 1-6z"/><path fill="#F7DED8" d="M295 1088c4.875 1.75 4.875 1.75 6 4l-2.812-.125c-3.346-.146-3.346-.146-6.188 2.125 1.875-4.875 1.875-4.875 3-6"/><path fill="#FBEBE3" d="M401 853c4.875 4.625 4.875 4.625 6 8l-4-1z"/><path fill="#FBEBE4" d="M86 729c-2.282 2.074-3.443 2.984-6.578 3.074l-2.672-.386-2.703-.364L72 731v-1c4.724-.652 9.22-1.12 14-1"/><path fill="#FAE2D8" d="M397 174c2 2 2 2 2 5l-7 3-1-2 5-1z"/><path fill="#F7E0D8" d="M539 1220h1c1.125 6.625 1.125 6.625 0 10l1 2-3-1z"/><path fill="#F8E1DA" d="M720 1189c-1 2-1 2-2.875 2.688C715 1192 715 1192 712 1191l-1 4v-5c3.073-.91 5.801-1.089 9-1"/><path fill="#F9E4DD" d="m1044 1010 3 1h-2l-.812 1.813c-1.173 2.16-2.382 3.545-4.188 5.187l-2-1z"/><path fill="#FAEAE3" d="m717 994 3 1-8 6v-3c2.313-2.25 2.313-2.25 5-4"/><path fill="#F8E3DB" d="m942 988 2 2-8 6c0-3 0-3 1.313-4.387z"/><path fill="#FBE8E0" d="m160 847 3 4-1 2h-3l-2 1c1.875-5.875 1.875-5.875 3-7"/><path fill="#FCEAE0" d="M1142 348c2.526 2.363 3.888 3.665 5 7l-2 1-.75-1.875c-1.456-2.476-2.628-3.076-5.25-4.125z"/><path fill="#F9E5DC" d="M519.563 70.938 522 71l-1.437 1.188c-1.915 2.22-2.176 3.946-2.563 6.812h-1a177 177 0 0 1-1-7c1-1 1-1 3.563-1.062"/><path fill="#FBEAE0" d="m876 1185 8 2c-2.139 2.139-3.133 2.427-6 3z"/><path fill="#FCEDE6" d="M810 1123v8h-2l-2-7c2-1 2-1 4-1"/><path fill="#FBE9E0" d="m979 1095 2 1-4 2zm-4 3 2 1-5 4v-3z"/><path fill="#F8E2D9" d="m332 1081 8 2-1 3c-2.884-1.293-4.872-2.66-7-5"/><path fill="#F7E0D7" d="M1088 936h2c-1.293 2.884-2.66 4.872-5 7l-1-2a105 105 0 0 1 4-5"/><path fill="#F8DED4" d="m100 422 7 2-1 5c-2-2-2-2-3-4l-3-1z"/><path fill="#FAE8DF" d="M1117 392v2a125 125 0 0 1-6 4c0-3 0-3 1.313-4.687C1114 392 1114 392 1117 392"/><path fill="#F3DBD4" d="m1077 301 1 2a101 101 0 0 1-3 6l-4-1 1.875-1.812c2.262-2.196 2.262-2.196 4.125-5.188"/><path fill="#F5DBD2" d="m250 208 2 1c-1.926 2.44-3.8 4.8-6 7l-1-4z"/></svg>