<svg xmlns="http://www.w3.org/2000/svg" xml:space="preserve" width="1000px" height="202px" x="0px" y="0px" viewBox="0 0 1000 202"><g fill="#231815"><path d="M381.042 128.754v8.428h.058l5.281-8.428h4.528l-5.631 9.014 6.271 12.019h-4.702l-4.266-8.631-1.539 2.39v6.241h-4.181v-21.032h4.181zM395.813 141.865c0-3.242.174-5.569 2.144-5.569 1.63 0 2.146 1.619 2.146 5.569 0 3.944-.516 5.567-2.146 5.567-1.971.001-2.144-2.327-2.144-5.567zm-4.007 0c0 5.505 1.336 8.425 6.15 8.336 4.588 0 6.152-2.918 6.152-8.336 0-5.513-1.332-8.426-6.152-8.337-4.58 0-6.15 2.913-6.15 8.337zM406.258 133.936h3.831v2.125h.058c.81-1.529 1.943-2.532 3.598-2.532.23 0 .492.031.727.058v3.888a17.997 17.997 0 0 0-1.248-.059c-1.392 0-2.96.738-2.96 2.86v9.511h-4.005v-15.851zM419.345 140.068v-.62c0-1.476.466-3.152 2.061-3.152 1.652 0 1.946 1.356 2.033 3.772h-4.094zm7.923 2.413v-.911c0-4.863-1.044-8.042-5.718-8.042-5.396 0-6.208 3.945-6.208 8.188 0 3.95.229 8.484 6.034 8.484 3.773 0 5.514-2.061 5.662-5.745h-3.6c-.235 1.946-.784 2.977-2.118 2.977-1.481 0-1.976-1.824-1.976-3.68v-1.271h7.924zM436.638 144.987c0 1.734-1.393 2.445-2.467 2.445-1.073 0-1.506-1.001-1.506-2.211 0-1.414.638-2.207 2.264-2.562a4.91 4.91 0 0 0 1.709-.795v3.123zm-3.71-6.19v-.437c0-1.239.638-2.064 1.854-2.064 1.339 0 1.856.738 1.856 1.944 0 1.061-.402 1.533-1.592 1.856l-2.267.618c-2.754.767-3.945 1.975-3.945 4.952 0 2.118.986 4.534 3.773 4.534 1.918 0 3.047-.415 3.976-2.061h.055c.115.528.237 1.146.498 1.646h3.829c-.407-.91-.494-1.587-.494-3.064v-8.332c0-2.86-.902-4.861-5.658-4.861-3.019 0-5.482 1.237-5.482 4.888v.381h3.597zM450.599 149.786v-21.032h4.177v21.032h-4.177zM457.767 133.936h3.828v1.861h.06c.842-1.561 2.294-2.269 3.976-2.269 2.495 0 3.975 1.385 3.975 4.505v11.753h-4.003v-10.929c0-1.594-.52-2.209-1.715-2.209-1.363 0-2.118.856-2.118 2.621v10.517h-4.002v-15.85zM475.211 144.604v.532c0 1.383.72 2.297 2.083 2.297 1.223 0 2.033-.62 2.033-1.886 0-1.03-.668-1.5-1.45-1.794l-2.815-1.032c-2.205-.796-3.337-2.182-3.337-4.422 0-2.622 1.628-4.771 5.745-4.771 3.627 0 5.338 1.648 5.338 4.505v.648h-3.596c0-1.592-.466-2.386-1.768-2.386-1.02 0-1.893.587-1.893 1.71 0 .765.412 1.414 1.742 1.854l2.41.825c2.525.857 3.451 2.15 3.451 4.536 0 3.332-2.436 4.979-5.799 4.979-4.5 0-5.75-2.002-5.75-5.035v-.563h3.606zM486.026 129.4h4.007v4.535h2.323v2.771h-2.323v8.576c0 1.235.261 1.737 1.425 1.737.315 0 .638-.032.898-.061v2.826c-.873.089-1.686.183-2.613.183-3.134 0-3.717-.972-3.717-4.187v-9.075h-2.027v-2.771h2.027V129.4zM493.894 133.936h4.003v15.851h-4.003v-15.851zm0-5.418h4.003v3.476h-4.003v-3.476zM501.583 129.4h4.003v4.535h2.325v2.771h-2.325v8.576c0 1.235.265 1.737 1.423 1.737.321 0 .64-.032.902-.061v2.826c-.873.089-1.686.183-2.615.183-3.136 0-3.713-.972-3.713-4.187v-9.075h-2.033v-2.771h2.033V129.4zM517.312 147.932h-.058c-.844 1.561-2.294 2.27-3.979 2.27-2.493 0-3.974-1.385-3.974-4.507v-11.759h4.003v10.937c0 1.587.525 2.208 1.711 2.208 1.369 0 2.122-.855 2.122-2.624v-10.521h4.003v15.851h-3.829v-1.855zM524.683 129.4h4.003v4.535h2.323v2.771h-2.323v8.576c0 1.235.263 1.737 1.423 1.737.319 0 .642-.032.9-.061v2.826c-.873.089-1.684.183-2.613.183-3.134 0-3.713-.972-3.713-4.187v-9.075h-2.033v-2.771h2.033V129.4zM535.827 140.068v-.62c0-1.476.465-3.152 2.056-3.152 1.655 0 1.947 1.356 2.032 3.772h-4.088zm7.919 2.413v-.911c0-4.863-1.045-8.042-5.714-8.042-5.399 0-6.21 3.945-6.21 8.188 0 3.95.231 8.484 6.03 8.484 3.779 0 5.52-2.061 5.662-5.745h-3.6c-.229 1.946-.78 2.977-2.117 2.977-1.48 0-1.971-1.824-1.971-3.68v-1.271h7.92zM556.282 141.865c0-3.242.174-5.569 2.149-5.569 1.624 0 2.146 1.619 2.146 5.569 0 3.944-.521 5.567-2.146 5.567-1.975.001-2.149-2.327-2.149-5.567zm-4.005 0c0 5.505 1.337 8.425 6.154 8.336 4.585 0 6.151-2.918 6.151-8.336 0-5.513-1.335-8.426-6.151-8.337-4.585 0-6.154 2.913-6.154 8.337zM567.597 136.707h-2.029v-2.771h2.029v-1.789c0-2.859 1.6-3.804 4.185-3.804.723 0 1.422.027 2.146.086v2.888c-.263-.026-.523-.026-.784-.026-1.131 0-1.541.353-1.541 1.266v1.38h2.325v2.771h-2.325v13.079h-4.005v-13.08zM585.765 143.225v.615c0 1.97.554 3.24 2.758 3.24 1.277 0 2.496-.829 2.496-2.592 0-1.915-.96-2.623-3.717-3.596-3.712-1.297-5.421-2.859-5.421-6.361 0-4.1 2.464-6.188 6.409-6.188 3.718 0 6.413 1.619 6.413 5.653v.593H590.7c0-1.975-.67-3.125-2.264-3.125-1.891 0-2.385 1.204-2.385 2.443 0 1.302.379 2.098 2.149 2.861l3.221 1.413c3.135 1.385 3.95 3.005 3.95 5.571 0 4.446-2.671 6.448-7.197 6.448-4.733 0-6.587-2.238-6.587-6.128v-.849h4.178zM604.858 139.653c0-1.526-.289-3.181-1.798-3.181-1.973 0-2.292 1.768-2.292 5.418 0 3.919.35 5.542 2.149 5.542 1.331 0 1.94-1.147 1.94-3.713h3.832c0 4.154-1.713 6.481-5.946 6.481-4.005 0-5.979-1.971-5.979-8.336 0-6.515 2.64-8.337 6.322-8.337 3.687 0 5.603 2.382 5.603 6.125h-3.831zM610.925 133.936h4.007v15.851h-4.007v-15.851zm0-5.418h4.007v3.476h-4.007v-3.476zM621.167 140.068v-.62c0-1.476.467-3.152 2.058-3.152 1.657 0 1.945 1.356 2.036 3.772h-4.094zm7.923 2.413v-.911c0-4.863-1.045-8.042-5.72-8.042-5.397 0-6.207 3.945-6.207 8.188 0 3.95.232 8.484 6.037 8.484 3.77 0 5.512-2.061 5.654-5.745h-3.594c-.229 1.946-.786 2.977-2.118 2.977-1.485 0-1.976-1.824-1.976-3.68v-1.271h7.924zM631.18 133.936h3.829v1.861h.06c.843-1.561 2.294-2.269 3.975-2.269 2.495 0 3.974 1.385 3.974 4.505v11.753h-4.007v-10.929c0-1.594-.516-2.209-1.707-2.209-1.363 0-2.12.856-2.12 2.621v10.517h-4.003v-15.85zM653.207 139.653c0-1.526-.291-3.181-1.802-3.181-1.974 0-2.294 1.768-2.294 5.418 0 3.919.348 5.542 2.147 5.542 1.338 0 1.948-1.147 1.948-3.713h3.827c0 4.154-1.711 6.481-5.945 6.481-4.005 0-5.982-1.971-5.982-8.336 0-6.515 2.642-8.337 6.33-8.337 3.685 0 5.598 2.382 5.598 6.125h-3.827zM662.548 140.068v-.62c0-1.476.465-3.152 2.061-3.152 1.656 0 1.95 1.356 2.035 3.772h-4.096zm7.923 2.413v-.911c0-4.863-1.044-8.042-5.718-8.042-5.394 0-6.208 3.945-6.208 8.188 0 3.95.229 8.484 6.036 8.484 3.771 0 5.512-2.061 5.658-5.745h-3.596c-.235 1.946-.788 2.977-2.12 2.977-1.479 0-1.976-1.824-1.976-3.68v-1.271h7.924zM686.806 144.987c0 1.734-1.391 2.445-2.462 2.445-1.075 0-1.514-1.001-1.514-2.211 0-1.414.639-2.207 2.267-2.562a4.952 4.952 0 0 0 1.709-.795v3.123zm-3.713-6.19v-.437c0-1.239.643-2.064 1.857-2.064 1.334 0 1.855.738 1.855 1.944 0 1.061-.405 1.533-1.593 1.856l-2.264.618c-2.757.767-3.946 1.975-3.946 4.952 0 2.118.982 4.534 3.772 4.534 1.914 0 3.046-.415 3.973-2.061h.058c.122.528.234 1.146.497 1.646h3.827c-.404-.91-.491-1.587-.491-3.064v-8.332c0-2.86-.899-4.861-5.661-4.861-3.015 0-5.482 1.237-5.482 4.888v.381h3.598zM693.481 133.936h3.831v1.861h.059c.844-1.561 2.294-2.269 3.978-2.269 2.491 0 3.971 1.385 3.971 4.505v11.753h-4.004v-10.929c0-1.594-.521-2.209-1.71-2.209-1.364 0-2.119.856-2.119 2.621v10.517h-4.005v-15.85zM711.616 141.865c0-3.449.348-5.217 2.092-5.217 1.769 0 2.116 1.768 2.116 5.217 0 3.441-.348 5.215-2.116 5.215-1.744 0-2.092-1.773-2.092-5.215zm4.386 7.921h3.827v-21.032h-4.005v6.66h-.058c-.84-1.267-1.856-1.886-3.364-1.886-3.279 0-4.793 2.442-4.793 8.337 0 5.893 1.514 8.336 4.793 8.336 1.566 0 2.667-.615 3.54-2.089h.06v1.674zM741.714 128.754v3.479h-4.532v17.553h-4.175v-17.553h-4.53v-3.479h13.237zM744.671 140.068v-.62c0-1.476.465-3.152 2.061-3.152 1.652 0 1.944 1.356 2.033 3.772h-4.094zm7.923 2.413v-.911c0-4.863-1.045-8.042-5.716-8.042-5.399 0-6.211 3.945-6.211 8.188 0 3.95.232 8.484 6.033 8.484 3.773 0 5.518-2.061 5.66-5.745h-3.596c-.231 1.946-.786 2.977-2.12 2.977-1.481 0-1.974-1.824-1.974-3.68v-1.271h7.924zM762.199 139.653c0-1.526-.29-3.181-1.804-3.181-1.968 0-2.289 1.768-2.289 5.418 0 3.919.348 5.542 2.147 5.542 1.335 0 1.945-1.147 1.945-3.713h3.831c0 4.154-1.711 6.481-5.949 6.481-4.004 0-5.979-1.971-5.979-8.336 0-6.515 2.643-8.337 6.327-8.337 3.688 0 5.602 2.382 5.602 6.125h-3.831zM768.118 128.754h4.007v6.807h.056c.755-1.357 2.12-2.032 3.803-2.032 2.496 0 3.979 1.385 3.979 4.505v11.753h-4.009v-10.929c0-1.594-.521-2.209-1.713-2.209-1.363 0-2.116.856-2.116 2.621v10.517h-4.007v-21.033zM782.63 133.936h3.829v1.861h.056c.843-1.561 2.293-2.269 3.979-2.269 2.495 0 3.975 1.385 3.975 4.505v11.753h-4.002v-10.929c0-1.594-.525-2.209-1.713-2.209-1.367 0-2.12.856-2.12 2.621v10.517h-4.003v-15.85zM800.62 141.865c0-3.242.174-5.569 2.149-5.569 1.624 0 2.141 1.619 2.141 5.569 0 3.944-.517 5.567-2.141 5.567-1.975.001-2.149-2.327-2.149-5.567zm-4.006 0c0 5.505 1.335 8.425 6.155 8.336 4.582 0 6.15-2.918 6.15-8.336 0-5.513-1.335-8.426-6.15-8.337-4.586 0-6.155 2.913-6.155 8.337zM811.212 128.754h4.005v21.032h-4.005v-21.032zM821.512 141.865c0-3.242.174-5.569 2.149-5.569 1.626 0 2.146 1.619 2.146 5.569 0 3.944-.52 5.567-2.146 5.567-1.975.001-2.149-2.327-2.149-5.567zm-4.003 0c0 5.505 1.336 8.425 6.152 8.336 4.587 0 6.148-2.918 6.148-8.336 0-5.513-1.334-8.426-6.148-8.337-4.586 0-6.152 2.913-6.152 8.337zM835.644 142.366c0-4.272.32-5.718 2.09-5.718 1.595 0 2.093 1.445 2.093 5.304 0 2.683-.498 4.54-2.178 4.54-1.685 0-2.005-1.949-2.005-4.126zm4.182-8.43v1.772h-.063c-.756-1.651-2.114-2.18-3.22-2.18-4.354 0-4.906 4.357-4.906 8.073 0 5.802 1.597 8.011 4.789 8.011 1.28 0 2.525-.765 3.337-1.943h.063v2.091c0 1.622-.583 2.859-2.211 2.859-.492 0-.952-.18-1.331-.443-.378-.268-.611-.674-.611-1.208h-3.827c0 2.711 1.915 4.244 5.308 4.244 4.67 0 6.5-2.036 6.5-6.215v-15.062h-3.828zM846.753 151.939c.35.059.692.089 1.047.089 1.48 0 2.029-.827 2.149-2.242l-4.389-15.851h4.182l2.318 10.963h.057l2.033-10.963h4.007l-3.771 14.794c-1.394 5.479-2.29 6.248-6.01 6.248h-1.623v-3.038zM866.917 149.786v-21.032h4.183v21.032h-4.183zM874.087 133.936h3.827v1.861h.063c.84-1.561 2.29-2.269 3.972-2.269 2.501 0 3.98 1.385 3.98 4.505v11.753h-4.01v-10.929c0-1.594-.52-2.209-1.707-2.209-1.365 0-2.12.856-2.12 2.621v10.517h-4.005v-15.85zM889.464 136.707h-2.025v-2.771h2.025v-1.789c0-2.859 1.598-3.804 4.183-3.804.723 0 1.422.027 2.147.086v2.888c-.265-.026-.525-.026-.783-.026-1.132 0-1.544.353-1.544 1.266v1.38h2.327v2.771h-2.327v13.079h-4.003v-13.08zM900.664 141.865c0-3.242.18-5.569 2.149-5.569 1.63 0 2.149 1.619 2.149 5.569 0 3.944-.52 5.567-2.149 5.567-1.969.001-2.149-2.327-2.149-5.567zm-4.003 0c0 5.505 1.338 8.425 6.152 8.336 4.588 0 6.152-2.918 6.152-8.336 0-5.513-1.332-8.426-6.152-8.337-4.587 0-6.152 2.913-6.152 8.337zM911.113 133.936h3.835v2.125h.055c.813-1.529 1.944-2.532 3.598-2.532.229 0 .492.031.728.058v3.888a18.054 18.054 0 0 0-1.251-.059c-1.395 0-2.957.738-2.957 2.86v9.511h-4.007v-15.851zM920.778 133.936h3.827v1.625h.063c1.012-1.444 2.263-2.032 3.944-2.032 1.831 0 3.163.909 3.602 2.532h.053c.611-1.676 2.063-2.532 3.951-2.532 2.64 0 3.885 1.681 3.885 4.739v11.519h-4.005V138.71c0-1.326-.435-2.062-1.563-2.062-1.28 0-2.093.883-2.093 2.711v10.427h-4.002V138.71c0-1.326-.436-2.062-1.567-2.062-1.28 0-2.09.883-2.09 2.711v10.427h-4.005v-15.85zM950.058 144.987c0 1.734-1.393 2.445-2.464 2.445-1.074 0-1.511-1.001-1.511-2.211 0-1.414.635-2.207 2.264-2.562a5.001 5.001 0 0 0 1.711-.795v3.123zm-3.71-6.19v-.437c0-1.239.632-2.064 1.854-2.064 1.33 0 1.855.738 1.855 1.944 0 1.061-.403 1.533-1.598 1.856l-2.263.618c-2.758.767-3.947 1.975-3.947 4.952 0 2.118.988 4.534 3.77 4.534 1.922 0 3.053-.415 3.983-2.061h.055c.117.528.231 1.146.494 1.646h3.825c-.399-.91-.488-1.587-.488-3.064v-8.332c0-2.86-.899-4.861-5.658-4.861-3.019 0-5.49 1.237-5.49 4.888v.381h3.608zM957.6 129.4h4.005v4.535h2.324v2.771h-2.324v8.576c0 1.235.261 1.737 1.42 1.737.322 0 .643-.032.904-.061v2.826c-.869.089-1.685.183-2.615.183-3.13 0-3.714-.972-3.714-4.187v-9.075h-2.029v-2.771h2.029V129.4zM965.466 133.936h4.003v15.851h-4.003v-15.851zm0-5.418h4.003v3.476h-4.003v-3.476zM975.764 141.865c0-3.242.178-5.569 2.155-5.569 1.622 0 2.142 1.619 2.142 5.569 0 3.944-.52 5.567-2.142 5.567-1.978.001-2.155-2.327-2.155-5.567zm-4.005 0c0 5.505 1.338 8.425 6.16 8.336 4.58 0 6.145-2.918 6.145-8.336 0-5.513-1.33-8.426-6.145-8.337-4.588 0-6.16 2.913-6.16 8.337zM986.213 133.936h3.833v1.861h.056c.841-1.561 2.299-2.269 3.977-2.269 2.497 0 3.976 1.385 3.976 4.505v11.753h-4.007v-10.929c0-1.594-.523-2.209-1.711-2.209-1.359 0-2.118.856-2.118 2.621v10.517h-4.005v-15.85z"/></g><g fill="#231815"><path d="M704.361 70.8c3.039 1.44 5.167 2.251 6.585 2.604 1.349.334 2.056.455 2.102.455l-3.444 5.133c-.093-.047-1.097-.263-3.002-.631-1.911-.376-3.923-.962-6.034-1.761-4.963-1.963-8.246-3.93-10.207-5.55-1.938-1.598-2.808-2.648-2.896-2.739-.046.091-.89 1.081-2.727 2.708-1.927 1.704-5.201 3.571-10.307 5.582-2.114.849-4.115 1.442-6 1.792-1.886.356-2.875.552-2.964.599l-3.521-5.133c.136-.047 1.197-.199 3.108-.738 2.032-.575 3.753-1.384 5.377-2.178 3.335-1.631 4.885-2.692 7.203-4.917 2.397-2.303 3.587-6.103 3.587-8.403V55.16h12.552v2.532c0 2.441 1.425 6.439 4.038 8.717 2.624 2.296 3.952 3.156 6.55 4.391zM728.541 71.842c-1.511 2.471-3.2 4.3-5.673 6.265-1.219.968-2.627 1.759-4.077 2.575-1.448.809-2.218 1.263-2.31 1.349l3.327 5.719c.089-.042 2.656-.999 6.657-3.277 2.941-1.669 5.273-3.13 7.336-5.104 1.994-1.91 2.969-3.183 3.058-3.31.087.127.964 1.4 2.892 3.15 2 1.818 4.236 3.401 7.708 5.392 3.302 1.896 6.403 3.107 6.454 3.149l3.263-5.66c-.093-.042-.908-.479-2.445-1.313-1.545-.838-3.672-2.191-6.047-4.404-1.907-1.779-3.363-3.524-4.282-5.719-1.065-2.56-1.369-5.693-1.419-8.363h10.86v-5.588h-33.968v5.588h10.866c-.03 2.915-.332 6.475-2.2 9.551zM405.809 63.476c1.605 1.11 2.921 2.679 3.951 4.705 1.062 2.071 1.6 4.217 1.6 6.44 0 4.195-1.79 7.768-5.362 10.705-3.581 2.999-7.975 4.487-13.194 4.487-5.218 0-9.613-1.489-13.187-4.487-3.535-2.938-5.3-6.51-5.3-10.705 0-2.223.511-4.344 1.539-6.371.987-1.975 2.321-3.568 4.007-4.774h-5.509v-5.668h13.215v-5.634h10.725v5.634h12.983v5.668h-5.468zm-12.943 0c-2.478 0-4.518.994-6.129 2.974-1.483 1.935-2.229 4.23-2.229 6.887 0 2.71.805 5.037 2.414 6.967 1.647 1.933 3.653 2.9 6.002 2.9 2.313 0 4.293-.967 5.945-2.9 1.651-1.93 2.477-4.257 2.477-6.967 0-2.706-.762-5.004-2.294-6.887-1.564-1.979-3.606-2.974-6.128-2.974h.063-.121zm22.405-8.381h10.561v13.929h7.876v6.418h-7.876v22.271h-10.561V55.095zm-31.403 37.924h10.381v16.111h31.903v5.881h-42.284V93.019z"/><path d="M482.003 56.118v11.785c0 7.612-2.915 10.61-2.915 10.61h6.796v5.884H464.44v10.626h17.563v21.69h-10.56v-15.806h-35.855v-5.884h18.292V84.396h-21.62v-5.884h36.275s1.452-4.217 1.452-7.891v-8.207h-34.389v-6.297h46.405zM524.568 75.087c0 13.066-2.479 15.961-2.479 15.961h-10.28s2.475-5.842 2.475-15.776V62.573h-24.879v-5.882h35.164l-.001 18.396zm-18.202 23.281h22.388V55.16h10.557v28.219h7.82v6.412h-7.82v26.945h-10.557v-12.48h-39.73v-5.887h7.514V76.172h9.829v22.196zM577.338 63.476c1.602 1.11 2.919 2.679 3.945 4.705 1.069 2.071 1.6 4.217 1.6 6.44 0 4.195-1.786 7.768-5.362 10.705-3.575 2.999-7.969 4.487-13.187 4.487-5.226 0-9.621-1.489-13.194-4.487-3.527-2.938-5.3-6.51-5.3-10.705 0-2.223.515-4.344 1.543-6.371.987-1.975 2.321-3.568 4.003-4.774h-5.511v-5.668h13.219v-5.634h10.725v5.634h12.987v5.668h-5.468zm-12.944 0c-2.476 0-4.52.994-6.129 2.974-1.489 1.935-2.227 4.23-2.227 6.887 0 2.71.805 5.037 2.408 6.967 1.651 1.933 3.656 2.9 6.01 2.9 2.309 0 4.291-.967 5.939-2.9 1.65-1.93 2.477-4.257 2.477-6.967 0-2.706-.762-5.004-2.293-6.887-1.565-1.979-3.605-2.974-6.123-2.974h.061-.123zm22.405-8.381h10.557v13.26h7.88v7.255h-7.88v13.942h-10.557V55.095zm10.556 61.544h-10.557V98.665h-32.583v-5.881h43.14v23.855zM629.643 62.582h-23.375v-5.88h34.807s.104 2.381-.821 10.792c-2.061 18.708-16.426 30.936-32.082 36.828L604 98.85s25.643-9.816 25.643-33.011v-3.257zm16.456-7.422h10.555v61.558h-10.555V55.16zM660.547 86.92v-5.884h53.611v5.884h-21.432v4.253h17.563v15.08h-35.498v3.301h35.976v5.889H664.42V100.37h35.312v-3.312H664.42v-5.884h17.748V86.92h-21.621zM777.944 56.653h10.557v9h24.757v-9h10.557v31.528h-17.562v11.486h21.43v5.885h-53.611v-5.885h21.619V88.181h-17.746V56.653zm35.314 14.887h-24.757v10.762h24.757V71.54zM873.973 80.875h-10.714v-.968c-1.686 2.301-3.84 4.093-6.473 5.381-2.754 1.382-5.706 2.074-8.865 2.074-5.136 0-9.512-1.636-13.123-4.908-3.614-3.277-5.419-7.204-5.419-11.778 0-4.623 1.805-8.577 5.419-11.85 3.611-3.227 7.987-4.841 13.123-4.841 3.116 0 6.031.655 8.743 1.957 2.667 1.304 4.867 3.084 6.595 5.356v-1.04h10.714v-5.165h10.556v42.636h-10.556V80.875zm-32.012-17.174c-1.595 1.924-2.392 4.287-2.392 7.082 0 2.744.797 5.078 2.392 7.003 1.633 1.979 3.621 2.964 5.95 2.964 2.288 0 4.254-.985 5.886-2.964 1.68-1.97 2.52-4.306 2.52-7.003 0-2.749-.84-5.109-2.52-7.082-1.632-1.923-3.598-2.891-5.886-2.891-2.329 0-4.317.967-5.95 2.891zm24.362 4.804c.126.73.189 1.462.189 2.191 0 .635-.063 1.266-.189 1.897a13.882 13.882 0 0 1-.369 1.97h8.019v-8.1h-8.082c.165.728.307 1.408.432 2.042zm-25.657 24.804h10.371v15.821h33.63v5.881h-44.001V93.309zM937.367 56.653v15.672c0 8.097-2.914 11.621-2.914 11.621h6.796v5.983h-21.54v26.761h-10.557V89.929h-21.557v-5.983h36.302s3.04-5.176 3.04-11.621c0-4.423-.127-9.794-.127-9.794h-35.845v-5.877h46.402zM752.435 73.283h8.02v16.299h10.555V55.16h-10.555v12.235h-8.02zM765.788 92.892c-4.02-3.062-9.537-4.6-16.561-4.6-7.064 0-12.629 1.538-16.696 4.6-3.568 2.793-5.356 6.243-5.356 10.358 0 4.034 1.788 7.418 5.356 10.162 4.067 3.109 9.632 4.667 16.696 4.667 6.98 0 12.496-1.558 16.561-4.667 3.656-2.744 5.488-6.128 5.488-10.162 0-4.115-1.832-7.565-5.488-10.358zm-8.368 16.532c-2.096 1.915-4.83 2.878-8.192 2.878-3.409 0-6.162-.963-8.256-2.878-1.848-1.734-2.77-3.794-2.77-6.174 0-2.463.922-4.566 2.77-6.304 2.094-1.919 4.847-2.882 8.256-2.882 3.407 0 6.137.963 8.192 2.882 1.929 1.738 2.891 3.84 2.891 6.304 0 2.38-.962 4.439-2.891 6.174zM987.499 103.785h10.555V55.138h-10.555v35.631h-10.187v5.883h10.187zM963.831 109.13v-9.982H953.46v15.863H999v-5.881zM949.056 75.726c3.488 2.523 8.218 3.786 14.176 3.786 5.422 0 9.859-1.095 13.316-3.291 3.202-1.968 5.093-4.556 5.67-7.75 0 0 .511-1.732-.146-4.082-.564-2.028-1.639-3.419-1.639-3.419-1.522-2.122-3.68-3.803-6.479-5.051-3.078-1.293-6.653-1.938-10.722-1.938-5.917 0-10.646 1.282-14.176 3.854-3.252 2.429-4.874 5.459-4.874 9.083 0 3.533 1.622 6.47 4.874 8.808zm7.567-13.837c1.77-1.422 3.964-2.134 6.59-2.134 2.588 0 4.766.711 6.532 2.134 1.724 1.38 2.593 3.054 2.593 5.024 0 1.837-.869 3.446-2.593 4.823-1.806 1.467-3.982 2.205-6.532 2.205-2.587 0-4.779-.738-6.59-2.205-1.678-1.377-2.525-2.986-2.525-4.823 0-1.97.847-3.644 2.525-5.024z"/><path d="M958.285 96.607h10.196v-9.306h15.52v-5.883h-38.768v5.883h13.052z"/></g><path fill="#0075C2" d="M167.315 149.786H142.88V86.395h24.436v63.391zM277.118 79.096v70.69h-24.683v-70.69h-19.169V55.138h63.023v23.958h-19.171zM329.227 149.786h-24.445V86.395h24.445v63.391zM170.49 66.817c0 8.557-6.937 15.485-15.492 15.485-8.547 0-15.479-6.928-15.479-15.485 0-8.548 6.933-15.484 15.479-15.484 8.556 0 15.492 6.936 15.492 15.484z"/><path fill="#D80C18" d="M143.938 167.01c48.795-19.517 94.803-45.509 94.803-64.919 0-9.795-6.384-15.585-22.803-17.6-10.618-1.309-22.744-.208-20.598-9.79 2.086-9.322 25.892-18.015 37.926-19.563v-19.23c-32.062 10.989-60.817 25.231-60.817 45.986 0 9.956 5.949 20.355 22.789 21.862 16.207 1.451 19.612 5.905 19.612 12.076.001 12.145-30.356 31.661-70.912 51.178z"/><path fill="#0075C2" d="M332.263 66.817c0 8.557-6.933 15.485-15.484 15.485-8.55 0-15.48-6.928-15.48-15.485 0-8.548 6.931-15.484 15.48-15.484 8.551 0 15.484 6.936 15.484 15.484z"/><g fill="#0075C2"><path d="M19.414 183.073c-9.877-17.965 35.196-58.149 35.196-58.149-42.686 31.175-59.012 55.528-52.065 67.275 8.067 13.635 56.279 11.66 129.145-20.222-58.555 22.772-105.016 24.299-112.276 11.096zM352.934 11.463c-12.971-21.231-83.796-7.581-179.642 42.021C254.298 16.663 326.218 1.361 339.989 20.49c4.529 6.291 2.867 18.65-7.749 34.142 9.183-8.894 27.256-32.421 20.694-43.169z"/></g><path fill="#0075C2" d="M61.447 149.786V55.138h24.445v42.089l20.534-42.089h28.309l-23.001 43.124 23.517 51.524h-27.21L85.893 99.357v50.429H61.447z"/><g fill="#231815"><path d="M156.566 169.744h3.963l1.81 10.967h.056l1.924-10.967h4.308l2.04 10.967h.058l1.861-10.967h3.794l-3.33 15.447h-4.505l-2.039-10.972h-.061l-1.924 10.972h-4.596l-3.359-15.447zM176.783 169.744h3.963l1.806 10.967h.057l1.927-10.967h4.307l2.037 10.967h.058l1.87-10.967h3.789l-3.33 15.447h-4.51l-2.037-10.972h-.06l-1.923 10.972h-4.595l-3.359-15.447zM196.997 169.744h3.961l1.812 10.967h.056l1.924-10.967h4.31l2.036 10.967h.062l1.862-10.967h3.789l-3.329 15.447h-4.507l-2.04-10.972h-.058l-1.922 10.972h-4.596l-3.36-15.447zM221.292 180.711v4.48h-3.789v-4.48h3.789zM228.27 164.688v10.824h.058l3.992-5.769h4.365l-4.45 6.086 5.111 9.361h-4.366l-3.304-6.349-1.406 1.839v4.51h-3.958v-20.503h3.958zM238.667 169.744h3.961v15.447h-3.961v-15.447zm0-5.284h3.961v3.386h-3.961v-3.386zM248.314 180.136v.518c0 1.351.716 2.24 2.066 2.24 1.206 0 2.009-.604 2.009-1.837 0-1.006-.66-1.464-1.434-1.752l-2.787-1.005c-2.182-.776-3.301-2.123-3.301-4.307 0-2.555 1.604-4.654 5.685-4.654 3.59 0 5.284 1.609 5.284 4.396v.631h-3.56c0-1.55-.461-2.325-1.752-2.325-1.008 0-1.868.575-1.868 1.665 0 .747.401 1.38 1.724 1.808l2.387.805c2.494.831 3.411 2.098 3.411 4.423 0 3.242-2.412 4.852-5.742 4.852-4.449 0-5.684-1.952-5.684-4.91v-.546h3.562zM259.024 165.319h3.963v4.425h2.296v2.697h-2.296v8.354c0 1.208.255 1.694 1.407 1.694.316 0 .634-.027.889-.054v2.755c-.862.087-1.665.169-2.588.169-3.098 0-3.671-.944-3.671-4.074v-8.845h-2.013v-2.697h2.013v-4.424zM266.804 169.744h3.966v15.447h-3.966v-15.447zm0-5.284h3.966v3.386h-3.966v-3.386zM277.574 180.711v4.48h-3.79v-4.48h3.79zM280.445 169.744h3.788v2.066h.056c.809-1.493 1.93-2.472 3.563-2.472.229 0 .488.031.72.058v3.792c-.403-.029-.83-.059-1.239-.059-1.374 0-2.926.72-2.926 2.784v9.277h-3.961v-15.446zM293.394 175.716v-.604c0-1.436.459-3.071 2.039-3.071 1.639 0 1.923 1.319 2.009 3.676h-4.048zm7.839 2.354v-.89c0-4.739-1.034-7.842-5.653-7.842-5.346 0-6.15 3.85-6.15 7.983 0 3.848.229 8.27 5.975 8.27 3.731 0 5.455-2.01 5.6-5.599h-3.563c-.229 1.895-.771 2.9-2.098 2.9-1.462 0-1.95-1.781-1.95-3.589v-1.234h7.839zM307.322 180.711v4.48h-3.792v-4.48h3.792zM314.3 164.688v10.824h.056l3.989-5.769h4.367l-4.45 6.086 5.111 9.361h-4.364l-3.304-6.349-1.405 1.839v4.51h-3.964v-20.503h3.964zM324.545 169.744h3.794v2.066h.056c.807-1.493 1.926-2.472 3.566-2.472.226 0 .484.031.714.058v3.792a17.598 17.598 0 0 0-1.233-.059c-1.38 0-2.931.72-2.931 2.784v9.277h-3.966v-15.446z"/></g></svg>