<svg xmlns="http://www.w3.org/2000/svg" xml:space="preserve" width="861.62079" height="200" viewBox="0 0 861.62081 200"><path d="M159.582 487.474h23.01l-17.974-26.876 17.975-26.857h-23.011l-14.612 25.355v-25.355h-19.806v53.733h19.806v-25.361zm62.795-10.76h-16.622v-10.738h31.557c-2-1.504-3.182-3.364-3.182-5.378 0-2.015 1.181-3.86 3.182-5.35h-31.557v-10.774h16.622c-2.02-1.506-3.025-3.348-3.025-5.366 0-2.014 1.004-3.867 3.025-5.367H186.107v53.733h36.27c-2.02-1.512-3.025-3.357-3.025-5.38 0-2.024 1.004-3.862 3.025-5.38m71.366-.665v-42.308h-19.655v42.308h-17.773v11.425h55.216V476.05zm21.323 11.425h19.796v-53.733h-19.796z" style="fill:#005aa1;fill-opacity:1;fill-rule:nonzero;stroke:none;stroke-width:.579217" transform="matrix(1.33333 0 0 -1.33333 -166.886 683.98)"/><path d="M251.439 451.203c9.4 0 17.11 4.193 17.11 9.395 0 5.206-7.71 9.407-17.11 9.407-9.589 0-17.31-4.201-17.31-9.407 0-5.202 7.721-9.395 17.31-9.395m-14.97 21.487c9.419 0 17.135 4.195 17.135 9.404 0 5.198-7.716 9.398-17.135 9.398-9.401 0-17.117-4.2-17.117-9.398 0-5.209 7.716-9.404 17.117-9.404m-14.932 21.496c9.566 0 17.306 4.19 17.306 9.402 0 5.21-7.74 9.397-17.306 9.397-9.412 0-17.122-4.187-17.122-9.397 0-5.213 7.71-9.402 17.122-9.402m14.932-64.475c9.419 0 17.135 4.203 17.135 9.396 0 5.216-7.716 9.417-17.135 9.417-9.401 0-17.117-4.2-17.117-9.417 0-5.193 7.716-9.396 17.117-9.396m-14.932-21.508c9.566 0 17.306 4.213 17.306 9.41 0 5.215-7.74 9.414-17.306 9.414-9.412 0-17.122-4.199-17.122-9.415 0-5.196 7.71-9.409 17.122-9.409" style="fill:#76cbf2;fill-opacity:1;fill-rule:nonzero;stroke:none;stroke-width:.579217" transform="matrix(1.33333 0 0 -1.33333 -166.886 683.98)"/><path d="M554.901 393.505h-1.03c-.545 0-.997-.31-1.214-.774a1.578 1.578 0 0 1-.085-.508v-22.517c0-.701.559-1.258 1.299-1.258h1.03c.53 0 .989.303 1.189.766.072.162.116.342.116.492v22.521c0 .71-.578 1.278-1.305 1.278M635.952 393.505h-1.057c-.504 0-.968-.31-1.175-.774a1.329 1.329 0 0 1-.099-.508v-22.517c0-.701.562-1.258 1.274-1.258h1.057c.515 0 .979.303 1.198.766.062.162.093.322.093.492v22.521a1.28 1.28 0 0 1-1.291 1.278M452.541 382.264c0 1.242 1.094 2.245 2.4 2.245h4.226c1.35 0 2.436-1.003 2.436-2.245v-2.284h-9.062zm6.626 5.779h-4.226c-3.317 0-6.018-2.59-6.018-5.78v-8.05c0-3.188 2.701-5.795 6.018-5.795h4.226c1.47 0 2.87.512 3.934 1.414.82.667 1.426 1.5 1.774 2.419.139.394.09.808-.131 1.143-.242.352-.63.553-1.076.553h-1.14c-.537 0-1.009-.287-1.138-.684a2.54 2.54 0 0 0-2.223-1.326h-4.226c-1.306 0-2.4 1.02-2.4 2.276v2.255h10.85c1.028 0 1.83.78 1.83 1.774v4.022c0 3.189-2.715 5.779-6.054 5.779M475.573 384.51h4.23c.932 0 1.795-.48 2.17-1.175.172-.508.65-.84 1.208-.84h1.116c.431 0 .844.214 1.08.582.228.334.274.765.13 1.107a5.802 5.802 0 0 1-1.764 2.46c-1.06.891-2.463 1.399-3.94 1.399h-4.23c-3.316 0-6.023-2.59-6.023-5.78v-8.05c0-3.188 2.707-5.795 6.023-5.795h4.23c1.467 0 2.851.512 3.935 1.414.81.668 1.41 1.5 1.764 2.419.149.394.103.808-.125 1.143a1.296 1.296 0 0 1-1.08.553h-1.153c-.526 0-1.01-.295-1.125-.684-.42-.8-1.304-1.326-2.217-1.326h-4.23c-1.322 0-2.393 1.02-2.393 2.276v8.05c0 1.243 1.07 2.246 2.394 2.246M499.85 388.042h-6.63v4.186a1.28 1.28 0 0 1-1.29 1.277h-1.04a1.297 1.297 0 0 1-1.296-1.281v-22.517c0-.702.578-1.259 1.297-1.259h1.038c.524 0 .987.302 1.19.766.069.162.101.322.101.493v14.802h6.63c1.341 0 2.426-1.003 2.426-2.246v-12.589c0-.707.56-1.257 1.29-1.257h1.042c.72 0 1.29.55 1.29 1.257v12.59c0 3.189-2.71 5.778-6.047 5.778M520.88 388.06h-8.961c-.719 0-1.287-.544-1.287-1.26v-17.094c0-.7.568-1.258 1.287-1.258h1.04c.738 0 1.286.557 1.286 1.258v14.843h6.636c1.36 0 2.437-.998 2.437-2.285v-12.558c0-.7.561-1.258 1.276-1.258h1.052a1.27 1.27 0 0 1 1.283 1.258v12.558c0 3.206-2.71 5.795-6.048 5.795M534.985 382.264c0 1.242 1.07 2.245 2.389 2.245h4.233c1.325 0 2.427-1.003 2.427-2.245v-8.05c0-1.225-1.102-2.237-2.427-2.237h-4.233c-1.318 0-2.389 1.012-2.389 2.236zm6.622 5.779h-4.233c-3.311 0-6.017-2.59-6.017-5.78v-8.05c0-3.181 2.706-5.765 6.017-5.765h4.233c3.33 0 6.052 2.584 6.052 5.765v8.05c0 3.19-2.721 5.78-6.052 5.78M564.69 382.264c0 1.242 1.059 2.245 2.37 2.245h4.243c1.335 0 2.42-1.003 2.42-2.245v-8.05c0-1.225-1.085-2.237-2.42-2.237h-4.244c-1.31 0-2.37 1.012-2.37 2.236zm6.613 5.779h-4.244c-3.307 0-6.016-2.59-6.016-5.78v-8.05c0-3.181 2.71-5.765 6.016-5.765h4.244c3.331 0 6.039 2.584 6.039 5.765v8.05c0 3.19-2.708 5.78-6.039 5.78M617.72 388.042h-.73a1.872 1.872 0 0 1-1.715-1.13l-5.126-13.338-5.153 13.37a1.841 1.841 0 0 1-1.692 1.098h-.737a1.29 1.29 0 0 1-1.07-.568 1.186 1.186 0 0 1-.14-1.145l6.843-17.763-1.48-3.849a1.274 1.274 0 0 1 .146-1.18 1.248 1.248 0 0 1 1.043-.552h.755c.743 0 1.413.445 1.721 1.154l8.551 22.202a1.17 1.17 0 0 1-.148 1.142 1.252 1.252 0 0 1-1.067.56M652.75 388.06h-8.93c-.722 0-1.299-.544-1.299-1.26v-17.094c0-.7.577-1.258 1.299-1.258h1.034a1.25 1.25 0 0 1 1.276 1.258v14.843h6.62c1.368 0 2.43-.998 2.43-2.285v-12.558c0-.7.57-1.258 1.288-1.258h1.06c.718 0 1.287.557 1.287 1.258v12.558c0 3.206-2.72 5.795-6.064 5.795M735.77 388.06h-1.042c-.725 0-1.303-.544-1.303-1.26v-14.823h-6.606c-1.37 0-2.448.993-2.448 2.272v12.552c0 .715-.546 1.258-1.268 1.258h-1.039c-.722 0-1.298-.543-1.298-1.258v-12.552c0-3.208 2.722-5.8 6.053-5.8h8.95c.712 0 1.293.556 1.293 1.257v17.095c0 .715-.58 1.258-1.292 1.258M761.105 384.51h4.215c1.344 0 2.436-1.004 2.436-2.246v-2.284H758.7v2.284c0 1.242 1.076 2.245 2.404 2.245m8.44-8.041c1.02 0 1.835.78 1.835 1.774v4.022c0 3.189-2.72 5.779-6.06 5.779h-4.215c-3.315 0-6.03-2.59-6.03-5.78v-8.05c0-3.188 2.715-5.796 6.03-5.796h4.215c1.477 0 2.864.513 3.934 1.415.808.668 1.415 1.489 1.776 2.419.14.394.088.808-.139 1.143a1.296 1.296 0 0 1-1.082.553h-1.13c-.543 0-1.022-.287-1.14-.684a2.535 2.535 0 0 0-2.22-1.326h-4.214c-1.328 0-2.404 1.02-2.404 2.276v2.255zM692.48 371.886c-.154.059-.316.1-.486.1l-3.127-.01c-1.322 0-2.403 1.013-2.403 2.237v10.286h5.211c.689 0 1.228.556 1.228 1.273v1.012c0 .511-.292.965-.747 1.161-.15.069-.32.1-.488.1h-5.204v2.273c0 .685-.586 1.265-1.29 1.265h-1.044c-.697 0-1.292-.58-1.292-1.265v-16.105c0-3.182 2.707-5.766 6.03-5.766h3.139c.684 0 1.23.548 1.23 1.26v1.004c0 .524-.29.975-.757 1.175M716.26 371.886c-.15.059-.32.1-.493.1l-3.143-.01c-1.315 0-2.383 1.013-2.383 2.237v10.286h5.205c.695 0 1.23.556 1.23 1.273v1.012c0 .511-.287.965-.744 1.161-.148.069-.321.1-.486.1h-5.205v2.273c0 .685-.597 1.265-1.3 1.265h-1.043c-.7 0-1.287-.58-1.287-1.265v-16.105c0-3.182 2.702-5.766 6.013-5.766h3.16c.675 0 1.213.548 1.213 1.26v1.004c0 .524-.282.975-.738 1.175M751.289 371.886c-.167.059-.323.1-.496.1l-3.13-.01c-1.333 0-2.405 1.013-2.405 2.237v10.286h5.22c.682 0 1.224.556 1.224 1.273v1.012a1.238 1.238 0 0 1-1.24 1.262h-5.204v2.272c0 .685-.59 1.265-1.286 1.265h-1.047c-.697 0-1.287-.58-1.287-1.265v-16.105c0-3.182 2.696-5.766 6.025-5.766h3.13c.7 0 1.25.548 1.25 1.26v1.004c0 .524-.305.975-.754 1.175M700.152 393.505h-1.036c-.52 0-.999-.31-1.193-.774a1.543 1.543 0 0 1-.1-.508v-3.15c0-.705.563-1.26 1.287-1.26h1.042c.524 0 1 .294 1.19.754.082.148.11.325.11.506v3.154c0 .71-.57 1.278-1.3 1.278M700.152 385.516h-1.036c-.52 0-.995-.303-1.193-.777a1.41 1.41 0 0 1-.1-.49v-14.543c0-.701.563-1.258 1.287-1.258h1.042c.524 0 1 .303 1.19.757.082.16.11.33.11.501v14.543c0 .705-.57 1.267-1.3 1.267M447.654 393.395c-.166.064-.319.11-.532.11h-16.738c-.163 0-.33-.046-.485-.11a1.259 1.259 0 0 1-.754-1.168v-1.01a1.25 1.25 0 0 1 1.239-1.26h6.577v-20.25c0-.692.57-1.259 1.257-1.259h1.077c.704 0 1.3.576 1.3 1.259v20.25h6.573c.71 0 1.243.563 1.243 1.26v1.01c0 .522-.293.976-.757 1.168M585.19 382.264c0 1.242 1.08 2.245 2.393 2.245h6.663v-11.356h-6.663c-1.312 0-2.392 1.016-2.392 2.277zm11.375 5.779h-8.982c-3.31 0-6.012-2.59-6.012-5.78v-6.833c0-3.193 2.702-5.8 6.012-5.8h6.663v-.844c0-1.232-1.094-2.25-2.411-2.267h-6.673c-.194 0-.357-.018-.492-.082-.464-.194-.749-.665-.749-1.169v-1.02c0-.712.542-1.263 1.241-1.263h6.65c3.342 0 6.065 2.605 6.065 5.801v17.988c0 .7-.585 1.269-1.312 1.269M672.885 379.98h-4.06c-.592 0-1.199.24-1.68.656-.474.395-.755.938-.784 1.499-.032.623.213 1.216.66 1.67.435.447 1.07.704 1.742.704h7.304a1.24 1.24 0 0 1 1.236 1.257v1.018a1.258 1.258 0 0 1-1.236 1.258h-7.178a6.48 6.48 0 0 1-4.42-1.76c-1.16-1.153-1.766-2.583-1.743-4.132a5.795 5.795 0 0 1 1.827-4.022c1.176-1.074 2.666-1.66 4.21-1.66h4.195c.612 0 1.213-.224 1.675-.614.485-.409.762-.937.785-1.504a2.23 2.23 0 0 0-.652-1.677c-.459-.454-1.082-.696-1.778-.696l-8.224.005c-.69 0-1.233-.558-1.233-1.26v-1.016c0-.513.296-.97.756-1.152.152-.069.312-.106.483-.106h8.218c1.578 0 3.092.576 4.248 1.649 1.118 1.07 1.774 2.502 1.807 3.994.033 1.55-.562 2.991-1.733 4.159-1.17 1.104-2.782 1.73-4.425 1.73M149.763 382.26c0 1.236 1.092 2.248 2.415 2.248h4.221c1.331 0 2.427-1.012 2.427-2.248v-8.042c0-1.243-1.096-2.252-2.427-2.252h-4.22c-1.324 0-2.416 1.01-2.416 2.252zm6.636 5.775h-4.22c-3.327 0-6.03-2.59-6.03-5.775v-8.042c0-3.186 2.703-5.77 6.03-5.77h4.22c3.333 0 6.05 2.584 6.05 5.77v8.042c0 3.185-2.717 5.775-6.05 5.775M184.38 382.26c0 1.236 1.062 2.248 2.383 2.248h4.227c1.343 0 2.446-1.012 2.446-2.248v-2.274h-9.055zm6.61 5.775h-4.227c-3.32 0-6.008-2.59-6.008-5.775v-8.042c0-3.207 2.688-5.804 6.008-5.804h4.227c1.48 0 2.867.5 3.934 1.415a5.662 5.662 0 0 1 1.778 2.422c.141.388.087.808-.125 1.143a1.32 1.32 0 0 1-1.095.556h-1.126c-.546 0-1.008-.296-1.145-.691-.418-.807-1.293-1.32-2.22-1.32h-4.228c-1.321 0-2.382 1.017-2.382 2.28v2.238h10.846c1.025 0 1.821.78 1.821 1.782v4.021c0 3.185-2.705 5.775-6.058 5.775M258.25 393.492h-1.051c-.522 0-.986-.304-1.195-.766a1.308 1.308 0 0 1-.099-.506v-22.507c0-.718.573-1.265 1.294-1.265h1.051c.507 0 .971.294 1.179.764.066.16.093.324.093.5v22.512c0 .707-.555 1.268-1.272 1.268M268.155 382.26c0 1.236 1.083 2.248 2.401 2.248h4.23c1.332 0 2.421-1.012 2.421-2.248v-2.274h-9.052zm6.632 5.775h-4.23c-3.338 0-6.03-2.59-6.03-5.775v-8.042c0-3.207 2.692-5.804 6.03-5.804h4.23c1.456 0 2.852.5 3.93 1.415a5.803 5.803 0 0 1 1.769 2.422c.144.388.1.806-.14 1.152a1.33 1.33 0 0 1-1.076.547h-1.14c-.537 0-1.007-.296-1.142-.691-.414-.807-1.288-1.32-2.201-1.32h-4.23c-1.319 0-2.402 1.017-2.402 2.28v2.238h10.849c1.023 0 1.83.78 1.83 1.782v4.021c0 3.185-2.724 5.775-6.047 5.775M291.078 384.508h4.212c.936 0 1.797-.483 2.173-1.19.166-.491.662-.825 1.22-.825h1.108c.435 0 .84.219 1.078.58a1.2 1.2 0 0 1 .133 1.104 5.582 5.582 0 0 1-1.759 2.456c-1.067.91-2.463 1.401-3.953 1.401h-4.212c-3.33 0-6.04-2.59-6.04-5.774v-8.042c0-3.207 2.71-5.804 6.04-5.804h4.212c1.47 0 2.863.5 3.936 1.415a5.79 5.79 0 0 1 1.776 2.422c.139.399.093.814-.14 1.143-.23.348-.642.556-1.071.556h-1.141c-.534 0-1.021-.296-1.149-.691-.414-.806-1.275-1.32-2.211-1.32h-4.212c-1.333 0-2.4 1.017-2.4 2.28v8.041c0 1.236 1.067 2.248 2.4 2.248M336.696 382.26c0 1.236 1.07 2.248 2.386 2.248h4.225c1.346 0 2.434-1.012 2.434-2.248v-8.042c0-1.243-1.088-2.252-2.434-2.252h-4.225c-1.316 0-2.386 1.01-2.386 2.252zm6.61 5.775h-4.224c-3.316 0-6.024-2.59-6.024-5.775v-8.042c0-3.186 2.708-5.77 6.024-5.77h4.225c3.348 0 6.054 2.584 6.054 5.77v8.042c0 3.185-2.706 5.775-6.054 5.775M363.793 388.063h-8.944c-.727 0-1.291-.559-1.291-1.268v-17.083c0-.717.564-1.264 1.29-1.264h1.041c.73 0 1.283.547 1.283 1.264v14.82h6.621c1.362 0 2.425-.99 2.425-2.272v-12.548c0-.717.58-1.264 1.298-1.264h1.05a1.25 1.25 0 0 1 1.273 1.264v12.548c0 3.204-2.71 5.803-6.046 5.803M389.107 384.508h4.22c.942 0 1.796-.483 2.186-1.183.17-.498.656-.832 1.209-.832h1.109c.447 0 .85.219 1.081.575.229.34.276.768.136 1.109a5.513 5.513 0 0 1-1.782 2.456c-1.034.91-2.441 1.401-3.94 1.401h-4.22c-3.313 0-6.019-2.59-6.019-5.774v-8.042c0-3.207 2.706-5.804 6.02-5.804h4.22c1.464 0 2.876.5 3.939 1.415a5.885 5.885 0 0 1 1.782 2.431c.14.39.093.805-.136 1.134a1.314 1.314 0 0 1-1.081.556h-1.14c-.543 0-1.009-.296-1.144-.691-.41-.806-1.278-1.32-2.22-1.32h-4.22c-1.316 0-2.39 1.017-2.39 2.28v8.041c0 1.236 1.074 2.248 2.39 2.248M135.331 381.463l7.401 10.011c.296.389.346.871.137 1.308-.217.432-.654.71-1.172.71h-1.007a1.918 1.918 0 0 1-1.474-.722l-6.878-9.308c-.193-.28-.547-.44-.933-.44h-2.607v9.201c0 .708-.57 1.269-1.298 1.269h-1.022c-.54 0-1.007-.305-1.205-.766a1.282 1.282 0 0 1-.109-.507v-22.506c0-.717.58-1.265 1.314-1.265h1.022c.53 0 1.001.295 1.19.764.078.16.108.324.108.5v9.784h2.906c.381 0 .749-.178.95-.464l7.348-9.885c.353-.45.868-.7 1.437-.7h1.034c.483 0 .917.25 1.128.663.222.42.2.916-.094 1.338zM177.218 387.942a1.38 1.38 0 0 1-.534.1h-3.634c-3.322 0-6.018-2.59-6.018-5.778v-12.575c0-.681.57-1.23 1.29-1.23h1.026c.728 0 1.302.549 1.302 1.23v12.575c0 1.182.99 2.164 2.22 2.236h3.855a1.25 1.25 0 0 1 1.258 1.264v1.012c0 .513-.31.97-.765 1.166M329.696 387.942c-.17.064-.323.1-.543.1h-3.64c-3.312 0-6.02-2.59-6.02-5.778v-12.575c0-.681.592-1.23 1.307-1.23h1.024c.72 0 1.297.549 1.297 1.23v12.575c0 1.182.995 2.164 2.229 2.236h3.852c.696 0 1.246.555 1.246 1.264v1.012c0 .513-.3.97-.752 1.166M204.152 375.008c0 1.242 1.082 2.25 2.394 2.25h6.664v-5.319h-6.664c-1.312 0-2.394 1.017-2.394 2.28zm6.621 13.026h-6.878a1.34 1.34 0 0 1-.488-.092c-.46-.196-.738-.653-.738-1.166v-1.012c0-.709.53-1.257 1.226-1.257h6.878c1.35 0 2.437-1.01 2.437-2.246v-1.471h-6.664c-3.304 0-6.007-2.601-6.007-5.782v-.79c0-3.206 2.703-5.804 6.007-5.804h8.463c1.03 0 1.826.785 1.826 1.778v12.069c0 3.184-2.716 5.773-6.062 5.773M250.133 393.39a1.18 1.18 0 0 1-.537.102h-14.051a1.79 1.79 0 0 1-1.784-1.782v-21.518c0-.95.755-1.704 1.733-1.744h14.162c.7 0 1.249.548 1.249 1.258v1.018c0 .506-.299.962-.772 1.165a1.194 1.194 0 0 1-.477.098h-12.278v7.708h9.758c.711 0 1.255.563 1.255 1.264v1.012c0 .515-.297.976-.757 1.17-.156.062-.328.099-.498.099h-9.758v6.715h12.278c.7 0 1.249.557 1.249 1.259v1.01c0 .513-.299.971-.772 1.165M314.838 371.884a1.48 1.48 0 0 1-.488.093l-3.147-.011c-1.316 0-2.38 1.01-2.38 2.252V384.5h5.192c.7 0 1.246.555 1.246 1.265v1.01c0 .515-.297.971-.757 1.167-.154.064-.315.1-.489.1h-5.192v2.263c0 .688-.6 1.268-1.307 1.268h-1.04c-.703 0-1.289-.58-1.289-1.268v-16.087c0-3.186 2.7-5.78 6.016-5.78h3.147c.692 0 1.232.558 1.232 1.268v1.003c0 .51-.295.977-.744 1.175M377.086 393.492h-1.03c-.527 0-1.008-.304-1.204-.766a1.313 1.313 0 0 1-.091-.506v-3.153c0-.701.563-1.26 1.295-1.26h1.023a1.3 1.3 0 0 1 1.205.76c.065.165.108.33.108.5v3.157c0 .707-.572 1.268-1.306 1.268M377.086 385.508h-1.03c-.527 0-1.008-.302-1.204-.764a1.361 1.361 0 0 1-.091-.507v-14.525c0-.717.563-1.264 1.295-1.264h1.023c.532 0 1.002.295 1.205.764.065.16.108.324.108.5v14.529c0 .72-.572 1.267-1.306 1.267M412.614 379.986h-4.073c-.589 0-1.178.234-1.68.646-.48.405-.754.941-.776 1.5-.027.63.218 1.22.658 1.676.439.444 1.063.7 1.732.7h7.301c.71 0 1.248.547 1.248 1.257v1.011c0 .504-.295.966-.75 1.162a1.277 1.277 0 0 1-.498.097h-7.147a6.503 6.503 0 0 1-4.438-1.754c-1.164-1.161-1.77-2.582-1.73-4.13.053-1.55.684-2.979 1.829-4.029 1.166-1.072 2.653-1.665 4.185-1.665h4.208c.604 0 1.213-.221 1.682-.607.472-.414.748-.943.772-1.506.031-.631-.205-1.213-.66-1.67-.429-.457-1.075-.709-1.764-.709l-8.22.002c-.69 0-1.232-.547-1.232-1.248v-1.012c0-.508.283-.968.746-1.164a1.13 1.13 0 0 1 .486-.095h8.22c1.579 0 3.086.58 4.246 1.65a5.7 5.7 0 0 1 1.805 4.001c.047 1.557-.557 2.98-1.746 4.15a6.454 6.454 0 0 1-4.404 1.737M769.62 439.576h-22.587v7.093c0 .577-.462 1.044-1.02 1.044h-3.638a1.03 1.03 0 0 1-1.02-1.044v-11.867c0-.587.452-1.059 1.02-1.059h27.245c.559 0 1.011.472 1.011 1.06v3.734c0 .577-.452 1.039-1.01 1.039M756.34 453.098v-3.73c0-.582.442-1.054 1-1.054h7.073v-4.36c0-.577.453-1.049 1.021-1.049h3.637c.569 0 1.02.472 1.02 1.05v40.2c0 .577-.451 1.049-1.02 1.049h-3.637c-.568 0-1.02-.472-1.02-1.05v-30.007h-7.073c-.559 0-1.002-.472-1.002-1.05" style="fill:#005aa1;fill-opacity:1;fill-rule:nonzero;stroke:none;stroke-width:.579217" transform="matrix(1.33333 0 0 -1.33333 -166.886 683.98)"/><path d="M741.355 452.364c0-.582.452-1.049 1.02-1.049h3.638c.558 0 1.02.467 1.02 1.05v5.071h13.964c.558 0 1.02.482 1.02 1.059v3.725c0 .582-.462 1.049-1.02 1.049h-30.669c-.558 0-1.021-.467-1.021-1.05v-3.724c0-.577.463-1.059 1.021-1.059h11.027zM745.762 481.642c3.975 0 6.843-2.281 6.843-5.408 0-3.123-2.868-5.4-6.843-5.4-3.984 0-6.852 2.277-6.852 5.4 0 3.127 2.868 5.408 6.852 5.408m0-16.64c7.141 0 12.54 4.831 12.54 11.232 0 6.41-5.399 11.24-12.54 11.24-7.15 0-12.54-4.83-12.54-11.24 0-6.4 5.39-11.232 12.54-11.232M409.39 478.297h23.472c-.291-2.922-.943-7.206-2.141-10.374-.202-.534.029-1.127.558-1.348l3.095-1.489c.26-.106.664-.047.77 0 .26.107.462.318.568.578 2.102 5.426 2.845 13.161 2.875 16.218v1.585a.663.663 0 0 1-.663.663H409.39c-.567 0-1.02-.472-1.02-1.044v-3.75c0-.572.453-1.039 1.02-1.039M543.816 470.47h-7.468v13.686c0 .577-.453 1.049-1.001 1.049h-3.658c-.557 0-1.02-.472-1.02-1.05v-46.33c0-.568.463-1.049 1.02-1.049h3.658c.548 0 1 .48 1 1.05v26.812h7.47c.567 0 1.02.462 1.02 1.049v3.734c0 .577-.453 1.05-1.02 1.05M517.985 477.101h6.419c.558 0 1.021.467 1.021 1.049v3.735c0 .582-.463 1.058-1.021 1.058h-23.232c-.568 0-1.02-.476-1.02-1.058v-3.735a1.03 1.03 0 0 1 1.02-1.049h7.237l-8.922-23.993a1.142 1.142 0 0 1 .02-.799 1.09 1.09 0 0 1 .577-.567l3.417-1.329c.24-.086.52-.086.76.02.25.115.452.331.549.587l8.362 22.5 7.768-23.04a1.024 1.024 0 0 1 1.3-.64l3.454 1.218c.24.092.452.29.577.53.125.26.135.547.05.813zM492.776 439.576h-21.943v11.595a1.03 1.03 0 0 1-1.02 1.04h-3.638c-.558 0-1.02-.462-1.02-1.04v-16.368c0-.587.462-1.059 1.02-1.059h26.6c.559 0 1.02.472 1.02 1.06v3.733a1.03 1.03 0 0 1-1.02 1.04M480.139 468.27h7.4v-18.973c0-.572.463-1.05 1.02-1.05h3.659c.557 0 1 .478 1 1.05v34.858c0 .578-.443 1.05-1 1.05h-3.658c-.558 0-1.02-.472-1.02-1.05v-10.048h-7.401c-.558 0-1.01-.467-1.01-1.054v-3.724c0-.583.452-1.06 1.01-1.06M473.348 457.462c.125-.25.318-.447.578-.549.25-.087.539-.081.77.034l3.32 1.554c.25.116.452.327.549.587a1.14 1.14 0 0 1-.04.799l-7.681 17.214h5.802a1.03 1.03 0 0 1 1.021 1.049v3.734c0 .583-.452 1.059-1.02 1.059h-22.193c-.569 0-1.03-.476-1.03-1.059v-3.734c0-.582.461-1.049 1.03-1.049h5.986l-8.036-18.138a1.13 1.13 0 0 1-.02-.813c.097-.26.28-.462.53-.587l3.32-1.54a.91.91 0 0 1 .424-.096c.394 0 .76.24.923.616l8.075 18.2zM675.262 439.576H652.7v11.596a1.03 1.03 0 0 1-1.02 1.038h-3.648a1.03 1.03 0 0 1-1.02-1.038v-16.369c0-.587.461-1.059 1.02-1.059h27.229c.558 0 1.02.472 1.02 1.06v3.733a1.03 1.03 0 0 1-1.02 1.04M687.756 478.342h24.537c-.187-4.204-.69-10.024-2.042-13.598-.203-.534.03-1.126.559-1.348l3.358-1.463a1.03 1.03 0 0 1 .386-.082 1.047 1.047 0 0 1 .952.66c2.83 7.305 2.576 20.504 2.576 20.639-.02.568-.482 1.025-1.02 1.025h-29.306c-.568 0-1.021-.472-1.021-1.044v-3.75c0-.572.453-1.039 1.02-1.039M391.3 439.576h-22.585v11.59c0 .578-.462 1.045-1.02 1.045h-3.637a1.03 1.03 0 0 1-1.02-1.045v-16.364c0-.587.452-1.059 1.02-1.059H391.3c.559 0 1.011.472 1.011 1.06v3.734c0 .577-.452 1.039-1.01 1.039M398.426 474.396h-6.65v9.76c0 .577-.452 1.048-1.02 1.048h-3.637c-.568 0-1.02-.471-1.02-1.049v-34.857c0-.578.452-1.05 1.02-1.05h3.637c.568 0 1.02.472 1.02 1.05v19.256h6.65c.558 0 1 .472 1 1.053v3.74c0 .577-.442 1.049-1 1.049M598.835 466.521a.662.662 0 0 1 .883.076l12.38 13.203 12.38-13.203a.663.663 0 0 1 .884-.076l3.545 2.588a.664.664 0 0 1 .077.98l-14.565 15.545a1.033 1.033 0 0 1-.752.326h-3.138a1.03 1.03 0 0 1-.75-.326l-14.566-15.545a.66.66 0 0 1 .077-.98zM642.643 471.144c0 4.051 3.148 7.343 7.026 7.343 3.87 0 7.026-3.292 7.026-7.343 0-4.062-3.156-7.354-7.026-7.354-3.878 0-7.026 3.292-7.026 7.354m19.634 1.693h7.796v-3.84h-7.864a13.478 13.478 0 0 1 .068 3.84m-2.503-9.682h10.299v-13.858c0-.573.462-1.05 1.02-1.05h3.647c.568 0 1.02.477 1.02 1.05v34.859c0 .577-.452 1.049-1.02 1.049h-3.647c-.558 0-1.02-.472-1.02-1.05v-5.48h-9.98c-2.388 3.546-6.276 5.65-10.424 5.65-7.006 0-12.723-5.92-12.723-13.181 0-7.277 5.717-13.196 12.723-13.196 3.927 0 7.7 1.945 10.105 5.207M360.296 467.518c0 3.306 3.08 5.993 6.876 5.993 3.786 0 6.876-2.687 6.876-5.993 0-3.315-3.09-6.001-6.876-6.001-3.796 0-6.876 2.686-6.876 6.001m16.857-7.153c1.612 1.987 2.57 4.466 2.57 7.153 0 2.512-.84 4.844-2.271 6.76-.23.31-.476.607-.733.892h3.233c.577 0 1.049.442 1.049 1v3.813c0 .558-.472 1.02-1.05 1.02h-9.923v5.233c0 .578-.453 1.049-1.02 1.049h-3.638c-.568 0-1.02-.471-1.02-1.05v-5.232h-9.933c-.573 0-1.05-.462-1.05-1.02v-3.812c0-.559.477-1.001 1.05-1.001h3.255c-1.88-2.06-3.027-4.73-3.027-7.652 0-6.51 5.629-11.806 12.527-11.806 3.866 0 7.612 1.734 9.981 4.653M583.312 485.205h-3.658c-.557 0-1.02-.472-1.02-1.05v-46.33c0-.568.463-1.049 1.02-1.049h3.658c.548 0 1.001.481 1.001 1.05v46.33c0 .577-.453 1.049-1.001 1.049M570.063 482.943h-21.734c-.568 0-1.02-.472-1.02-1.045v-3.744c0-.572.452-1.044 1.02-1.044h17.084c.008-13.008-11.86-29.16-11.86-29.16-.285-.628.03-1.125.56-1.347l3.147-1.37s.756-.52 1.653.613c1.241 1.57 12.17 16.469 12.17 33.288v2.764c0 .573-.453 1.045-1.02 1.045M445.435 462.673h-43.858c-.57 0-1.032-.462-1.032-1.032v-3.769c0-.57.462-1.031 1.032-1.031h18.8v-4.726H409.4c-.568 0-1.03-.471-1.03-1.058v-3.735c0-.577.462-1.039 1.03-1.039h23.508v-11.5c0-.577.472-1.039 1.029-1.039h3.63c.557 0 1.019.462 1.019 1.04v16.273c0 .587-.462 1.058-1.02 1.058h-11.505v4.726h19.374c.57 0 1.032.461 1.032 1.031v3.769c0 .57-.462 1.032-1.032 1.032M723.235 457.497H682.05c-.57 0-1.032-.462-1.032-1.032v-3.768c0-.57.462-1.032 1.032-1.032h17.46v-15.409c0-.567.452-1.04 1.01-1.04h3.638c.558 0 1.03.473 1.03 1.04v15.41h18.048c.57 0 1.033.461 1.033 1.03v3.77c0 .57-.463 1.031-1.033 1.031M597.586 434.769c.019-.567.48-1.025 1.02-1.025h27.878c.568 0 1.02.472 1.02 1.044v3.153c0 .573-.452 1.04-1.02 1.04h-23.21v2.681h22.317c.52 0 .925.4.993.907l.027-.021v11.038c-.019.567-.481 1.025-1.02 1.025h-10.658v3.301h17.605c.57 0 1.032.462 1.032 1.032v3.769c0 .57-.462 1.032-1.032 1.032H591.66c-.57 0-1.033-.463-1.033-1.032v-3.769c0-.57.462-1.032 1.033-1.032h17.595v-3.301h-10.649c-.568 0-1.02-.471-1.02-1.044v-3.154c0-.572.452-1.039 1.02-1.039h22.46V446.9h-22.46c-.568 0-1.02-.472-1.02-1.045z" style="fill:#005aa1;fill-opacity:1;fill-rule:nonzero;stroke:none;stroke-width:.579217" transform="matrix(1.33333 0 0 -1.33333 -166.886 683.98)"/></svg>