<svg xmlns="http://www.w3.org/2000/svg" width="1137.8837mm" height="600mm" viewBox="0 0 1137.8837 600"><defs><linearGradient id="a" x1="0" x2="1" y1="0" y2="0" gradientTransform="rotate(90 -92.294 332.305) scale(99.43864)" gradientUnits="userSpaceOnUse" spreadMethod="pad"><stop offset="0" style="stop-opacity:1;stop-color:#0aafde"/><stop offset="1" style="stop-opacity:1;stop-color:#0573ac"/></linearGradient></defs><path d="M454.09 596.388v68.832h5.277c2.25 0 3.39-1.472 3.39-5.312v-63.52ZM409.194 643.268c14.691-9.086 24.007-23.019 24.007-35.99h-22.714v-7.153h28.397c3.676 0 3.805 2.676 3.805 4.758 0 21.405-15.425 38.498-28.409 45.361zM528.186 624.45h-58.02v6.864h28.002v5.343h-18.874v6.703h37.838v2.277c0 1.332-.437 1.692-1.304 1.692h-36.534v10.37c0 2.715.738 4.558 2.258 5.55 1.508 1.008 3.707 1.493 6.558 1.493h33.803c2.363 0 3.387-.852 3.387-2.531v-4.145l-35.8.012c-1.081 0-1.6-.543-1.6-1.633v-2.808h30.615c2.18 0 5.008-.719 6.332-3.09.918-1.61.886-4.445.886-6.277v-4.086c0-2.343-1.207-3.527-3.624-3.527h-15.261v-5.343h22.526c2.492 0 3.574-.907 3.574-2.676v-4.187zM506.951 597.105v-.719h-8.91v.719c0 10.39-13.058 14.94-21.78 16.686l2.625 6.758c7.008-1.063 18.019-3.668 23.608-12.519 5.602 8.851 16.609 11.456 23.609 12.519l2.628-6.758c-8.714-1.746-21.78-6.296-21.78-16.686M328.449 620.32v-23.933h-8.66v68.833h5.293c2.234 0 3.367-1.473 3.367-5.312v-32.225h5.996c2.667 0 3.831-.961 3.831-2.875v-4.488zM300.775 636.707h7.6c2.692-8.914 3.352-20.081 3.352-31.823 0-2.086-.129-4.758-3.8-4.758h-32.64v7.152h27.679c0 6.871.285 19.082-2.191 29.429" style="fill:#0573ac;fill-opacity:1;fill-rule:nonzero;stroke:none;stroke-width:3.90606" transform="matrix(1.2 0 0 1.2 47.756 -199.691)"/><path d="M293.084 644.633v-18.85h-8.495v18.85h-11.632v6.988h38.47c2.543 0 3.645-.902 3.645-2.718v-4.27zM66.884 625.47h-.105v7.1h26.865v8.696H74.766v7.077h37.366v16.878h5.234c2.219 0 3.336-1.437 3.336-5.242l-.031-15.163c0-2.37-1.215-3.55-3.61-3.55h-14.745v-8.695h22.175c2.558 0 3.656-.91 3.656-2.73v-4.372zM110.84 621.926h8.04c1.573-2.926 2.495-12.566 2.495-17.367 0-2.081-.137-4.769-3.812-4.769H74.846v7.152h37.557c0 4.187-.645 11.086-1.563 14.984M156.279 605.047v-8.66h-8.593v8.66h-11.66v6.987h28.39c2.687 0 3.839-.96 3.839-2.882v-4.121zM187.436 596.388v21.64h-6.047v-21.64h-8.355v68.832h4.977c2.234 0 3.378-1.472 3.378-5.312v-34.905h6.047v40.217h4.969c2.246 0 3.37-1.472 3.37-5.312v-63.52ZM152.188 641.937c-3.684 0-6.656-3.961-6.656-9.61 0-5.644 2.972-9.612 6.656-9.612 3.675 0 6.648 3.968 6.648 9.613 0 5.648-2.973 9.609-6.648 9.609m0-26.398c-8.027 0-14.546 7.012-14.546 16.894 0 9.886 6.519 16.91 14.546 16.91s14.534-7.024 14.534-16.91c0-9.882-6.507-16.894-14.534-16.894M263.985 610.642c2.68 0 3.836-.957 3.836-2.867v-4.12h-9.995v-7.266h-8.676v40.319h5.285c2.25 0 3.39-1.473 3.39-5.324v-7.258h6.16c2.68 0 3.836-.973 3.836-2.87v-4.13h-9.995v-6.484zM235.756 659.468c-7.964 0-12.96-3.543-12.96-8.058 0-4.5 4.996-8.05 12.96-8.05 7.95 0 12.96 3.55 12.96 8.05 0 4.515-5.01 8.058-12.96 8.058m0-23.05c-13.214 0-21.635 6.707-21.635 14.992 0 8.289 8.421 15 21.635 15 13.203 0 21.628-6.711 21.628-15 0-8.285-8.425-14.992-21.628-14.992M213.295 615.063c0-5.68 3.808-10.136 9.327-10.136 5.531 0 9.32 4.457 9.32 10.136 0 5.672-3.789 10.129-9.32 10.129-5.519 0-9.327-4.457-9.327-10.129m27.287-.011c0-9.434-7.445-17.078-17.96-17.078-10.503 0-17.948 7.644-17.948 17.078 0 9.433 7.445 17.085 17.948 17.085 10.515 0 17.96-7.652 17.96-17.085M585.467 596.388v40.365h-11.398v6.91h11.398v3.874h5.289c2.246 0 3.37-1.468 3.37-5.323v-45.826Z" style="fill:#0573ac;fill-opacity:1;fill-rule:nonzero;stroke:none;stroke-width:3.90606" transform="matrix(1.2 0 0 1.2 47.756 -199.691)"/><path d="M538.333 626.625v6.851h16.944v9.57h5.273c2.254 0 3.387-1.367 3.387-4.074v-5.496h13.738c2.492 0 3.57-.878 3.57-2.663v-4.188zM560.205 657.153c-1.562 0-2.379-.73-2.379-2.219v-8.406h-8.593v10.625c0 2.601.73 4.433 2.156 5.495 1.426 1.043 3.578 1.551 6.437 1.551h34.116c2.5 0 3.582-.89 3.582-2.672v-4.374zM559.587 616.753c-5.304 0-9.027-3.078-9.027-6.886 0-3.813 3.723-6.906 9.027-6.906 5.316 0 9.035 3.093 9.035 6.906 0 3.808-3.719 6.886-9.035 6.886m-.105-20.667c-10.199 0-17.44 6.168-17.44 13.78 0 7.594 7.241 13.762 17.44 13.762 10.195 0 17.429-6.168 17.429-13.761 0-7.613-7.234-13.78-17.43-13.78M391.455 640.041h-39.314v7.047h34.4v18.131h5.219c2.187 0 3.304-1.421 3.304-5.187v-16.48c0-2.343-1.214-3.511-3.609-3.511M395.065 611.26v-14.874h-8.66v40.322h5.282c2.238 0 3.378-1.472 3.378-5.328v-13.12h6.215c2.55 0 3.656-.914 3.656-2.73v-4.27zM361.807 627.773c-4.96 0-8.441-3.476-8.441-7.742 0-4.28 3.48-7.757 8.44-7.757 4.966 0 8.442 3.476 8.442 7.757 0 4.266-3.476 7.742-8.441 7.742m-.098-22.475c-9.542 0-16.307 6.652-16.307 14.835 0 8.195 6.765 14.827 16.307 14.827 9.535 0 16.292-6.632 16.292-14.827 0-8.183-6.757-14.835-16.292-14.835" style="fill:#0573ac;fill-opacity:1;fill-rule:nonzero;stroke:none;stroke-width:3.90606" transform="matrix(1.2 0 0 1.2 47.756 -199.691)"/><path d="M376.966 608.746c2.687 0 3.847-.925 3.847-2.73v-3.898h-14.73v-5.73h-8.616v5.73h-14.113v6.652zM54.021 612.775v-16.386h-8.663v49.536h5.285c2.238 0 3.378-1.468 3.378-5.32v-20.854h6.024c2.683 0 3.843-.95 3.843-2.86v-4.116zM20.56 657.153c-1.566 0-2.37-.73-2.37-2.219v-11.007H9.595v13.226c0 2.601.711 4.433 2.145 5.495 1.43 1.043 3.578 1.551 6.448 1.551h34.104c2.508 0 3.582-.89 3.582-2.672v-4.374zM19.588 629.75c-4.883 0-8.312-4.06-8.312-9.082 0-5.024 3.43-9.098 8.312-9.098 4.886 0 8.308 4.074 8.308 9.098 0 5.023-3.422 9.081-8.308 9.081m0-23.979c-9.535 0-16.292 6.968-16.292 15.57 0 8.597 6.757 15.561 16.292 15.561 9.542 0 16.292-6.964 16.292-15.561 0-8.602-6.75-15.57-16.292-15.57" style="fill:#0573ac;fill-opacity:1;fill-rule:nonzero;stroke:none;stroke-width:3.90606" transform="matrix(1.2 0 0 1.2 47.756 -199.691)"/><path d="M34.852 609.383c2.675 0 3.843-.96 3.843-2.867v-4.074H23.97v-6.054h-8.616v6.054H1.243v6.965z" style="fill:#0573ac;fill-opacity:1;fill-rule:nonzero;stroke:none;stroke-width:3.90606" transform="matrix(1.2 0 0 1.2 47.756 -199.691)"/><path d="M665.345 391.117H446.254c-18.187 0-45.955 3.851-60.076 24.846-15.311 22.812-6.984 53.142 32.522 65.259 0 0 33.409 10.078 46.541 15.218 9.441 3.75 14.988 10.425 11.546 20.804-3.996 12.023-23.276 11.726-37.115 11.726h-20.898c-26.522 0-44.255 24.971-43.908 31.764.11 1.804 1.145 1.523 2.637 1.523h69.587c23.994 0 57.325-1.941 69.297-25.393 9.93-19.491 8.039-46.006-38.889-60.595-19.132-5.98-29.862-9.929-42.994-14.765-11.109-4.054-16.26-12.187-14.077-19.753 4.437-15.565 27.916-16.768 37.01-16.768h96.722v134.665c0 1.71 1.109 2.61 2.675 2.61h31.835c4.046 0 6.87-2.794 6.87-6.907V424.983l36.686.023c21.57 0 36.268-24.03 35.81-32.33-.077-1.848-1.144-1.559-2.69-1.559M173.162 391.102H145.21c-3.894.14-6.507 2.836-6.507 6.78v142.959c0 7.827-2.063 10.89-17.5 5.636-17.64-6.043-74.789-37.611-91.413-78.008 22.19-28.46 49.545-46.74 84.45-65.239 13.506-7.183 9.577-12.054 4.343-12.054h-36.89c-7.686 0-14.838-.164-23.42 5.023-19.593 11.836-47.255 43.35-57.04 62.689v-60.97c0-4.039-2.766-6.816-6.832-6.816h-27.338c-4.055 0-6.86 2.777-6.86 6.816v157.527c0 4.051 2.805 6.813 6.86 6.813H-5.6c4.066 0 6.832-2.762 6.832-6.813v-73.144c4.472 11.835 13.206 27.69 23.975 42.755 23.003 32.194 47.654 37.202 69.548 37.202h68.149c14.585 0 16.827-8.176 16.827-21.355v-143.02c0-3.934-2.66-6.64-6.57-6.781" style="fill:#0aafde;fill-opacity:1;fill-rule:nonzero;stroke:none;stroke-width:3.90606" transform="matrix(1.2 0 0 1.2 47.756 -199.691)"/><path d="M884.925 452.489c-29.482-85.617-128.736-54.19-189.678-122.022-30.573-34.072-40.455-60.212-43.658-72.883v-.059c-1.05-4.269-1.578-2.199-1.484.727 1.05 22.432 9.741 53.33 26.584 85.523 4.66 8.71 7.934 17.218 10.644 25.675 15.773 49.673 12.074 101.3-7.273 143.212 25.972-30.108 40.135-68.657 49.045-96.812 41.943 42.756 101.218 77.082 179.335 82.246-10.511-6.722-17.788-29.061-23.515-45.607" style="fill:#0573ac;fill-opacity:1;fill-rule:nonzero;stroke:none;stroke-width:3.90606" transform="matrix(1.2 0 0 1.2 47.756 -199.691)"/><path d="M825.944 168.117c-3.7 9.769-6.586 18.14-19.882 32.81-22.792 25.046-47.978 37.643-69.626 68.724-18.82 26.999-16.675 56.751-16.64 65.247 1.348-8.336.657-34.034 20.968-63.821 9.336-13.586 23.577-27.425 35.705-38.268 16.918-15.128 24.155-22.01 33.776-33.21 2.852-3.323 7.226-9.132 9.004-12.487-.73 2.336-3.364 6.945-6 10.921-9.84 14.765-16.921 22.554-32.76 38.815-12.586 12.937-25.534 26.28-33.702 38.084-9.144 13.19-19.733 31.28-23.643 63.075 4.226-18.476 12.132-40.787 27.498-60.958 7.856-10.324 21.882-25.76 31.956-36.486 15.698-16.68 28.14-32.483 35.01-45.62 4.183-7.948 6.258-14.73 6.258-14.73s-1.309 6.458-4.184 13.309c-5.457 12.847-16.523 30.944-33.682 52.099-9.656 11.87-19.386 23.647-29.065 35.455-11.894 14.476-25.409 40.326-30.444 59.99 1.324-2.93 11.238-30.952 33.682-57.224 10.004-11.687 20.55-24.339 28.932-35.077 15.992-20.55 26.831-38.326 32.823-55.544 3.594-10.175 4.305-17.847 4.305-17.847s-.383 8.844-3.133 17.847c-3.691 12.058-9 30.92-30.19 61.126-6.89 9.824-16.163 21.097-26.264 33.31-17.73 21.527-31.788 45.678-36.842 55.967 4.91-7.257 18.768-28.768 40.267-53.525 7.66-8.769 17.804-20.874 25.589-32.06 18.132-26.062 25.659-47.67 29.19-63.248 1.73-7.577 1.984-9.128 2.656-12.82-.02 4.102-.621 8.32-1.344 13.957-3.605 27.737-17.936 58.29-29.104 72.891-30.338 39.611-44.54 53.037-63.165 77.012 17.097-18.26 49.654-47.873 70.626-79.703 10.581-16.007 19.405-40.03 22.842-64.958.836-6.039 1.164-7.187 1.563-13.804a135.25 135.25 0 0 1-.586 20.272c-1.945 18.39-6.289 41.58-17.237 62.2-8.477 16.031-29.425 41.58-72.567 77.731 21.952-16.55 56.872-40.627 75.437-74.164 10.078-18.206 14.46-40.178 15.75-55.837.675-7.676 1.297-22.187 1.297-22.187.96 8.691 1.07 20.405.87 31.225-.343 19.214-4.382 37.194-11.714 50.982-7.69 14.449-27.373 42.834-77.203 71.72 55.868-28.956 73.547-53.096 81.988-70.025 6.332-12.683 10.183-29.428 10.453-50.052.367-28.01-5.363-56.677-6.488-60.462-.637-2.168-1.8-3.691-2.98-.652" style="fill:#0aafde;fill-opacity:1;fill-rule:nonzero;stroke:none;stroke-width:3.90606" transform="matrix(1.2 0 0 1.2 47.756 -199.691)"/><path d="M196.955 457.5c-2.457 14.57.11 30.701 6.71 42.146 10.566 18.32 31.343 31.706 55.525 31.706 4.238 0 8.859-.239 12.48-1.39 5.652-1.817 5.804-4.641 1.457-5.505-21.452-4.238-45.166-24.905-38.834-59.497 4.238-23.35 25.557-40.998 49.693-41.275v-38.643c-43.315 0-79.918 30.448-87.031 72.458" style="fill:url(#a);stroke:none;stroke-width:3.90606" transform="matrix(1.2 0 0 1.2 47.756 -199.691)"/><path d="M302.499 386.936a91.846 91.846 0 0 0-18.515-1.894c-.476 0-.937.023-1.41.027v38.65c.668-.023 1.324-.046 1.988-.046 3.383 0 6.71.37 10.043 1.043 28.03 5.914 44.689 30.862 40.521 60.684-1.11 7.902-4.277 17.066-8.206 24.3-15.691 28.83-48.943 41.514-95.777 27.424-8.144-2.417-4.762 2.63-.832 6.668 3.328 3.39 13.75 13.18 33.155 17.76 5.913 1.403 14.604 2.481 20.678 2.481 42.123 0 78.938-29.881 87.488-71.012 10.09-48.427-20.936-96.027-69.133-106.085" style="fill:#0aafde;fill-opacity:1;fill-rule:nonzero;stroke:none;stroke-width:3.90606" transform="matrix(1.2 0 0 1.2 47.756 -199.691)"/></svg>