<svg xmlns="http://www.w3.org/2000/svg" width="1591.1292mm" height="200mm" viewBox="0 0 1591.1292 200"><path d="M-85.701 207.055h6.59v10.13h.07l7.416-10.13h7.938l-9.144 11.539 9.852 13.209h-8.402l-7.66-11.26h-.07v11.26h-6.59zM-51.715 219.391c0 7.867 4.301 12.84 12.377 12.84 8.086 0 12.394-4.973 12.394-12.84 0-7.86-4.236-12.769-12.394-12.769-8.153 0-12.377 4.908-12.377 12.77m6.797 0c0-4.267 1.587-7.826 5.58-7.826 4.004 0 5.597 3.559 5.597 7.825 0 4.136-1.593 7.903-5.597 7.903-3.993 0-5.58-3.767-5.58-7.903M-10.389 231.803h6.584v-9.816h1.39c2.43 0 3.28 1.099 4.623 5.306l1.438 4.51h6.863l-2.43-6.72c-1.224-3.06-1.373-4.932-3.482-5.503v-.06c3.173-.706 4.723-2.91 4.723-6.25 0-4.201-3.57-6.215-7.956-6.215h-11.753Zm6.584-20.042h1.735c2.513 0 4.813.404 4.813 2.685 0 2.852-2.692 2.906-4.813 2.906h-1.735zM26.267 207.055h17.416v4.706H32.856v5.104h10.226v4.623H32.856v5.603H44.07v4.712H26.267ZM59.11 231.803h6.684l1.95-5.324h9.274l1.83 5.324h7.244l-9.52-24.748h-8.086zm16.352-10.012H69.27l3.185-9.626h.071zM127.592 207.055h6.578v9.5h7.778v-9.5h6.608v24.748h-6.608v-10.63h-7.778v10.63h-6.578zM172.68 222.472l-9.116-15.42h7.558l4.86 9.942 4.766-9.941h7.588l-9.073 15.42v9.328h-6.584zM203.311 231.803h9.026c8.402 0 14.617-3.262 14.617-12.502 0-9.519-6.043-12.246-14.617-12.246h-9.026zm6.596-19.834h2.56c4.808 0 7.678 2.507 7.678 7.421 0 4.985-2.77 7.48-7.677 7.48h-2.561zM243.738 231.803h6.59v-9.816h1.384c2.443 0 3.292 1.099 4.635 5.306l1.414 4.51h6.875l-2.418-6.72c-1.236-3.06-1.36-4.932-3.5-5.503v-.06c3.19-.706 4.754-2.91 4.754-6.25 0-4.201-3.572-6.215-7.963-6.215h-11.77zm6.59-20.042h1.73c2.518 0 4.836.404 4.836 2.685 0 2.852-2.698 2.906-4.837 2.906h-1.729zM278.908 219.391c0 7.867 4.332 12.84 12.395 12.84 8.093 0 12.418-4.973 12.418-12.84 0-7.86-4.248-12.769-12.418-12.769-8.129 0-12.395 4.908-12.395 12.77m6.815 0c0-4.267 1.599-7.826 5.58-7.826 4.028 0 5.597 3.559 5.597 7.825 0 4.136-1.569 7.903-5.597 7.903-3.981 0-5.58-3.767-5.58-7.903M353.106 212.852c0-1.195 1.106-2.145 2.62-2.145 1.522 0 2.758.742 2.758 2.145 0 1.622-1.8 2.632-3.019 3.369-.974-.797-2.359-1.979-2.359-3.37m11.694 5.598c-.083 1.563-.499 3.19-1.646 4.456a71.939 71.939 0 0 0-4.242-3.915c2.632-1.516 5.318-3.132 5.318-6.275 0-4.611-4.267-6.096-8.569-6.096-3.903 0-8.23 1.562-8.23 5.918 0 2.157 1 3.898 2.984 5.466-3.043 1.36-4.855 3.239-4.855 6.72 0 5.087 4.64 7.511 9.353 7.511 2.697 0 5.55-.463 7.689-2.311.51.576.986 1.206 1.497 1.877h7.041l-4.42-4.931c2.329-2.223 3.671-5.313 3.826-8.42zm-13.209 6.138c0-1.789.844-2.698 2.223-3.452 1.883 1.77 3.731 3.547 5.484 5.454-1.224.921-2.258 1.35-3.743 1.35-1.985 0-3.964-1.272-3.964-3.352M412.886 207.055h8.39l8.348 16.827h.065l-.095-16.827h6.014v24.748h-8.188l-8.628-16.94h-.071l.214 16.94h-6.05zM474.684 222.39c0 6.757-4.403 9.84-10.844 9.84-6.447 0-10.844-3.083-10.844-9.84v-15.335h6.59v14.213c0 3.315.89 6.025 4.254 6.025 3.369 0 4.254-2.71 4.254-6.025v-14.213h6.59zM511.826 231.246c-1.854.457-3.94.986-7.308.986-6.59 0-14.213-3.375-14.213-12.715 0-8.569 6.019-12.9 14.171-12.9 2.508 0 4.967.57 7.315 1.265l-.53 5.372c-2.12-1.147-4.17-1.694-6.452-1.694-4.653 0-7.713 3.34-7.713 7.957 0 4.896 3.446 7.778 8.254 7.778 2.156 0 4.36-.559 6.18-1.254zM527.882 207.055h6.566v19.816h10.238v4.932h-16.804zM560.435 207.055h17.434v4.706H567.03v5.104h10.22v4.623h-10.22v5.603h11.23v4.712h-17.826zM593.29 231.803h6.69l1.937-5.324h9.27l1.872 5.324h7.19l-9.508-24.748h-8.075zm16.358-10.012h-6.221l3.196-9.626h.096zM635.701 231.803h6.584v-9.816h1.39c2.437 0 3.292 1.099 4.647 5.306l1.408 4.51h6.887l-2.436-6.72c-1.23-3.06-1.385-4.932-3.506-5.503v-.06c3.209-.706 4.765-2.91 4.765-6.25 0-4.201-3.588-6.215-7.968-6.215h-11.77Zm6.584-20.042h1.741c2.508 0 4.825.404 4.825 2.685 0 2.852-2.698 2.906-4.825 2.906h-1.741zM698.074 231.803h6.566v-8.634h2.561c6.162 0 9.798-3.018 9.798-8.004 0-5.526-3.517-8.11-11.058-8.11h-7.867zm6.566-20.042h1.711c2.276 0 4.07.778 4.07 3.28 0 2.632-1.794 3.446-4.07 3.446h-1.71zM732.182 219.391c0 7.867 4.32 12.84 12.395 12.84s12.389-4.973 12.389-12.84c0-7.86-4.255-12.769-12.39-12.769-8.151 0-12.394 4.908-12.394 12.77m6.792 0c0-4.267 1.592-7.826 5.603-7.826 3.987 0 5.591 3.559 5.591 7.825 0 4.136-1.604 7.903-5.591 7.903-4.011 0-5.603-3.767-5.603-7.903M770.926 207.055h6.726l3.197 18.984h.06l3.333-18.984h8.36l3.488 18.984h.066l3.202-18.984h6.412l-5.509 24.748h-8.46l-3.495-19.026h-.089l-3.268 19.026h-8.526zM821.223 207.055h17.422v4.706h-10.838v5.104h10.238v4.623h-10.238v5.603h11.236v4.712h-17.82zM855.918 231.803h6.571v-9.816h1.39c2.437 0 3.275 1.099 4.618 5.306l1.426 4.51h6.88l-2.418-6.72c-1.248-3.06-1.373-4.932-3.488-5.503v-.06c3.173-.706 4.718-2.91 4.718-6.25 0-4.201-3.577-6.215-7.974-6.215h-11.723zm6.571-20.042h1.741c2.508 0 4.801.404 4.801 2.685 0 2.852-2.68 2.906-4.8 2.906h-1.742zM939.22 231.246c-1.883.457-3.969.986-7.32.986-6.602 0-14.22-3.375-14.22-12.715 0-8.569 6.044-12.9 14.166-12.9 2.543 0 4.962.57 7.35 1.265l-.54 5.372c-2.127-1.147-4.171-1.694-6.441-1.694-4.683 0-7.725 3.34-7.725 7.957 0 4.896 3.447 7.778 8.26 7.778 2.156 0 4.355-.559 6.15-1.254zM954.36 219.391c0 7.867 4.302 12.84 12.389 12.84 8.08 0 12.394-4.973 12.394-12.84 0-7.86-4.26-12.769-12.394-12.769-8.147 0-12.39 4.908-12.39 12.77m6.792 0c0-4.267 1.599-7.826 5.598-7.826 4.01 0 5.603 3.559 5.603 7.825 0 4.136-1.593 7.903-5.603 7.903-4 0-5.598-3.767-5.598-7.903" style="fill:#254aa5;fill-opacity:1;fill-rule:nonzero;stroke:none;stroke-width:5.94191" transform="translate(450.456 -52.9)"/><path d="M990.506 226.04h5.942v5.764h-5.942z" style="fill:#254aa5;fill-opacity:1;fill-rule:nonzero;stroke:none;stroke-width:5.9419" transform="translate(450.456 -52.9)"/><path d="M1010.349 226.04h5.93l-3.464 9.573h-4.843zM1055.534 207.055h6.572v19.816h10.208v4.932h-16.78zM1088.575 211.97h-6.096v-4.915h18.782v4.914h-6.079v19.834h-6.607zM1117.049 231.803h9.002c8.431 0 14.623-3.262 14.623-12.502 0-9.519-6.002-12.246-14.623-12.246h-9.002zm6.595-19.834h2.537c4.82 0 7.69 2.507 7.69 7.421 0 4.985-2.77 7.48-7.69 7.48h-2.537z" style="fill:#254aa5;fill-opacity:1;fill-rule:nonzero;stroke:none;stroke-width:5.94191" transform="translate(450.456 -52.9)"/><path d="M1140.076 186.48h-6.863V75.853h6.863zM976.323 186.48h-6.857V75.853h6.857z" style="fill:#254aa5;fill-opacity:1;fill-rule:nonzero;stroke:none;stroke-width:5.9419" transform="translate(450.456 -52.9)"/><path d="M130.523 146.341a10.925 10.925 0 0 0 10.933-10.939c0-6.072-4.89-10.974-10.933-10.974-6.037 0-10.945 4.902-10.945 10.974 0 6.055 4.908 10.94 10.945 10.94" style="fill:#254aa5;fill-opacity:1;fill-rule:nonzero;stroke:none;stroke-width:5.94191" transform="translate(450.456 -52.9)"/><path d="M196.732 111.7H64.252v16.573h132.48Z" style="fill:#254aa5;fill-opacity:1;fill-rule:nonzero;stroke:none;stroke-width:5.9419" transform="translate(450.456 -52.9)"/><path d="M42.943 122.15c6.334 0 11.462-5.146 11.462-11.492 0-6.298-5.128-11.402-11.462-11.402-6.328 0-11.45 5.104-11.45 11.402 0 6.346 5.122 11.492 11.45 11.492" style="fill:#254aa5;fill-opacity:1;fill-rule:nonzero;stroke:none;stroke-width:5.94191" transform="translate(450.456 -52.9)"/><path d="M-3.083 89.335h-88.279v16.62h88.28z" style="fill:#254aa5;fill-opacity:1;fill-rule:nonzero;stroke:none;stroke-width:5.9419" transform="translate(450.456 -52.9)"/><path d="M-36.292 80.185c0-6.072-4.908-10.986-10.95-10.986-6.038 0-10.916 4.914-10.916 10.986 0 6.037 4.878 10.963 10.915 10.963 6.043 0 10.951-4.926 10.951-10.963M-47.247 132.659c6.821 0 12.36-5.508 12.36-12.335 0-6.828-5.539-12.36-12.36-12.36-6.815 0-12.36 5.532-12.36 12.36 0 6.827 5.545 12.335 12.36 12.335m-32.288-12.353c0-16.08 14.486-29.033 32.288-29.033 17.855 0 32.312 12.954 32.312 29.033 0 15.995-14.457 29.062-32.312 29.062-17.802 0-32.288-13.067-32.288-29.062" style="fill:#254aa5;fill-opacity:1;fill-rule:nonzero;stroke:none;stroke-width:5.94191" transform="translate(450.456 -52.9)"/><path d="M784.078 77.725h-20.113v107.78h20.113z" style="fill:#254aa5;fill-opacity:1;fill-rule:nonzero;stroke:none;stroke-width:5.9419" transform="translate(450.456 -52.9)"/><path d="M793.145 120.461c6.316 0 11.474-5.17 11.474-11.515 0-6.328-5.158-11.426-11.474-11.426s-11.462 5.098-11.462 11.426c0 6.346 5.146 11.515 11.462 11.515" style="fill:#254aa5;fill-opacity:1;fill-rule:nonzero;stroke:none;stroke-width:5.94191" transform="translate(450.456 -52.9)"/><path d="M471.967 145.094H367.61v16.632h104.358z" style="fill:#254aa5;fill-opacity:1;fill-rule:nonzero;stroke:none;stroke-width:5.9419" transform="translate(450.456 -52.9)"/><path d="M468.955 77.725h20.095v107.78h-20.095z" style="fill:#254aa5;fill-opacity:1;fill-rule:nonzero;stroke:none;stroke-width:5.9419" transform="translate(450.456 -52.9)"/><path d="M460.56 108.334c-6.06 0-10.933-4.896-10.933-10.915 0-6.025 4.872-10.904 10.933-10.904 6.025 0 10.91 4.879 10.91 10.904 0 6.019-4.885 10.915-10.91 10.915M460.56 134.969c-6.06 0-10.933-4.926-10.933-11.005 0-6.019 4.872-10.868 10.933-10.868 6.025 0 10.91 4.849 10.91 10.868 0 6.079-4.885 11.005-10.91 11.005M381.934 123.526v-5.467h59.859l-.018-21.123c0-8.592-7.427-15.556-16.59-15.556h-63.358v15.633h59.847v5.472h-59.847v21.118c.03 8.628 7.463 15.574 16.637 15.574h63.33v-15.651z" style="fill:#254aa5;fill-opacity:1;fill-rule:nonzero;stroke:none;stroke-width:5.94191" transform="translate(450.456 -52.9)"/><path d="M930.279 145.094H825.897v16.632H930.28z" style="fill:#254aa5;fill-opacity:1;fill-rule:nonzero;stroke:none;stroke-width:5.9419" transform="translate(450.456 -52.9)"/><path d="M927.243 77.725h20.09v107.78h-20.09z" style="fill:#254aa5;fill-opacity:1;fill-rule:nonzero;stroke:none;stroke-width:5.9419" transform="translate(450.456 -52.9)"/><path d="M918.847 108.334c-6.043 0-10.933-4.896-10.933-10.915 0-6.025 4.89-10.904 10.933-10.904 6.025 0 10.915 4.879 10.915 10.904 0 6.019-4.89 10.915-10.915 10.915M918.847 134.969c-6.043 0-10.933-4.926-10.933-11.005 0-6.019 4.89-10.868 10.933-10.868 6.025 0 10.915 4.849 10.915 10.868 0 6.079-4.89 11.005-10.915 11.005M840.239 123.526v-5.467h59.847V96.936c0-8.592-7.422-15.556-16.608-15.556h-63.353v15.633h59.853v5.472h-59.853v21.118c.018 8.628 7.475 15.574 16.644 15.574h63.317v-15.651z" style="fill:#254aa5;fill-opacity:1;fill-rule:nonzero;stroke:none;stroke-width:5.94191" transform="translate(450.456 -52.9)"/><path d="M1044.69 149.604h20.137v35.776h-20.137z" style="fill:#254aa5;fill-opacity:1;fill-rule:nonzero;stroke:none;stroke-width:5.9419" transform="translate(450.456 -52.9)"/><path d="M1121.008 158.957H988.533v-16.543h132.475z" style="fill:#254aa5;fill-opacity:1;fill-rule:nonzero;stroke:none;stroke-width:5.9419" transform="translate(450.456 -52.9)"/><path d="M1113.706 81.38H995.82v16.644h48.224l11.314-2.692 9.156 2.692h49.193zM562.037 162.92c6.054 0 10.95-4.938 10.95-10.975 0-6.043-4.896-10.885-10.95-10.885-6.026 0-10.934 4.842-10.934 10.885 0 6.037 4.908 10.975 10.934 10.975" style="fill:#254aa5;fill-opacity:1;fill-rule:nonzero;stroke:none;stroke-width:5.94191" transform="translate(450.456 -52.9)"/><path d="M599.617 128.273H511.38v16.548h88.237z" style="fill:#254aa5;fill-opacity:1;fill-rule:nonzero;stroke:none;stroke-width:5.9419" transform="translate(450.456 -52.9)"/><path d="M607.657 122.15c-6.316 0-11.468-5.146-11.468-11.492 0-6.298 5.152-11.402 11.468-11.402 6.323 0 11.468 5.104 11.468 11.402 0 6.346-5.145 11.492-11.468 11.492M551.783 114.66c7.202 0 13.03-5.836 13.03-12.978 0-7.136-5.828-12.93-13.03-12.93-7.195 0-13.048 5.794-13.048 12.93 0 7.142 5.853 12.977 13.048 12.977m-33.138-12.977c0-16.328 14.825-29.626 33.138-29.626s33.156 13.298 33.156 29.626c0 16.376-14.843 29.686-33.156 29.686s-33.138-13.31-33.138-29.686M291.407 97.837c4.046 0 6.322 1.634 8.408 4.985l21.67 31.855h22.056l-28.878-42.408c-6.773-10.309-16.162-11.07-24.79-11.07h-23.725c-8.628 0-18.016.761-24.772 11.07l-28.866 42.408h22.039l21.658-31.855c2.08-3.351 4.385-4.985 8.408-4.985z" style="fill:#254aa5;fill-opacity:1;fill-rule:nonzero;stroke:none;stroke-width:5.94191" transform="translate(450.456 -52.9)"/><path d="M267.981 149.586h20.108v35.776H267.98z" style="fill:#254aa5;fill-opacity:1;fill-rule:nonzero;stroke:none;stroke-width:5.9419" transform="translate(450.456 -52.9)"/><path d="M345.589 158.945H210.487v-16.537H345.59z" style="fill:#254aa5;fill-opacity:1;fill-rule:nonzero;stroke:none;stroke-width:5.9419" transform="translate(450.456 -52.9)"/><path d="M169.087 100.292a2.282 2.282 0 0 0-2.293-2.288l-95.463.018V81.36l100.014.017c9.864 0 17.873 7.517 17.873 16.834l-.03 21.599h-20.1zM33.967 77.725H13.854v89.254l-75.35.03c-1.277 0-2.317-1.064-2.317-2.324V150.52h-20.108l-.023 16.263c0 9.299 8.01 16.81 17.897 16.81l100.014-.054zM636.734 77.725h-20.113v89.254l-75.439.03c-1.26 0-2.287-1.064-2.287-2.324V150.52h-20.12l-.006 16.263c0 9.299 7.998 16.81 17.88 16.81l100.085-.036zM169.087 161.278c0-1.29-1.016-2.353-2.293-2.353l-95.463.03v-16.573l100.014.024c9.864 0 17.873 7.463 17.873 16.727l-.03 26.25h-20.1zM705.095 97.947c3.078 0 5.74 1.955 6.709 4.659l17.903 48.01h22.092l-17.796-47.766s-3.393-13.792-22.378-13.792h-15.294c-19.002 0-22.395 13.792-22.395 13.792l-17.772 47.767h22.068l17.938-48.011c.975-2.704 3.595-4.659 6.685-4.659z" style="fill:#254aa5;fill-opacity:1;fill-rule:nonzero;stroke:none;stroke-width:5.94191" transform="translate(450.456 -52.9)"/><path d="m693.478 98.011 10.708-2.187 7.314 2.187h38.004V81.38h-90.923V98.01zM1064.511 89.058c18.99 0 28.32 13.79 28.32 13.79l25.532 31.933h-26.34l-25.765-32.176c-2.157-2.703-5.639-4.599-8.723-4.599h-5.436c-3.096 0-6.548 1.896-8.735 4.6l-25.752 32.175h-26.335l25.539-31.932s9.316-13.791 28.313-13.791" style="fill:#254aa5;fill-opacity:1;fill-rule:nonzero;stroke:none;stroke-width:5.94191" transform="translate(450.456 -52.9)"/><path d="M-292.368 235.604c16.001 10.91 35.313 17.297 56.133 17.297 55.206 0 99.985-44.808 99.985-100.015 0-11.7-2.039-23.019-5.758-33.435zM-350.43 52.901c-55.23 0-100.026 44.808-100.026 99.985 0 11.741 2.02 23.072 5.758 33.488l150.366-116.182c-16.037-10.903-35.36-17.29-56.098-17.29M-293.36 133.813l104.547-68.92c-4.153-2.276-8.455-4.242-12.953-5.835l-91.594 71.874-131.834 88.35a99.592 99.592 0 0 0 9.02 8.972zM-293.36 154.35l119.503-79.593c-3.44-2.685-7.053-5.264-10.862-7.546l-108.641 84.22-119.457 79.616c3.381 2.71 7.06 5.253 10.79 7.565zM-293.36 174.844l131.845-88.315c-2.823-3.238-5.853-6.203-9.056-8.972l-122.79 94.37-104.53 68.973c4.118 2.258 8.432 4.249 12.972 5.883zM-293.36 113.313l86.264-56.033c-5.116-1.622-10.363-2.75-15.811-3.482l-70.453 56.591-141.876 95.546c2.3 3.607 4.7 7 7.35 10.286zM-293.36 92.783l62.877-39.692c-1.878-.09-3.833-.19-5.752-.19a98.55 98.55 0 0 0-17.986 1.634l-39.14 35.36-149.581 101.137c1.622 3.916 3.53 7.713 5.603 11.444zM-293.36 195.391l141.863-95.504c-2.234-3.625-4.689-7.012-7.35-10.303L-293.36 192.48l-86.289 56.038a95.967 95.967 0 0 0 15.853 3.488zM-293.36 215.863l149.557-101.036c-1.61-4-3.487-7.772-5.59-11.492L-293.36 212.969l-62.89 39.758c1.86.118 3.81.172 5.823.172 6.097 0 12.146-.565 18.01-1.634z" style="fill:#1aae48;fill-opacity:1;fill-rule:nonzero;stroke:none;stroke-width:5.94191" transform="translate(450.456 -52.9)"/></svg>