<svg xmlns="http://www.w3.org/2000/svg" xml:space="preserve" width="459.01727" height="300" viewBox="0 0 459.01726 300"><path d="M0 0v-.975h5.622V-3.5H4.184v1.738H2.578V-3.5H-.465v-.972h8.563v.972h-.871V0Z" style="fill:#024694;fill-opacity:1;fill-rule:nonzero;stroke:none" transform="matrix(4.91606 0 0 -4.91606 153.1 223.306)"/><path d="M0 0c0 .577.215 1.198 1.063 1.198.85 0 1.065-.621 1.065-1.198s-.215-1.196-1.065-1.196C.215-1.196 0-.577 0 0m3.755-.003c0 1.323-1.006 2.229-2.692 2.229-1.682 0-2.69-.906-2.69-2.229 0-1.325 1.008-2.227 2.69-2.227 1.686 0 2.692.902 2.692 2.227" style="fill:#024694;fill-opacity:1;fill-rule:nonzero;stroke:none" transform="matrix(4.91606 0 0 -4.91606 351.788 231.914)"/><path d="M0 0v.711h3.822v-.858L.137-.148C.063-.148 0-.083 0 0m5.427 2.765H3.822V1.688H-.001v1.077h-1.581L-1.584.287c0-.965.421-1.419.94-1.419h6.071z" style="fill:#024694;fill-opacity:1;fill-rule:nonzero;stroke:none" transform="matrix(4.91606 0 0 -4.91606 359.047 261.4)"/><path d="M0 0c.522-.784 1.516-1.451 2.586-1.717l.359.882C2.278-.623.799.311.799 2.36v.448H-.839V2.36C-.839.311-2.322-.623-2.99-.835l.363-.882C-1.558-1.451-.535-.784 0 0" style="fill:#024694;fill-opacity:1;fill-rule:nonzero;stroke:none" transform="matrix(4.91606 0 0 -4.91606 305.945 235.495)"/><path d="m0 0-.002 2.403h-1.584V.311c0-.966.422-1.421.94-1.421h6.061v.964L.138-.147C.059-.147 0-.082 0 0" style="fill:#024694;fill-opacity:1;fill-rule:nonzero;stroke:none" transform="matrix(4.91606 0 0 -4.91606 305.844 261.362)"/><path d="M0 0c0 .639.163 1.325.97 1.325.806 0 .97-.686.97-1.325 0-.64-.164-1.326-.97-1.326C.163-1.326 0-.64 0 0m3.525 0c0 .508-.134.956-.387 1.317h.716v.965h-2.09v.775H.18v-.775h-2.07v-.965h.693C-1.45.956-1.584.508-1.584 0c0-1.354.955-2.28 2.554-2.28 1.598 0 2.555.926 2.555 2.28" style="fill:#024694;fill-opacity:1;fill-rule:nonzero;stroke:none" transform="matrix(4.91606 0 0 -4.91606 9.291 234.487)"/><path d="M0 0h-1.603v-6.021H0v3.324h1.268v.971H0Z" style="fill:#024694;fill-opacity:1;fill-rule:nonzero;stroke:none" transform="matrix(4.91606 0 0 -4.91606 40.295 221.491)"/><path d="M0 0h-1.604v-6.086H0v3.221h1.261v.975H0Z" style="fill:#024694;fill-opacity:1;fill-rule:nonzero;stroke:none" transform="matrix(4.91606 0 0 -4.91606 332.527 221.4)"/><path d="m0 0 .278-.949C1.509-.686 3.159-.21 3.984.94 4.811-.21 6.461-.686 7.692-.949L7.969 0C6.664.293 5.354.91 5.047 2.336h2.629v.973H.278v-.973h2.644C2.614.91 1.303.293 0 0" style="fill:#024694;fill-opacity:1;fill-rule:nonzero;stroke:none" transform="matrix(4.91606 0 0 -4.91606 247.744 238.995)"/><path d="m0 0-.002 2.331h-1.585V.274c0-.963.422-1.42.942-1.42h6.072v.991H.137C.06-.155 0-.084 0 0" style="fill:#024694;fill-opacity:1;fill-rule:nonzero;stroke:none" transform="matrix(4.91606 0 0 -4.91606 13.617 261.252)"/><path d="M0 0c-.805 0-.971.687-.971 1.326S-.805 2.651 0 2.651c.809 0 .971-.686.971-1.325C.971.687.809 0 0 0m0-.954c1.599 0 2.555.926 2.555 2.28 0 .508-.135.956-.387 1.318h.719v.964H.795v.775H-.792v-.775h-2.067v-.964h.693c-.253-.362-.389-.81-.389-1.318 0-1.354.958-2.28 2.555-2.28" style="fill:#024694;fill-opacity:1;fill-rule:nonzero;stroke:none" transform="matrix(4.91606 0 0 -4.91606 112.288 241.007)"/><path d="M0 0h-1.601v-4.751H0v2.054h1.267v.971H0Z" style="fill:#024694;fill-opacity:1;fill-rule:nonzero;stroke:none" transform="matrix(4.91606 0 0 -4.91606 138.525 221.491)"/><path d="M0 0h-1.146v-.974H0v-2.087h1.603V1.69H0Z" style="fill:#024694;fill-opacity:1;fill-rule:nonzero;stroke:none" transform="matrix(4.91606 0 0 -4.91606 377.847 229.802)"/><path d="M715.674 406.712h1.62v18.607h-1.62zM738.39 406.712h1.618v18.607h-1.619z" style="fill:#024694;fill-opacity:1;fill-rule:nonzero;stroke:none;stroke-width:2.01789" transform="matrix(2.43624 0 0 -2.43624 -1343.822 1257.672)"/><path d="M0 0h-2.657v1.186H.769v.97H.005v3.189h-7.211v-.978h5.608V2.156h-6.199v-.97h3.542V0h-2.951v-.977h5.603v-2.607H0Z" style="fill:#024694;fill-opacity:1;fill-rule:nonzero;stroke:none" transform="matrix(4.91606 0 0 -4.91606 88.687 249.456)"/><path d="M0 0c-1.735 0-2.099.595-2.099 1.147 0 .551.364 1.147 2.099 1.147 1.736 0 2.097-.596 2.097-1.147C2.097.595 1.736 0 0 0m0 3.239c-2.508 0-3.719-.858-3.719-2.114C-3.719-.131-2.508-.989 0-.989s3.717.858 3.717 2.114c0 1.256-1.209 2.114-3.717 2.114" style="fill:#024694;fill-opacity:1;fill-rule:nonzero;stroke:none" transform="matrix(4.91606 0 0 -4.91606 171.636 263.364)"/><path d="M0 0c-1.733 0-2.097.595-2.097 1.147 0 .551.364 1.147 2.097 1.147 1.739 0 2.102-.596 2.102-1.147C2.102.595 1.739 0 0 0m0 3.239c-2.505 0-3.717-.858-3.717-2.114C-3.717-.131-2.505-.989 0-.989c2.511 0 3.722.858 3.722 2.114 0 1.256-1.211 2.114-3.722 2.114" style="fill:#024694;fill-opacity:1;fill-rule:nonzero;stroke:none" transform="matrix(4.91606 0 0 -4.91606 121.064 263.364)"/><path d="M0 0c1.622 0 2.068-.75 2.068-1.347 0-.595-.446-1.347-2.068-1.347-1.62 0-2.069.752-2.069 1.347C-2.069-.75-1.62 0 0 0m0-3.715c2.475 0 3.671.954 3.671 2.344C3.671.021 2.475.972 0 .972c-2.476 0-3.67-.951-3.67-2.343 0-1.39 1.194-2.344 3.67-2.344" style="fill:#024694;fill-opacity:1;fill-rule:nonzero;stroke:none" transform="matrix(4.91606 0 0 -4.91606 219.414 225.865)"/><path d="M0 0h3.484v-2.949h1.594V0h3.485v.969H0Z" style="fill:#024694;fill-opacity:1;fill-rule:nonzero;stroke:none" transform="matrix(4.91606 0 0 -4.91606 198.704 252.64)"/><path d="M0 0h3.381v-2.949h1.595V0h3.38v.969H0Z" style="fill:#024694;fill-opacity:1;fill-rule:nonzero;stroke:none" transform="matrix(4.91606 0 0 -4.91606 246.808 252.64)"/><path d="m0 0 .279-.95c1.14.245 2.64.671 3.513 1.646C4.665-.279 6.165-.705 7.305-.95l.28.95c-1.307.291-2.62.911-2.928 2.335h2.631v.973H.279v-.973h2.644C2.616.911 1.305.291 0 0" style="fill:#024694;fill-opacity:1;fill-rule:nonzero;stroke:none" transform="matrix(4.91606 0 0 -4.91606 410.627 239.038)"/><path d="M0 0h3.379v-2.946h1.594V0h3.383v.974H0Z" style="fill:#024694;fill-opacity:1;fill-rule:nonzero;stroke:none" transform="matrix(4.91606 0 0 -4.91606 408.75 252.702)"/><path d="M0 0h1.071L.036-1.668l1.156-1.891H.065L-.949-1.68zm-1.946 0h.949v-3.559h-.949z" style="fill:#024694;fill-opacity:1;fill-rule:nonzero;stroke:none" transform="matrix(4.91606 0 0 -4.91606 15.383 279.096)"/><path d="M0 0c1.068 0 1.8.661 1.8 1.847 0 1.179-.732 1.84-1.8 1.84-1.069 0-1.799-.661-1.799-1.84C-1.799.661-1.069 0 0 0m0 2.907c.571 0 .853-.517.853-1.066C.853 1.291.571.779 0 .779c-.574 0-.853.512-.853 1.062 0 .549.279 1.066.853 1.066" style="fill:#024694;fill-opacity:1;fill-rule:nonzero;stroke:none" transform="matrix(4.91606 0 0 -4.91606 31.053 296.903)"/><path d="M0 0h1.604c.794 0 1.101-.38 1.101-1.083 0-.421-.243-.726-.66-.901.222-.534.439-1.094.66-1.575H1.686c-.207.673-.415 1.351-.666 1.996.085-.016.161-.026.234-.026.262 0 .545.117.545.464 0 .378-.293.378-.429.378H.905v-2.812H0Z" style="fill:#024694;fill-opacity:1;fill-rule:nonzero;stroke:none" transform="matrix(4.91606 0 0 -4.91606 42.383 279.096)"/><path d="M0 0v-.764h-1.257v-.644H.24v-.764h-2.444v3.559H.24V.624h-1.497V0Z" style="fill:#024694;fill-opacity:1;fill-rule:nonzero;stroke:none" transform="matrix(4.91606 0 0 -4.91606 68.96 285.913)"/><path d="m0 0 .356 1.025h1.11L1.791 0h1.006c-.424 1.18-.879 2.391-1.255 3.559H.407C-.063 2.363-.522 1.158-1.038 0Zm.582 1.771.37 1.021h.009l.324-1.021Z" style="fill:#024694;fill-opacity:1;fill-rule:nonzero;stroke:none" transform="matrix(4.91606 0 0 -4.91606 75.879 296.59)"/><path d="m0 0 .357 1.025h1.109L1.792 0h1.005c-.424 1.18-.88 2.391-1.253 3.559H.406C-.062 2.363-.522 1.158-1.036 0Zm.583 1.771.368 1.021h.011l.324-1.021Z" style="fill:#024694;fill-opacity:1;fill-rule:nonzero;stroke:none" transform="matrix(4.91606 0 0 -4.91606 106.302 296.59)"/><path d="M0 0v-.764h-1.258v-.644H.24v-.764h-2.445v3.559H.24V.624h-1.498V0Z" style="fill:#024694;fill-opacity:1;fill-rule:nonzero;stroke:none" transform="matrix(4.91606 0 0 -4.91606 131.756 285.913)"/><path d="M0 0h1.605c.792 0 1.101-.38 1.101-1.083 0-.421-.245-.726-.659-.901.221-.534.436-1.094.659-1.575H1.685c-.206.673-.414 1.351-.667 1.996.086-.016.162-.026.236-.026.261 0 .544.117.544.464 0 .378-.292.378-.427.378H.906v-2.812H0Z" style="fill:#024694;fill-opacity:1;fill-rule:nonzero;stroke:none" transform="matrix(4.91606 0 0 -4.91606 135.976 279.096)"/><path d="M0 0c1.068 0 1.799.661 1.799 1.847 0 1.179-.731 1.84-1.799 1.84s-1.801-.661-1.801-1.84C-1.801.661-1.068 0 0 0m0 2.907c.573 0 .852-.517.852-1.066C.852 1.291.573.779 0 .779c-.572 0-.852.512-.852 1.062 0 .549.28 1.066.852 1.066" style="fill:#024694;fill-opacity:1;fill-rule:nonzero;stroke:none" transform="matrix(4.91606 0 0 -4.91606 159.783 296.903)"/><path d="M0 0c.239-.137.522-.239.784-.239.155 0 .422.027.422.277C1.206.491.06.854.06 1.762c0 .416.273.923 1.105.923.269 0 .546-.043.797-.102l.103-.843a1.404 1.404 0 0 1-.662.182c-.144 0-.397-.068-.397-.256 0-.521 1.145-.769 1.145-1.697 0-.481-.307-.971-1.145-.971-.301 0-.609.058-.902.122z" style="fill:#024694;fill-opacity:1;fill-rule:nonzero;stroke:none" transform="matrix(4.91606 0 0 -4.91606 170.6 291.977)"/><path d="M0 0h1.679c.216 0 .834-.177.834-1.072 0-.699-.439-1.152-1.051-1.152-.1 0-.203.022-.303.033l-.177.698c.065-.007.127-.032.191-.032.242 0 .441.117.441.388 0 .359-.176.39-.383.39H.907v-2.812H0Z" style="fill:#024694;fill-opacity:1;fill-rule:nonzero;stroke:none" transform="matrix(4.91606 0 0 -4.91606 183.926 279.096)"/><path d="m0 0 .355 1.025h1.112L1.79 0h1.008c-.426 1.18-.88 2.391-1.256 3.559H.407C-.063 2.363-.523 1.158-1.037 0Zm.582 1.771.37 1.021h.009l.324-1.021Z" style="fill:#024694;fill-opacity:1;fill-rule:nonzero;stroke:none" transform="matrix(4.91606 0 0 -4.91606 199.38 296.59)"/><path d="M0 0c-.271-.026-.643-.081-.813-.081-1.07 0-1.798.661-1.798 1.847 0 1.179.728 1.839 1.798 1.839.262 0 .538-.042.799-.097l.073-.825c-.235.08-.47.143-.713.143-.731 0-1.011-.59-1.011-1.066 0-.55.274-1.062.852-1.062.37 0 .637.07.893.144z" style="fill:#024694;fill-opacity:1;fill-rule:nonzero;stroke:none" transform="matrix(4.91606 0 0 -4.91606 226.059 296.504)"/><path d="M0 0v-.764h-1.258v-.644H.239v-.764h-2.444v3.559H.239V.624h-1.497V0Z" style="fill:#024694;fill-opacity:1;fill-rule:nonzero;stroke:none" transform="matrix(4.91606 0 0 -4.91606 239.89 285.913)"/><path d="M656.473 401.674h1.907v-7.182h-1.907z" style="fill:#024694;fill-opacity:1;fill-rule:nonzero;stroke:none;stroke-width:2.01789" transform="matrix(2.43624 0 0 -2.43624 -1343.822 1257.672)"/><path d="M0 0h1.117l1.156-2.314h.006V0h.832v-3.559H2.004L.839-1.286H.83v-2.273H0Z" style="fill:#024694;fill-opacity:1;fill-rule:nonzero;stroke:none" transform="matrix(4.91606 0 0 -4.91606 263.462 279.096)"/><path d="M0 0h1.501c1.038 0 1.534.748 1.534 1.783 0 1.503-.893 1.776-1.334 1.776H0Zm.906 2.796h.473c.507 0 .71-.352.71-1.013 0-.524-.249-1.019-.771-1.019H.906Z" style="fill:#024694;fill-opacity:1;fill-rule:nonzero;stroke:none" transform="matrix(4.91606 0 0 -4.91606 282.06 296.59)"/><path d="M0 0v-2.027c0-.512.122-.816.55-.816.427 0 .55.304.55.816V0h.947v-2.41c0-.859-.613-1.212-1.497-1.212-.884 0-1.497.353-1.497 1.212V0Z" style="fill:#024694;fill-opacity:1;fill-rule:nonzero;stroke:none" transform="matrix(4.91606 0 0 -4.91606 303.88 279.096)"/><path d="M0 0c.238-.137.522-.239.783-.239.155 0 .419.027.419.277C1.202.491.061.854.061 1.762c0 .416.274.923 1.103.923.27 0 .544-.043.797-.102l.102-.843a1.39 1.39 0 0 1-.661.182c-.143 0-.396-.068-.396-.256 0-.521 1.145-.769 1.145-1.697 0-.481-.308-.971-1.145-.971-.303 0-.61.058-.902.122z" style="fill:#024694;fill-opacity:1;fill-rule:nonzero;stroke:none" transform="matrix(4.91606 0 0 -4.91606 316.56 291.977)"/><path d="M0 0h2.818v-.763h-.933v-2.796H.938v2.796H0Z" style="fill:#024694;fill-opacity:1;fill-rule:nonzero;stroke:none" transform="matrix(4.91606 0 0 -4.91606 328.182 279.096)"/><path d="M0 0h1.608c.793 0 1.098-.38 1.098-1.083 0-.421-.243-.726-.657-.901.221-.534.436-1.094.657-1.575H1.688c-.209.673-.415 1.351-.666 1.996a1.25 1.25 0 0 1 .234-.026c.261 0 .545.117.545.464 0 .378-.293.378-.428.378H.907v-2.812H0Z" style="fill:#024694;fill-opacity:1;fill-rule:nonzero;stroke:none" transform="matrix(4.91606 0 0 -4.91606 343.602 279.096)"/><path d="M699.095 401.674h1.913v-7.182h-1.913z" style="fill:#024694;fill-opacity:1;fill-rule:nonzero;stroke:none;stroke-width:2.01789" transform="matrix(2.43624 0 0 -2.43624 -1343.822 1257.672)"/><path d="M0 0v-.764h-1.257v-.644H.24v-.764h-2.445v3.559H.24V.624h-1.497V0Z" style="fill:#024694;fill-opacity:1;fill-rule:nonzero;stroke:none" transform="matrix(4.91606 0 0 -4.91606 378.1 285.913)"/><path d="M0 0c.239-.137.524-.239.784-.239.155 0 .421.027.421.277C1.205.491.06.854.06 1.762c0 .416.275.923 1.103.923.272 0 .548-.043.8-.102l.102-.843c-.206.114-.44.182-.664.182-.142 0-.396-.068-.396-.256 0-.521 1.145-.769 1.145-1.697 0-.481-.306-.971-1.145-.971-.301 0-.607.058-.9.122z" style="fill:#024694;fill-opacity:1;fill-rule:nonzero;stroke:none" transform="matrix(4.91606 0 0 -4.91606 381.803 291.977)"/><path d="M738.32 396.37H740v-1.878h-1.68z" style="fill:#024694;fill-opacity:1;fill-rule:nonzero;stroke:none;stroke-width:2.01789" transform="matrix(2.43624 0 0 -2.43624 -1343.822 1257.672)"/><path d="M0 0h.948v-2.795h1.388v-.764H0Z" style="fill:#024694;fill-opacity:1;fill-rule:nonzero;stroke:none" transform="matrix(4.91606 0 0 -4.91606 412.614 279.096)"/><path d="M0 0h2.818v-.763h-.932v-2.796H.938v2.796H0Z" style="fill:#024694;fill-opacity:1;fill-rule:nonzero;stroke:none" transform="matrix(4.91606 0 0 -4.91606 422.326 279.096)"/><path d="M0 0h1.501c1.037 0 1.532.748 1.532 1.783 0 1.503-.892 1.776-1.334 1.776H0Zm.904 2.796h.476c.506 0 .708-.352.708-1.013 0-.524-.248-1.019-.774-1.019h-.41z" style="fill:#024694;fill-opacity:1;fill-rule:nonzero;stroke:none" transform="matrix(4.91606 0 0 -4.91606 437.761 296.59)"/><path d="M0 0h.89L.25-1.339h-.598z" style="fill:#024694;fill-opacity:1;fill-rule:nonzero;stroke:none" transform="matrix(4.91606 0 0 -4.91606 396.402 293.417)"/><path d="m0 0 2.206 7.364h-7.465L-8.288-2.645c-1.001-.074-3.822-.546-5.103 1.284-3.338 5.004 6.294 13.565 6.294 13.565s5.618 5.141 11.14 8.146c0 0-5.619-2.117-11.802-6.71-4.127-3.069-6.736-6.065-7.848-8.183-2.151-4.09-2.37-8.648 1.603-10.744C-9.429-7.7-.566-5.512 8.047.504c0 0 5.684 3.589 8.265 6.86H8.843S5.422 2.719 0 0" style="fill:#0094bb;fill-opacity:1;fill-rule:nonzero;stroke:none" transform="matrix(4.91606 0 0 -4.91606 152.255 100.042)"/><path d="m0 0-2.514-8.305h-7.49l2.444 8.08s6.77-.481 13.574 2.92l4.685-11.018H3.286Z" style="fill:#024694;fill-opacity:1;fill-rule:nonzero;stroke:none" transform="matrix(4.91606 0 0 -4.91606 141.76 134.308)"/><path d="M0 0h-7.535l6.207 22.658H6.06Z" style="fill:#024694;fill-opacity:1;fill-rule:nonzero;stroke:none" transform="matrix(4.91606 0 0 -4.91606 361.116 175.226)"/><path d="m0 0 2.941 6.605L3.455 0Zm.183 14.029L-11.305-8.629h7.465l1.633 3.671h6.051l.283-3.671h7.463L8.364 14.029Z" style="fill:#024694;fill-opacity:1;fill-rule:nonzero;stroke:none" transform="matrix(4.91606 0 0 -4.91606 257.427 132.805)"/><path d="M0 0h-54.949l.7 2.344H.647Z" style="fill:#024694;fill-opacity:1;fill-rule:nonzero;stroke:none" transform="matrix(4.91606 0 0 -4.91606 356.584 195.094)"/></svg>