<svg xmlns="http://www.w3.org/2000/svg" width="1086.7802mm" height="300mm" viewBox="0 0 1086.7802 300"><defs><radialGradient id="a" cx="221.06348" cy="-271.07812" r="46.563099" fx="221.06348" fy="-271.07812" gradientTransform="matrix(2.04085 0 0 -2.04453 -590.648 -390.283)" gradientUnits="userSpaceOnUse" spreadMethod="pad"><stop offset="0" style="stop-opacity:1;stop-color:#fab80a"/><stop offset="1" style="stop-opacity:1;stop-color:#f35e19"/></radialGradient><radialGradient id="b" cx="223.5459" cy="-264.15723" r="44.184971" fx="223.5459" fy="-264.15723" gradientTransform="matrix(2.04453 0 0 -2.04453 -589.544 -390.283)" gradientUnits="userSpaceOnUse" spreadMethod="pad"><stop offset="0" style="stop-opacity:1;stop-color:#7dd5f7"/><stop offset="1" style="stop-opacity:1;stop-color:#0499db"/></radialGradient><radialGradient id="c" cx="223.50098" cy="-257.42285" r="41.477718" fx="223.50098" fy="-257.42285" gradientTransform="matrix(2.04453 0 0 -2.04453 -589.544 -390.283)" gradientUnits="userSpaceOnUse" spreadMethod="pad"><stop offset="0" style="stop-opacity:1;stop-color:#b3dc26"/><stop offset="0.82028398" style="stop-opacity:1;stop-color:#59c134"/><stop offset="1" style="stop-opacity:1;stop-color:#59c134"/></radialGradient><radialGradient id="d" cx="614.21973" cy="-234.05566" r="4.1252398" fx="614.21973" fy="-234.05566" gradientTransform="matrix(-2.04453 0 0 -2.04453 1121.787 -390.283)" gradientUnits="userSpaceOnUse" spreadMethod="pad"><stop offset="0" style="stop-opacity:1;stop-color:#e7e6e6"/><stop offset="1" style="stop-opacity:1;stop-color:#abaaaa"/></radialGradient><radialGradient id="e" cx="81.446289" cy="-251.11377" r="5.48877" fx="81.446289" fy="-251.11377" gradientTransform="matrix(1.48474 0 0 -1.48474 -176.594 -217.321)" gradientUnits="userSpaceOnUse" spreadMethod="pad"><stop offset="0" style="stop-opacity:1;stop-color:#e7e6e6"/><stop offset="1" style="stop-opacity:1;stop-color:#abaaaa"/></radialGradient><radialGradient id="f" cx="-39.875" cy="-273.98633" r="5.4899902" fx="-39.875" fy="-273.98633" gradientTransform="matrix(1.48474 0 0 -1.48474 -176.594 -217.321)" gradientUnits="userSpaceOnUse" spreadMethod="pad"><stop offset="0" style="stop-opacity:1;stop-color:#e7e6e6"/><stop offset="1" style="stop-opacity:1;stop-color:#abaaaa"/></radialGradient></defs><path d="M-257.375 168.984c0-20.437 57.263-37.001 127.922-37.001 54.624 0 101.238 9.908 119.584 23.851-15.923-15.855-66.767-27.441-127.03-27.441-73.018 0-132.21 17.009-132.21 38 0 14.202 27.108 26.586 67.256 33.105-33.536-6.67-55.522-17.85-55.522-30.514z" style="fill:url(#a);fill-opacity:1;fill-rule:nonzero;stroke:none;stroke-width:2.04454" transform="matrix(1.42293 0 0 1.42293 382.923 -63.144)"/><path d="M56.377 134.368v-9.566c-1.214-2.595-5.131-3.421-6.964-3.683h-.176v34.846h7.14v-15.273h7.206v-6.324zM8.75 137.363c0 3.982 1.539 7.265 4.638 9.862 2.927 2.483 6.411 3.72 10.44 3.72 4.071 0 7.56-1.237 10.456-3.72 3.053-2.563 4.575-5.847 4.575-9.862 0-1.544-.366-3.02-1.1-4.449a11.31 11.31 0 0 0-2.684-3.525h5.678v-6.211H27.671v-1.19c-1.315-2.814-5.764-3.568-7.353-3.74h-.323v4.93H6.665v6.211h5.57c-1.15 1.133-2.004 2.335-2.573 3.594-.615 1.373-.912 2.836-.912 4.38m9.53-5.376c1.553-1.384 3.388-2.083 5.496-2.083 2.09 0 3.912.699 5.509 2.083 1.713 1.463 2.568 3.226 2.568 5.308 0 2.001-.855 3.753-2.568 5.25-1.635 1.464-3.466 2.208-5.509 2.208-2.108 0-3.943-.744-5.497-2.207-1.555-1.464-2.324-3.204-2.324-5.251 0-2.082.77-3.845 2.324-5.308zM17.84 158.312c-1.344-2.62-5.449-3.398-7.136-3.606v13.168c0 1.626.36 2.802 1.095 3.534.648.687 1.687 1.031 3.116 1.031h41.88v-6.267H17.84ZM121.503 144.859v-6.34h-2.61v-17.446H70.896v6.258h40.855v11.188H69.056v6.34h22.413v8.28H70.896v6.27h40.855v13.315h7.142V153.14h-20.42v-8.281zM142.79 166.148v-9.862c-1.11-2.176-4.105-3.09-6.077-3.455h-.939v14.963c0 1.66.372 2.86 1.099 3.58.688.698 1.745 1.043 3.174 1.043h41.81v-6.27z" style="fill:#514e4f;fill-opacity:1;fill-rule:nonzero;stroke:none;stroke-width:2.04454" transform="matrix(1.42293 0 0 1.42293 382.923 -63.144)"/><path d="M148.44 158.698h7.069v-12.023h12.343v-6.2h-8.294c2.907-2.32 4.387-5.24 4.387-8.762 0-3.867-1.54-7.07-4.59-9.589-2.804-2.32-6.134-3.477-9.962-3.477-4.027 0-7.497 1.156-10.388 3.477-3.089 2.484-4.648 5.676-4.648 9.59 0 3.521 1.497 6.44 4.44 8.761h-7.14v6.2h16.784v12.023m-4.956-32.202c1.59-1.454 3.47-2.196 5.627-2.196 2.074 0 3.891.742 5.422 2.196 1.562 1.464 2.337 3.192 2.337 5.194 0 1.91-.775 3.613-2.337 5.115-1.53 1.498-3.348 2.253-5.422 2.253-2.157 0-4.037-.755-5.627-2.253-1.495-1.502-2.254-3.204-2.254-5.115 0-2.002.759-3.73 2.254-5.194z" style="fill:#514e4f;fill-opacity:1;fill-rule:nonzero;stroke:none;stroke-width:2.04454" transform="matrix(1.42293 0 0 1.42293 382.923 -63.144)"/><path d="M162.158 157.121h12.159v4.394h7.14V124.3c-1.705-2.37-5.826-2.976-7.14-3.113v29.723h-12.16zM455.57 166.148v-9.862c-1.094-2.176-4.097-3.09-6.06-3.455h-.942v14.963c0 1.66.368 2.86 1.098 3.58.691.698 1.75 1.043 3.159 1.043h41.827v-6.27z" style="fill:#514e4f;fill-opacity:1;fill-rule:nonzero;stroke:none;stroke-width:2.04454" transform="matrix(1.42293 0 0 1.42293 382.923 -63.144)"/><path d="M461.227 158.698h7.09v-12.023h12.319v-6.2h-8.292c2.915-2.32 4.392-5.24 4.392-8.762 0-3.867-1.533-7.07-4.588-9.589-2.811-2.32-6.131-3.477-9.965-3.477-4.027 0-7.49 1.156-10.384 3.477-3.103 2.484-4.648 5.676-4.648 9.59 0 3.521 1.49 6.44 4.436 8.761h-7.144v6.2h16.784v12.023m-4.948-32.202c1.591-1.454 3.46-2.196 5.62-2.196 2.085 0 3.892.742 5.43 2.196 1.557 1.464 2.328 3.192 2.328 5.194 0 1.91-.771 3.613-2.329 5.115-1.537 1.498-3.344 2.253-5.428 2.253-2.16 0-4.03-.755-5.62-2.253-1.496-1.502-2.265-3.204-2.265-5.115 0-2.002.769-3.73 2.264-5.194z" style="fill:#514e4f;fill-opacity:1;fill-rule:nonzero;stroke:none;stroke-width:2.04454" transform="matrix(1.42293 0 0 1.42293 382.923 -63.144)"/><path d="M474.964 157.121h12.135v4.394h7.148V124.3c-1.701-2.37-5.818-2.976-7.148-3.113v29.723h-12.135zM286.687 147.145v-6.2h-21.03v-3.765h21.03v-16.107H258.51v6.2h21.02v3.764h-21.02v11.361c0 1.703.376 2.95 1.103 3.73.654.675 1.697 1.017 3.126 1.017zM299.345 121.211v4.576h-8.36v6.2h8.36v4.106h-8.36v6.202h8.36v6.224h7.144v-24.014c-1.573-2.471-5.668-3.146-7.144-3.294zM260.814 158.676h38.531v14.037h7.144v-20.305h-45.675zM361.865 155.874h7.15v-31.403c-1.623-2.426-5.73-3.078-7.15-3.227v5.549h-9.278v6.201h9.278v4.725h-9.278v6.188h9.278zM330.476 166.148v-7.87c-1.222-2.518-4.704-3.455-6.678-3.8h-.462v13.362c0 1.626.364 2.813 1.099 3.535.655.697 1.693 1.042 3.098 1.042h41.897v-6.27zM334.538 148.222c4.198 0 7.87-1.316 11.003-3.96 3.34-2.815 5.013-6.383 5.013-10.694 0-4.407-1.673-8.008-5.013-10.826-3.133-2.642-6.805-3.97-11.003-3.97-4.33 0-8.041 1.328-11.19 3.97-3.326 2.818-5.003 6.42-5.003 10.826 0 4.356 1.677 7.928 5.003 10.695 3.103 2.643 6.829 3.96 11.19 3.96m-6.168-20.513c1.795-1.545 3.855-2.336 6.168-2.336 2.148 0 4.108.79 5.858 2.336 1.827 1.622 2.745 3.579 2.745 5.858 0 2.228-.918 4.151-2.745 5.728-1.75 1.547-3.71 2.324-5.858 2.324-2.313 0-4.373-.777-6.168-2.324-1.827-1.577-2.745-3.5-2.745-5.728 0-2.325.918-4.28 2.745-5.858zM431.569 144.916v-23.843h-47.99v6.2h40.842v17.643H381.75v6.335h21.858v21.68h7.076v-21.68h23.505v-6.335zM218.81 147.248c-2.325-4.565-3.502-11.2-3.548-19.917h12.093v-6.258h-31.51v6.258h12.031c-.088 8.682-1.282 15.284-3.594 19.849-2.13 4.197-5.195 6.68-9.224 7.446v7.151c3.326-.458 6.341-1.74 9.029-3.856 3.098-2.434 5.604-5.87 7.513-10.306 1.867 4.554 4.187 7.997 6.958 10.306 2.644 2.161 5.868 3.478 9.656 3.913v-7.265c-4.153-.731-7.29-3.18-9.404-7.321zM243.955 139.471v-13.605c-1.394-3.682-5.397-4.485-7.152-4.655v51.513h7.152v-26.985h7.196v-6.268zM11.826 185.115h3.493v8.866h.077c.464-.745.949-1.431 1.408-2.082l5.03-6.784h4.34l-6.629 8.2 7.062 11.066h-4.119l-5.456-8.832-1.713 2.058v6.774h-3.493zM41.294 197.297c0 5.114-3.6 7.402-7.14 7.402-3.953 0-6.972-2.722-6.972-7.171 0-4.576 2.997-7.379 7.206-7.379 4.133 0 6.906 2.916 6.906 7.148m-10.484.14c0 2.69 1.314 4.712 3.456 4.712 2.005 0 3.403-1.966 3.403-4.772 0-2.173-.969-4.654-3.373-4.654-2.49 0-3.486 2.4-3.486 4.715zM44.186 194.954c0-1.889-.024-3.228-.116-4.485h3.063l.111 2.652h.11c.69-1.966 2.32-2.972 3.803-2.972.344 0 .546.023.831.079v3.32c-.285-.045-.599-.114-1.032-.114-1.691 0-2.825 1.086-3.137 2.663a5.44 5.44 0 0 0-.116 1.085v7.199h-3.518zM56.589 198.408c.083 2.518 2.058 3.601 4.288 3.601 1.626 0 2.797-.227 3.85-.629l.513 2.426c-1.19.494-2.853.893-4.852.893-4.516 0-7.17-2.802-7.17-7.057 0-3.856 2.34-7.493 6.8-7.493 4.545 0 6.003 3.716 6.003 6.77 0 .666-.057 1.182-.12 1.49h-9.312m6.117-2.463c.028-1.28-.547-3.396-2.893-3.396-2.166 0-3.08 1.97-3.224 3.396zM79.65 201.039c0 1.26.057 2.483.201 3.342h-3.172l-.224-1.545h-.09c-.856 1.085-2.32 1.863-4.115 1.863-2.807 0-4.372-2.036-4.372-4.152 0-3.512 3.114-5.286 8.257-5.252v-.227c0-.916-.375-2.44-2.823-2.44-1.381 0-2.809.437-3.75 1.043l-.686-2.289c1.03-.626 2.83-1.233 5.035-1.233 4.453 0 5.739 2.835 5.739 5.854v5.036m-3.429-3.454c-2.49-.057-4.86.478-4.86 2.598 0 1.373.89 2.002 2.007 2.002 1.402 0 2.424-.918 2.738-1.923.085-.255.115-.54.115-.765zM93.284 198.923l-1.663 5.458H88l6.17-19.266h4.492l6.25 19.266h-3.772l-1.743-5.458h-6.112m5.513-2.653-1.513-4.748c-.382-1.18-.683-2.483-.973-3.605h-.054c-.29 1.122-.575 2.46-.916 3.605l-1.488 4.748zM111.068 186.9v3.569h3.337v2.631h-3.337v6.142c0 1.684.444 2.562 1.793 2.562.655 0 .975-.055 1.374-.168l.056 2.687c-.513.206-1.43.376-2.54.376-1.293 0-2.376-.455-3.03-1.177-.74-.801-1.089-2.047-1.089-3.889V193.1h-2.002v-2.631h2.002v-2.575zM130.124 197.297c0 5.114-3.606 7.402-7.136 7.402-3.957 0-6.976-2.722-6.976-7.171 0-4.576 2.995-7.379 7.192-7.379 4.15 0 6.92 2.916 6.92 7.148m-10.49.14c0 2.69 1.313 4.712 3.458 4.712 1.998 0 3.394-1.966 3.394-4.772 0-2.173-.97-4.654-3.362-4.654-2.496 0-3.49 2.4-3.49 4.715zM133.007 194.61c0-1.6-.024-2.94-.116-4.141h3.047l.138 2.047h.092c.673-1.073 1.93-2.367 4.276-2.367 1.83 0 3.257 1.028 3.856 2.574h.058c.477-.78 1.052-1.34 1.715-1.74.769-.55 1.657-.834 2.803-.834 2.31 0 4.656 1.577 4.656 6.029v8.203h-3.434v-7.69c0-2.31-.796-3.68-2.484-3.68-1.202 0-2.088.854-2.46 1.851-.091.342-.17.779-.17 1.177v8.342h-3.415v-8.054c0-1.946-.783-3.317-2.404-3.317-1.33 0-2.213 1.028-2.52 2.002-.148.341-.204.742-.204 1.143v8.226h-3.434zM160.988 186.578c0 1.054-.775 1.889-1.999 1.889-1.168 0-1.949-.835-1.949-1.889 0-1.085.805-1.91 1.985-1.91 1.188 0 1.94.825 1.963 1.91m-3.734 17.803V190.47h3.542v13.912zM174.802 203.957c-.749.343-2.212.742-3.947.742-4.353 0-7.178-2.802-7.178-7.114 0-4.178 2.85-7.436 7.733-7.436 1.294 0 2.612.284 3.414.665l-.633 2.62c-.569-.255-1.395-.54-2.653-.54-2.69 0-4.291 1.968-4.255 4.52 0 2.848 1.85 4.483 4.255 4.483a7.018 7.018 0 0 0 2.767-.539zM194.223 195.835h-7.251v5.664h8.11v2.882h-11.636v-19.266h11.204v2.893h-7.678v4.976h7.251zM198.033 194.61c0-1.6-.034-2.94-.116-4.141h3.09l.16 2.081h.096c.603-1.085 2.113-2.4 4.425-2.4 2.436 0 4.943 1.576 4.943 5.972v8.26h-3.514v-7.86c0-2.002-.746-3.512-2.653-3.512-1.408 0-2.37 1.003-2.745 2.058-.114.317-.136.742-.136 1.144v8.17h-3.55zM216.863 198.408c.078 2.518 2.062 3.601 4.287 3.601 1.63 0 2.797-.227 3.857-.629l.52 2.426c-1.203.494-2.862.893-4.867.893-4.514 0-7.17-2.802-7.17-7.057 0-3.856 2.34-7.493 6.807-7.493 4.538 0 5.992 3.716 5.992 6.77 0 .666-.058 1.182-.114 1.49h-9.312m6.112-2.463c.034-1.28-.542-3.396-2.884-3.396-2.176 0-3.09 1.97-3.228 3.396zM229.124 194.954c0-1.889-.032-3.228-.112-4.485h3.047l.114 2.652h.114c.692-1.966 2.324-2.972 3.81-2.972.34 0 .534.023.83.079v3.32c-.296-.045-.603-.114-1.022-.114-1.7 0-2.844 1.086-3.151 2.663a5.9 5.9 0 0 0-.116 1.085v7.199h-3.514zM251.662 202.355c0 2.917-.591 4.998-2.057 6.314-1.451 1.28-3.458 1.682-5.362 1.682-1.777 0-3.666-.367-4.856-1.111l.77-2.663c.877.524 2.368 1.063 4.062 1.063 2.278 0 3.993-1.201 3.993-4.197v-1.202h-.058c-.805 1.224-2.232 2.06-4.05 2.06-3.47 0-5.93-2.86-5.93-6.806 0-4.579 2.974-7.346 6.328-7.346 2.108 0 3.366 1.028 4.027 2.174h.058l.136-1.854h3.053c-.046.936-.114 2.081-.114 3.993v7.893m-3.508-6.316c0-.32-.022-.654-.114-.948-.371-1.283-1.374-2.253-2.847-2.253-1.983 0-3.434 1.714-3.434 4.539 0 2.382 1.2 4.29 3.398 4.29 1.31 0 2.456-.855 2.86-2.115.08-.378.137-.86.137-1.259zM257.648 190.469l2.508 7.457c.295.861.579 1.913.772 2.712h.092c.222-.8.485-1.827.735-2.746l2.176-7.423h3.77l-3.484 9.483c-1.917 5.206-3.197 7.518-4.864 8.946-1.362 1.226-2.791 1.694-3.686 1.806l-.798-2.985c.602-.135 1.35-.458 2.056-.97.667-.423 1.43-1.247 1.925-2.2.135-.249.215-.454.215-.628 0-.137-.022-.342-.191-.686l-5.092-12.766zM275.777 185.377c1.326-.227 3.298-.398 5.333-.398 2.773 0 4.658.458 5.94 1.542 1.064.88 1.657 2.234 1.657 3.857 0 2.496-1.681 4.174-3.486 4.826v.091c1.374.515 2.204 1.855 2.687 3.72.605 2.403 1.119 4.622 1.51 5.366h-3.63c-.284-.575-.745-2.14-1.278-4.542-.547-2.52-1.465-3.318-3.458-3.376h-1.773v7.918h-3.502v-19.004m3.502 8.524h2.085c2.376 0 3.857-1.272 3.857-3.182 0-2.115-1.481-3.087-3.765-3.087-1.123 0-1.833.091-2.177.171zM294.475 198.408c.092 2.518 2.069 3.601 4.291 3.601 1.633 0 2.8-.227 3.866-.629l.515 2.426c-1.202.494-2.86.893-4.866.893-4.518 0-7.17-2.802-7.17-7.057 0-3.856 2.344-7.493 6.795-7.493 4.554 0 6.007 3.716 6.007 6.77 0 .666-.055 1.182-.113 1.49h-9.325m6.13-2.463c.022-1.28-.55-3.396-2.893-3.396-2.176 0-3.089 1.97-3.237 3.396zM306.569 201.154c.794.482 2.316.995 3.576.995 1.531 0 2.222-.629 2.222-1.546 0-.937-.559-1.43-2.29-2.024-2.714-.936-3.846-2.424-3.824-4.06 0-2.461 2.029-4.37 5.264-4.37 1.543 0 2.883.4 3.685.834l-.683 2.484c-.596-.346-1.72-.802-2.956-.802-1.248 0-1.931.593-1.931 1.455 0 .892.65 1.316 2.428 1.941 2.515.93 3.687 2.21 3.717 4.27 0 2.505-1.97 4.368-5.666 4.368-1.681 0-3.203-.433-4.233-1.005zM321.152 198.408c.082 2.518 2.049 3.601 4.28 3.601 1.622 0 2.8-.227 3.854-.629l.514 2.426c-1.189.494-2.858.893-4.852.893-4.519 0-7.17-2.802-7.17-7.057 0-3.856 2.344-7.493 6.794-7.493 4.545 0 6.008 3.716 6.008 6.77 0 .666-.055 1.182-.114 1.49h-9.314m6.11-2.463c.02-1.28-.55-3.396-2.883-3.396-2.177 0-3.089 1.97-3.227 3.396zM344.215 201.039c0 1.26.058 2.483.194 3.342h-3.167l-.231-1.545h-.092c-.843 1.085-2.306 1.863-4.117 1.863-2.794 0-4.37-2.036-4.37-4.152 0-3.512 3.108-5.286 8.257-5.252v-.227c0-.916-.365-2.44-2.825-2.44-1.372 0-2.803.437-3.742 1.043l-.683-2.289c1.03-.626 2.824-1.233 5.024-1.233 4.46 0 5.752 2.835 5.752 5.854v5.036m-3.434-3.454c-2.494-.057-4.858.478-4.858 2.598 0 1.373.879 2.002 1.999 2.002 1.395 0 2.426-.918 2.745-1.923.092-.255.114-.54.114-.765zM347.923 194.954c0-1.889-.032-3.228-.114-4.485h3.065l.114 2.652h.101c.691-1.966 2.325-2.972 3.81-2.972.343 0 .535.023.823.079v3.32c-.288-.045-.595-.114-1.027-.114-1.685 0-2.825 1.086-3.138 2.663-.057.31-.114.687-.114 1.085v7.199h-3.52zM368.08 203.957c-.758.343-2.21.742-3.949.742-4.344 0-7.176-2.802-7.176-7.114 0-4.178 2.854-7.436 7.735-7.436 1.294 0 2.608.284 3.415.665l-.633 2.62c-.57-.255-1.396-.54-2.668-.54-2.675 0-4.277 1.968-4.255 4.52 0 2.848 1.857 4.483 4.255 4.483a7.039 7.039 0 0 0 2.781-.539zM370.676 184.083h3.532v8.296h.07a4.703 4.703 0 0 1 1.741-1.601c.683-.4 1.51-.629 2.404-.629 2.364 0 4.848 1.577 4.848 6.029v8.203h-3.508v-7.804c0-2.025-.749-3.546-2.69-3.546-1.38 0-2.336.914-2.715 1.98-.116.284-.15.65-.15 1.05v8.32h-3.532zM396.598 185.115v19.266h-3.52v-19.266zM400.65 194.61c0-1.6-.024-2.94-.116-4.141h3.086l.176 2.081h.092c.593-1.085 2.102-2.4 4.424-2.4 2.428 0 4.956 1.576 4.956 5.972v8.26h-3.526v-7.86c0-2.002-.745-3.512-2.664-3.512-1.397 0-2.371 1.003-2.747 2.058-.112.317-.136.742-.136 1.144v8.17h-3.546zM416.822 201.154c.815.482 2.312.995 3.584.995 1.531 0 2.222-.629 2.222-1.546 0-.937-.575-1.43-2.292-2.024-2.7-.936-3.853-2.424-3.821-4.06 0-2.461 2.028-4.37 5.25-4.37 1.546 0 2.896.4 3.698.834l-.69 2.484c-.603-.346-1.714-.802-2.951-.802-1.256 0-1.941.593-1.941 1.455 0 .892.663 1.316 2.434 1.941 2.506.93 3.683 2.21 3.703 4.27 0 2.505-1.96 4.368-5.648 4.368-1.68 0-3.198-.433-4.23-1.005zM432.943 186.9v3.569h3.354v2.631h-3.354v6.142c0 1.684.459 2.562 1.797 2.562.662 0 .976-.055 1.385-.168l.056 2.687c-.511.206-1.442.376-2.55.376-1.294 0-2.37-.455-3.033-1.177-.746-.801-1.086-2.047-1.086-3.889V193.1h-2.004v-2.631h2.004v-2.575zM442.694 186.578c0 1.054-.77 1.889-2.009 1.889-1.177 0-1.94-.835-1.94-1.889 0-1.085.81-1.91 1.976-1.91 1.202 0 1.95.825 1.973 1.91m-3.743 17.803V190.47h3.548v13.912zM450.293 186.9v3.569h3.357v2.631h-3.357v6.142c0 1.684.466 2.562 1.801 2.562.663 0 .975-.055 1.376-.168l.052 2.687c-.511.206-1.43.376-2.54.376-1.293 0-2.38-.455-3.028-1.177-.745-.801-1.088-2.047-1.088-3.889V193.1h-2.007v-2.631h2.007v-2.575zM468.762 200.216c0 1.645.052 3.019.112 4.165h-3.083l-.173-2.116h-.058c-.611 1.006-1.98 2.434-4.46 2.434-2.54 0-4.864-1.522-4.864-6.063v-8.167h3.528v7.573c0 2.31.728 3.798 2.597 3.798 1.404 0 2.316-.995 2.688-1.888.116-.319.204-.687.204-1.086v-8.397h3.51zM476.585 186.9v3.569h3.342v2.631h-3.342v6.142c0 1.684.463 2.562 1.813 2.562.647 0 .968-.055 1.361-.168l.058 2.687c-.52.206-1.42.376-2.541.376-1.282 0-2.37-.455-3.037-1.177-.729-.801-1.08-2.047-1.08-3.889V193.1h-2.005v-2.631h2.005v-2.575zM484.903 198.408c.095 2.518 2.062 3.601 4.292 3.601 1.626 0 2.804-.227 3.858-.629l.525 2.426c-1.216.494-2.873.893-4.878.893-4.504 0-7.168-2.802-7.168-7.057 0-3.856 2.344-7.493 6.805-7.493 4.538 0 5.996 3.716 5.996 6.77 0 .666-.047 1.182-.118 1.49h-9.312m6.121-2.463c.024-1.28-.547-3.396-2.893-3.396-2.176 0-3.086 1.97-3.228 3.396z" style="fill:#514e4f;fill-opacity:1;fill-rule:nonzero;stroke:none;stroke-width:2.04454" transform="matrix(1.42293 0 0 1.42293 382.923 -63.144)"/><path d="M-73.261 57.963C-92.55 46.83-135.24 84.7-168.643 142.55c-26.503 45.909-39.185 90.604-33.655 112.659-8.43-21.29 4.621-70.38 33.781-120.896 34.73-60.12 79.123-99.493 99.176-87.917 16.83 9.713 11.133 52.274-11.69 101.26 19.024-43.81 23.075-80.862 7.77-89.692z" style="fill:url(#b);fill-opacity:1;fill-rule:nonzero;stroke:none;stroke-width:2.04454" transform="matrix(1.42293 0 0 1.42293 382.923 -63.144)"/><path d="M-228.938 98.867c11.816-19.891 69.18-7.64 128.12 27.363 33.903 20.145 60.924 43.404 75.532 63.36-13.009-21.536-43.563-48.533-83.108-71.367-60.134-34.73-118.28-46.625-129.845-26.562-7.812 13.51 7.59 38.133 36.905 63.38-23.378-22.724-34.816-44.02-27.603-56.174z" style="fill:url(#c);fill-opacity:1;fill-rule:nonzero;stroke:none;stroke-width:2.04454" transform="matrix(1.42293 0 0 1.42293 382.923 -63.144)"/><path d="M-165.29 190.417h-.086v13.987h-8.352v-30.99h8.352v12.557h.086l6.75-12.556h9.242l-8.89 14.508 9.548 16.481h-9.717zM-127.987 197.827h-9.106l-2.002 6.577h-7.99l10.301-30.99h9.196l9.854 30.99h-8.606l-1.647-6.577m-4.27-18.108h-.09l-3.342 12.16h6.135zM-113.472 173.415h19.01v6.12h-10.841v5.944h10.306v6.138h-10.306v6.645h11.417v6.142h-19.586zM-75.997 195.61c-.793-2.976-2.181-3.332-3.5-3.332h-.445v12.126h-8.352v-30.99h12.395c6.257 0 9.806 2.61 9.806 8.342 0 4.575-3.241 6.44-5.946 7.104v.126c1.775.583 2.92 1.43 4.175 5.744l2.793 9.674h-8.622l-2.304-8.794m-1.872-9.28c1.786 0 3.418-1.332 3.418-3.338 0-2.116-1.107-3.626-3.536-3.626h-2.311v6.965zM-59.832 173.415h8.349v30.989h-8.35z" style="fill:#231f20;fill-opacity:1;fill-rule:nonzero;stroke:none;stroke-width:2.04454" transform="matrix(1.42293 0 0 1.42293 382.923 -63.144)"/><path d="M-142.437 88.258a8.433 8.433 0 0 0 8.43 8.43 8.426 8.426 0 0 0 8.431-8.43c0-4.65-3.765-8.442-8.43-8.442-4.654 0-8.431 3.792-8.431 8.442z" style="fill:url(#d);fill-opacity:1;fill-rule:nonzero;stroke:none;stroke-width:2.04454" transform="matrix(1.42293 0 0 1.42293 382.923 -63.144)"/><path d="M-47.523 155.526a8.137 8.137 0 0 1-8.147 8.146 8.134 8.134 0 0 1-8.144-8.146c0-4.514 3.638-8.162 8.144-8.162s8.147 3.648 8.147 8.162z" style="fill:url(#e);fill-opacity:1;fill-rule:nonzero;stroke:none;stroke-width:2.04454" transform="matrix(1.42293 0 0 1.42293 382.923 -63.144)"/><path d="M-227.652 189.464c0 4.51-3.637 8.17-8.15 8.17-4.506 0-8.143-3.66-8.143-8.17 0-4.5 3.637-8.143 8.143-8.143a8.138 8.138 0 0 1 8.15 8.143z" style="fill:url(#f);fill-opacity:1;fill-rule:nonzero;stroke:none;stroke-width:2.04454" transform="matrix(1.42293 0 0 1.42293 382.923 -63.144)"/></svg>