<svg xmlns="http://www.w3.org/2000/svg" width="639.47162pt" height="150pt" viewBox="0 0 639.47159 150"><path fill="#003a5d" d="M102.053 129.772c7.926 0 11.896 2.4 11.896 7.195v5.924c0 4.73-3.97 7.109-11.896 7.109H73.595v-4.92h28.458c3.738 0 5.596-.74 5.596-2.19v-5.923c0-1.522-1.858-2.282-5.596-2.282H84.326c-7.919 0-11.884-2.388-11.884-7.199v-3.633c0-4.807 3.965-7.203 11.884-7.203h27.53v4.917h-27.53c-3.723 0-5.58.764-5.58 2.286v3.633c0 1.522 1.857 2.286 5.58 2.286zM245.04 129.772c7.919 0 11.9 2.4 11.9 7.195v5.924c0 4.73-3.981 7.109-11.9 7.109h-28.474v-4.92h28.474c3.723 0 5.6-.74 5.6-2.19v-5.923c0-1.522-1.877-2.282-5.6-2.282h-17.723c-7.922 0-11.888-2.388-11.888-7.199v-3.633c0-4.807 3.966-7.203 11.888-7.203h27.527v4.917h-27.527c-3.714 0-5.596.764-5.596 2.286v3.633c0 1.522 1.882 2.286 5.596 2.286zM556.238 129.772c7.943 0 11.892 2.4 11.892 7.195v5.924c0 4.73-3.95 7.109-11.892 7.109h-28.47v-4.92h28.47c3.734 0 5.596-.74 5.596-2.19v-5.923c0-1.522-1.862-2.282-5.596-2.282H538.53c-7.93 0-11.892-2.388-11.892-7.199v-3.633c0-4.807 3.961-7.203 11.892-7.203h27.523v4.917h-27.523c-3.739 0-5.592.764-5.592 2.286v3.633c0 1.522 1.853 2.286 5.592 2.286zM332.212 116.65h-42.175v4.92h17.933v28.429h6.296v-28.43h17.946zM406.481 121.567v-4.92h-40.443v33.269h40.431v-4.925h-34.126v-10.156h32.706v-4.92h-32.706v-8.348zM189.64 116.65h-7.865l-17.084 15.873-17.083-15.874h-7.87l21.801 20.32V150h6.3v-13.021zM485.18 116.65l-19.095 26.268-19.082-26.269h-6.304V150h6.304v-24.982l18.156 24.982h1.869l18.152-24.982v24.982h6.304v-33.35zM0 87.544h13.15V50.977h85.503v36.567h13.159V37.7H0Z" style="stroke-width:4.04632"/><path fill="#e43d30" d="M13.15.003H.002v26.11h13.146zM111.815.003H98.656v26.11h13.159z" style="stroke-width:4.04632"/><path fill="#003a5d" d="M126.503 59.397v6.454c0 11.937 9.768 21.692 21.705 21.692h93.275V37.701h-93.275c-11.937 0-21.705 9.76-21.705 21.696m101.822 15h-80.117c-4.633 0-8.554-3.913-8.554-8.546v-6.328c0-4.633 3.92-8.546 8.554-8.546h80.117z" style="stroke-width:4.04632"/><path fill="#e43d30" d="M241.482 20.308h-.037C241.053 9.048 231.795 0 220.441 0h-86.38v13.155h86.38c4.095 0 7.437 3.152 7.813 7.153v5.807h13.228z" style="stroke-width:4.04632"/><path fill="#003a5d" d="M260.517 87.545h13.154V37.702h-13.154zM359.13 87.545h13.154V37.702H359.13z" style="stroke-width:4.04632"/><path fill="#e43d30" d="M273.747 20.308c.376-4.001 3.718-7.153 7.813-7.153h69.682c4.099 0 7.437 3.152 7.813 7.153h.057v5.807h13.19v-5.807h-.056C371.858 9.048 362.6 0 351.242 0H281.56c-11.358 0-20.616 9.048-21.004 20.308v5.807h13.19z" style="stroke-width:4.04632"/><path fill="#003a5d" d="M260.517 37.7h13.154zM359.13 37.7h13.159zM527.703 87.545h13.155V37.702h-13.155zM626.316 87.545h13.155V37.702h-13.155z" style="stroke-width:4.04632"/><path fill="#e43d30" d="M540.895 20.308c.376-4.001 3.715-7.153 7.814-7.153h69.681c4.095 0 7.437 3.152 7.814 7.153h.056v5.807h13.191v-5.807h-.056C639.002 9.048 629.745 0 618.39 0H548.71c-11.358 0-20.616 9.048-21.005 20.308v5.807h13.191z" style="stroke-width:4.04632"/><path fill="#003a5d" d="M527.704 37.7h13.154zM626.317 37.7h13.155ZM496.471 38.696v14.437c0 11.722-9.541 21.264-21.263 21.264h-50.644c-11.73 0-21.267-9.542-21.267-21.264V38.696c0-.336-.017-.664 0-.995h-13.155c-.012.331 0 .66 0 .995v14.437c0 18.925 15.493 34.414 34.422 34.414h50.644c18.928 0 34.414-15.49 34.414-34.414V38.696c0-.336-.04-.664-.049-.995h-13.15c.012.331.048.66.048.995" style="stroke-width:4.04632"/><path fill="#e43d30" d="M424.558 13.156h50.644c8.776 0 16.299 5.353 19.536 12.956h13.818C504.813 11.17 491.262.002 475.202.002h-50.644c-16.064 0-29.61 11.167-33.354 26.11h13.819c3.24-7.603 10.763-12.956 19.535-12.956" style="stroke-width:4.04632"/><path fill="#003a5d" d="M496.422 37.7h13.15zM390.143 37.7h13.154z" style="stroke-width:4.04632"/></svg>